<?xml version="1.0" encoding="UTF-8"?>
<svg width="84px" height="84px" viewBox="0 0 84 84" version="1.1" xmlns="http://www.w3.org/2000/svg" xmlns:xlink="http://www.w3.org/1999/xlink">
    <!-- Generator: Sketch 48.2 (47327) - http://www.bohemiancoding.com/sketch -->
    <title>noun_1462716_cc</title>
    <desc>Created with Sketch.</desc>
    <defs></defs>
    <g id="Page-1" stroke="none" stroke-width="1" fill="none" fill-rule="evenodd">
        <g id="noun_1462716_cc" fill="#4B4B4B" fill-rule="nonzero">
            <path d="M71.96,5.88 L12.04,5.88 L12.04,2.1 C12.04,0.98 13.02,0 14.14,0 L69.72,0 C70.84,0 71.82,0.98 71.82,2.1 L71.82,5.88 L71.96,5.88 Z M77.98,12.18 C77.98,11.06 77,10.08 75.88,10.08 L8.12,10.08 C7,10.08 6.02,11.06 6.02,12.18 L6.02,18.9 L78.12,18.9 L78.12,12.18 L77.98,12.18 Z M84,25.2 L84,81.9 C84,83.02 83.02,84 81.9,84 L2.1,84 C0.98,84 0,83.02 0,81.9 L0,25.2 C0,24.08 0.98,23.1 2.1,23.1 L81.9,23.1 C83.02,23.1 84,24.08 84,25.2 Z M60.62,53.62 C60.62,52.78 60.2,52.08 59.5,51.8 L32.34,37.8 C31.64,37.52 30.94,37.52 30.24,37.8 C29.54,38.22 29.26,38.92 29.26,39.62 L29.26,67.62 C29.26,68.32 29.68,69.02 30.24,69.44 C30.52,69.58 30.94,69.72 31.36,69.72 C31.64,69.72 32.06,69.58 32.34,69.44 L59.5,55.44 C60.2,55.02 60.62,54.32 60.62,53.62 Z" id="Shape"></path>
        </g>
    </g>
</svg>