<?xml version="1.0" encoding="UTF-8"?>
<svg width="139px" height="293px" viewBox="0 0 139 293" version="1.1" xmlns="http://www.w3.org/2000/svg" xmlns:xlink="http://www.w3.org/1999/xlink">
    <!-- Generator: Sketch 48.2 (47327) - http://www.bohemiancoding.com/sketch -->
    <title>Group 4</title>
    <desc>Created with Sketch.</desc>
    <defs></defs>
    <g id="Page-1" stroke="none" stroke-width="1" fill="none" fill-rule="evenodd">
        <g id="Group-4" transform="translate(2.000000, 4.000000)" stroke="#FC7536">
            <path d="M19.3472366,0 C79.4493839,42.8843848 104.770552,82.5910039 95.3107411,119.119857 C81.1210247,173.913137 39.6479882,160.411582 16.6461014,187.118 C3.88985034,201.928689 -13.367199,228.246956 16.6461014,261.841167 C21.9248381,267.749714 32.5828738,274.739837 48.6202085,282.811536" id="Path-3" stroke-width="4"></path>
            <path d="M58.8317879,3 C42,46.6082588 37.792053,85.451586 46.207947,119.529982 C58.8317879,170.647575 80.5521293,179.4309 95.5515682,199.873817 C110.551007,220.316733 110.004123,227.301818 110.551007,240.734926 C110.915596,249.690331 104.70223,265.419825 91.9109077,287.923408" id="Path-4" stroke-width="2"></path>
            <path d="M67.8286655,0 C33.6626742,22.017193 17.801317,53.4713735 20.2445939,94.3625416 C23.9095092,155.699294 52.740631,184.923714 83.2999274,208.82598 C103.672792,224.760823 119.962018,249.73379 132.167605,283.74488" id="Path-5" stroke-width="9"></path>
        </g>
    </g>
</svg>