<?xml version="1.0" standalone="no"?>
<!DOCTYPE svg PUBLIC "-//W3C//DTD SVG 1.1//EN" "http://www.w3.org/Graphics/SVG/1.1/DTD/svg11.dtd" >
<svg xmlns="http://www.w3.org/2000/svg" xmlns:xlink="http://www.w3.org/1999/xlink" version="1.1">
<metadata>
Created by FontForge 20161013 at Sat Apr  3 20:29:46 2010
 By ,,,
2008 Mitja Miklavcic published by FSI FontShop International GmbH
</metadata>
<defs>
<font id="TisaPro-BoldItalic" horiz-adv-x="570" >
  <font-face 
    font-family="TisaPro"
    font-weight="700"
    font-style="italic"
    font-stretch="normal"
    units-per-em="1000"
    panose-1="2 0 8 3 6 0 0 9 0 3"
    ascent="800"
    descent="-200"
    x-height="483"
    cap-height="709"
    bbox="-88 -342 1333 1162"
    underline-thickness="50"
    underline-position="-200"
    slope="-12"
    unicode-range="U+0020-FB04"
  />
<missing-glyph horiz-adv-x="736" 
d="M69 0l75 723h518l-64 -723h-529zM340 498l5 45q14 7 34 7q40 0 40 -36q0 -23 -21 -47t-46 -42.5t-46 -47t-21 -60.5q0 -44 35 -77q20 2 44.5 13t37.5 23q-15 22 -15 48q0 21 24 43t52.5 39.5t52.5 51t24 74.5q0 47 -36 72t-101 25q-76 0 -154 -26q-8 -73 0 -126
q17 0 46.5 6.5t44.5 14.5zM347 212q-28 0 -47.5 -17.5t-19.5 -44.5q0 -65 67 -65q27 0 45 17.5t18 47.5t-17 46t-46 16z" />
    <glyph glyph-name=".notdef" horiz-adv-x="736" 
d="M69 0l75 723h518l-64 -723h-529zM340 498l5 45q14 7 34 7q40 0 40 -36q0 -23 -21 -47t-46 -42.5t-46 -47t-21 -60.5q0 -44 35 -77q20 2 44.5 13t37.5 23q-15 22 -15 48q0 21 24 43t52.5 39.5t52.5 51t24 74.5q0 47 -36 72t-101 25q-76 0 -154 -26q-8 -73 0 -126
q17 0 46.5 6.5t44.5 14.5zM347 212q-28 0 -47.5 -17.5t-19.5 -44.5q0 -65 67 -65q27 0 45 17.5t18 47.5t-17 46t-46 16z" />
    <glyph glyph-name=".null" horiz-adv-x="0" 
 />
    <glyph glyph-name="nonmarkingreturn" horiz-adv-x="333" 
 />
    <glyph glyph-name="space" unicode=" " horiz-adv-x="199" 
 />
    <glyph glyph-name="exclam" unicode="!" horiz-adv-x="291" 
d="M260 712l-83 -487q-25 -5 -52 -5q-28 0 -53 5l7 467q69 23 135 23q33 0 46 -3zM108 152q38 0 60 -21.5t22 -62.5t-23 -64.5t-59 -23.5q-85 0 -85 88q0 36 24.5 60t60.5 24z" />
    <glyph glyph-name="quotedbl" unicode="&#x22;" horiz-adv-x="423" 
d="M316 417q-40 0 -86 11q27 146 41 288q66 0 123 -16q-6 -53 -30.5 -139.5t-47.5 -143.5zM103 417q-40 0 -86 11q27 146 41 288q66 0 123 -16q-6 -53 -30.5 -139.5t-47.5 -143.5z" />
    <glyph glyph-name="numbersign" unicode="#" horiz-adv-x="668" 
d="M588 134h-101l-31 -131q-22 -6 -66 -6t-63 6l37 131h-137l-32 -131q-21 -6 -65 -6t-63 6l37 131h-100q7 43 28 86h96l34 119h-106q5 36 28 86h101l31 112q50 12 115 12l-29 -124h144l30 112q51 12 116 12l-29 -124h94q0 -44 -16 -86h-100l-30 -119h93q0 -44 -16 -86z
M277 341l-31 -124h144l34 124h-147z" />
    <glyph glyph-name="dollar" unicode="$" horiz-adv-x="632" 
d="M390 417l5 47q-21 8 -45 8q-64 0 -64 -53q0 -25 25 -42t60.5 -30t71 -29.5t60.5 -50t25 -82.5q0 -81 -47.5 -131t-128.5 -67l-10 -85q-16 -5 -65 -5q-45 0 -65 5l10 81q-83 10 -143 46q-1 9 -1 26q0 61 23 115q79 0 134 -20l-7 -62q28 -15 70 -15q77 0 77 66
q0 27 -25 45.5t-61 31.5t-72 29t-61 48t-25 79q0 72 44.5 119.5t122.5 61.5l9 74q51 14 128 14l-11 -87q67 -9 120 -39q0 -71 -26 -128q-80 0 -128 30z" />
    <glyph glyph-name="uni0025" unicode="%" horiz-adv-x="971" 
d="M246 562q74 0 113.5 -37t39.5 -109q0 -87 -56 -137.5t-148 -50.5q-152 0 -152 141q0 87 55.5 140t147.5 53zM231 476q-32 0 -50 -28t-18 -69q0 -66 48 -66q31 0 48.5 28t17.5 70q0 65 -46 65zM761 546l-456 -595q-21 4 -51.5 24t-42.5 35l438 562q60 -2 112 -26zM764 314
q74 0 113.5 -37t39.5 -109q0 -87 -56 -137.5t-148 -50.5q-152 0 -152 141q0 87 55.5 140t147.5 53zM749 228q-32 0 -50 -28t-18 -69q0 -66 48 -66q31 0 48.5 28t17.5 70q0 65 -46 65z" />
    <glyph glyph-name="ampersand" unicode="&#x26;" horiz-adv-x="823" 
d="M458 135q-81 97 -186 179q-82 -50 -82 -132q0 -53 33.5 -78.5t89.5 -25.5q85 0 145 57zM338 425q67 41 67 117q0 37 -15.5 55t-38.5 18q-26 0 -48 -22t-22 -67q0 -60 57 -101zM597 406l194 16q0 -17 -9.5 -47t-19.5 -44q-15 -9 -54 -15q-32 -99 -85 -174q22 -24 37 -44
q49 -6 68 -13q11 -44 11 -85h-177q-20 35 -42 60q-100 -80 -230 -80q-63 0 -115.5 16.5t-90 58.5t-37.5 104q0 73 48 130t117 76v9q-72 42 -72 134q0 49 21 88t54.5 61.5t71.5 34.5t76 12q69 0 123.5 -38t54.5 -110q0 -63 -41.5 -115t-98.5 -66v-9q77 -61 149 -137
q38 78 47 177z" />
    <glyph glyph-name="quotesingle" unicode="'" horiz-adv-x="210" 
d="M103 417q-40 0 -86 11q27 146 41 288q66 0 123 -16q-6 -53 -30.5 -139.5t-47.5 -143.5z" />
    <glyph glyph-name="parenleft" unicode="(" horiz-adv-x="324" 
d="M138 -219q-73 209 -73 413q0 277 151 569q21 11 64.5 19t75.5 8q-71 -136 -110 -302t-39 -323q0 -185 45 -340q-43 -26 -114 -44z" />
    <glyph glyph-name="parenright" unicode=")" horiz-adv-x="307" 
d="M-31 -178q139 275 139 630q0 177 -34 307q51 36 116 41q60 -179 60 -391q0 -157 -39.5 -303t-131.5 -328q-68 14 -110 44z" />
    <glyph glyph-name="asterisk" unicode="*" horiz-adv-x="445" 
d="M344 406l-62 62q-27 27 -34 40l-7 -5q8 -24 8 -56l2 -85q-22 -6 -55 -6q-34 0 -57 6l22 85q7 28 22 52l-6 6q-6 -6 -23 -20.5t-19 -16.5l-72 -59q-13 15 -26 46t-15 53l78 25q38 13 58 17l1 8q-15 1 -54 16l-68 26q5 22 22 54.5t33 48.5l63 -52q23 -19 34 -39l8 5
q-9 25 -9 53v76q42 11 107 11l-18 -87q-6 -31 -25 -55l8 -6q22 23 45 40l74 52q31 -36 52 -88l-94 -39q-26 -11 -56 -15l-1 -8q20 -1 53 -14l83 -29q-9 -21 -32.5 -54t-39.5 -48z" />
    <glyph glyph-name="plus" unicode="+" 
d="M345 325h174q6 -55 -9 -108h-177l-20 -195q-21 -6 -65 -6t-69 6l23 195h-179q5 56 24 108h168l22 184q60 15 128 15z" />
    <glyph glyph-name="comma" unicode="," horiz-adv-x="218" 
d="M44 13l-53 12q21 61 56 96q20 7 54 7q56 0 103 -15q-22 -75 -69 -170t-88 -151q-19 6 -43 18t-31 20q54 119 71 183z" />
    <glyph glyph-name="hyphen" unicode="-" horiz-adv-x="343" 
d="M285 220h-269q5 60 25 112h253q1 -4 1 -12v-13q0 -51 -10 -87z" />
    <glyph glyph-name="period" unicode="." horiz-adv-x="281" 
d="M130 175q41 0 65 -24t24 -67q0 -44 -25 -70t-64 -26q-93 0 -93 96q0 40 26.5 65.5t66.5 25.5z" />
    <glyph glyph-name="slash" unicode="/" horiz-adv-x="454" 
d="M515 747l-426 -932q-24 4 -62 20.5t-54 28.5l418 898q69 0 124 -15z" />
    <glyph glyph-name="zero" unicode="0" horiz-adv-x="625" 
d="M340 559q115 0 176.5 -62.5t61.5 -185.5q0 -150 -88 -240.5t-233 -90.5q-236 0 -236 246q0 150 87.5 241.5t231.5 91.5zM320 464q-69 0 -107.5 -67.5t-38.5 -162.5q0 -75 26.5 -116.5t76.5 -41.5q66 0 107.5 67.5t41.5 163.5q0 74 -27 115.5t-79 41.5z" />
    <glyph glyph-name="one" unicode="1" horiz-adv-x="449" 
d="M139 111l36 319l-136 -19q12 67 32 100q118 42 261 48l-46 -448q60 -6 106 -23q8 -40 -3 -88h-382q14 52 35 85q39 17 97 26z" />
    <glyph glyph-name="two" unicode="2" horiz-adv-x="546" 
d="M185 355q-49 -25 -125 -27q-4 40 -4 65q0 67 14 115q115 51 229 51q198 0 198 -127q0 -38 -21 -78t-48.5 -70t-73 -64.5t-74 -52.5t-71.5 -44v-12q162 6 269 20q-2 -72 -21 -131h-435l-6 96q21 17 85 61t109.5 77.5t85 80.5t39.5 85q0 59 -64 59q-44 0 -75 -18z" />
    <glyph glyph-name="three" unicode="3" horiz-adv-x="531" 
d="M190 448l-8 -64q-42 -25 -124 -29q-12 76 6 161q111 43 222 43q83 0 141 -36.5t58 -107.5q0 -58 -42.5 -106t-96.5 -64v-9q54 -10 86 -43t32 -88q0 -101 -95.5 -161.5t-218.5 -60.5q-82 0 -151 23q-9 18 -14.5 52t-1.5 55q80 -26 167 -26q61 0 106 24.5t45 71.5
q0 50 -45 72.5t-144 22.5q0 45 19 96q50 2 91.5 14t72 39.5t30.5 67.5q0 32 -20 48.5t-49 16.5q-34 0 -66 -12z" />
    <glyph glyph-name="four" unicode="4" horiz-adv-x="569" 
d="M437 67l-15 -163q-27 -7 -68 -7q-50 0 -75 7l16 163h-292l-13 74q138 207 340 418l149 -23l-33 -363h75q8 -50 -6 -106h-78zM306 172l13 141q4 49 19 98h-12q-94 -97 -180 -233v-12q38 6 85 6h75z" />
    <glyph glyph-name="five" unicode="5" horiz-adv-x="523" 
d="M99 542h394q-7 -67 -28 -126q-114 7 -255 10l-16 -133q27 8 67 8q88 0 141 -42t53 -128q0 -78 -46.5 -136t-115.5 -85t-146 -27q-71 0 -137 19q-9 19 -14.5 51.5t-1.5 53.5q78 -19 144 -19q69 0 115 32.5t46 95.5q0 86 -105 86q-57 0 -154 -20z" />
    <glyph glyph-name="six" unicode="6" 
d="M195 361h12q44 52 127 52q84 0 130.5 -50t46.5 -132q0 -108 -78.5 -179.5t-192.5 -71.5q-104 0 -157.5 65.5t-53.5 187.5q0 182 107.5 301t257.5 119q68 0 116 -28q9 -20 13.5 -55t0.5 -57q-24 14 -65 24.5t-72 10.5q-59 0 -113.5 -44t-78.5 -143zM184 273q-5 -35 -5 -68
q0 -61 20.5 -95t59.5 -34q46 0 75.5 43.5t29.5 102.5q0 91 -79 91q-56 0 -101 -40z" />
    <glyph glyph-name="seven" unicode="7" horiz-adv-x="539" 
d="M507 539l13 -92q-215 -297 -296 -540q-35 -7 -78 -7q-46 0 -83 8q53 139 124.5 254t178.5 246v12h-212q-15 -49 -37 -89q-22 0 -55.5 6.5t-50.5 14.5l32 187h464z" />
    <glyph glyph-name="eight" unicode="8" horiz-adv-x="568" 
d="M170 321v9q-91 42 -91 133q0 63 37 107.5t90 63.5t116 19q84 0 143 -36t59 -111q0 -60 -37 -102t-85 -52v-9q109 -44 109 -151q0 -100 -80 -156t-193 -56q-39 0 -74.5 8t-69 25.5t-53 51t-19.5 79.5q0 70 43 119.5t105 57.5zM246 286q-35 -17 -56 -49t-21 -73
q0 -47 26 -69.5t63 -22.5q41 0 73.5 24t32.5 70q0 23 -7.5 40t-27.5 32.5t-34.5 23t-48.5 24.5zM322 387q59 42 59 107q0 38 -23 55.5t-54 17.5q-32 0 -60.5 -18t-28.5 -56q0 -35 25.5 -57t81.5 -49z" />
    <glyph glyph-name="nine" unicode="9" 
d="M362 180h-12q-50 -53 -129 -53q-87 0 -133 51.5t-46 134.5q0 108 75 177t189 69q105 0 159.5 -65.5t54.5 -191.5q0 -180 -99 -299.5t-254 -119.5q-76 0 -138 31q-10 21 -16 54t-2 55q28 -13 72.5 -22t76.5 -9q63 0 118.5 42t83.5 146zM374 277q4 25 4 53q0 63 -22.5 99
t-63.5 36q-46 0 -75.5 -41.5t-29.5 -99.5q0 -46 20 -71.5t55 -25.5q64 0 112 50z" />
    <glyph glyph-name="colon" unicode=":" horiz-adv-x="254" 
d="M148 507q40 0 64 -23t24 -65q0 -44 -24.5 -69t-63.5 -25q-90 0 -90 94q0 39 25.5 63.5t64.5 24.5zM116 175q41 0 65 -24t24 -67q0 -44 -25 -70t-64 -26q-93 0 -93 96q0 40 26.5 65.5t66.5 25.5z" />
    <glyph glyph-name="semicolon" unicode=";" horiz-adv-x="350" 
d="M157 507q40 0 64 -23t24 -65q0 -44 -24.5 -69t-63.5 -25q-90 0 -90 94q0 39 25.5 63.5t64.5 24.5zM59 13l-53 12q21 61 56 96q21 7 54 7q56 0 103 -15q-24 -77 -70.5 -171t-86.5 -150q-58 19 -74 38q54 121 71 183z" />
    <glyph glyph-name="less" unicode="&#x3c;" 
d="M509 462l-279 -186v-11l221 -172q-9 -20 -37.5 -52t-48.5 -45l-288 232l17 87l323 219q24 -11 51.5 -32.5t40.5 -39.5z" />
    <glyph glyph-name="equal" unicode="=" 
d="M495 313h-429q5 54 24 107h414q6 -54 -9 -107zM471 117h-429q5 54 24 107h414q6 -54 -9 -107z" />
    <glyph glyph-name="greater" unicode="&#x3e;" 
d="M478 224l-338 -237q-17 12 -38.5 45.5t-26.5 55.5l267 172v12l-236 189q40 38 106 64l270 -220z" />
    <glyph glyph-name="question" unicode="?" horiz-adv-x="438" 
d="M138 619l-8 -88q-41 -22 -117 -29q-3 34 -3 75q0 57 6 111q114 38 221 38q87 0 137 -35t50 -97q0 -45 -22 -83t-54 -64t-63.5 -48.5t-53.5 -48.5t-22 -54q0 -35 16 -58q-20 -14 -53.5 -26.5t-59.5 -14.5q-39 42 -39 100q0 36 20 67.5t48 55.5t56 47t48 50t20 56
q0 24 -16 41.5t-49 17.5q-29 0 -62 -13zM161 152q38 0 60 -21.5t22 -62.5t-23 -64.5t-59 -23.5q-85 0 -85 88q0 36 24.5 60t60.5 24z" />
    <glyph glyph-name="at" unicode="@" horiz-adv-x="1011" 
d="M719 439l-67 -292q2 -19 8 -31q95 20 145 97.5t50 169.5q0 80 -42.5 137.5t-107.5 83.5t-143 26q-177 0 -298 -130.5t-121 -312.5q0 -148 84.5 -236t233.5 -88q61 0 131.5 17.5t126.5 47.5q10 -11 22.5 -35t16.5 -40q-144 -86 -326 -86q-189 0 -298.5 110t-109.5 294
q0 151 74 278t203 201t283 74q168 0 277.5 -87.5t109.5 -240.5q0 -154 -105.5 -269.5t-307.5 -126.5q-14 23 -21 67h-9q-56 -67 -135 -67q-58 0 -94 42t-36 124q0 62 22.5 125t61.5 110q79 92 204 92q101 0 168 -54zM527 153l52 242q-15 5 -33 5q-55 0 -96 -53
q-48 -64 -48 -151q0 -48 11 -67.5t36 -19.5q21 0 43 12t35 32z" />
    <glyph glyph-name="A" unicode="A" horiz-adv-x="755" 
d="M723 0h-304q7 44 32 91q26 9 62 16q-13 19 -27 66l-8 28h-237l-13 -33q-15 -35 -36 -65q36 -3 65 -12q12 -46 12 -91h-284q8 39 32 90q21 10 49 15l307 614h108l183 -611q31 -6 51 -15q8 -36 8 -93zM401 573h-12q-9 -61 -45 -143l-60 -136h172l-35 136q-20 75 -20 143z
" />
    <glyph glyph-name="B" unicode="B" horiz-adv-x="672" 
d="M508 380v-9q57 -16 89.5 -54.5t32.5 -94.5q0 -48 -18 -87.5t-47.5 -65.5t-70 -43.5t-84.5 -25t-92 -7.5q-145 0 -309 10q6 47 27 90q26 9 67 15l44 496q-41 4 -63 10q-4 49 6 93q169 13 262 13q122 0 196 -44.5t74 -132.5q0 -55 -32 -101t-82 -62zM272 320l-18 -227
q28 -4 65 -4q158 0 158 121q0 55 -38.5 82.5t-103.5 27.5h-63zM293 622l-15 -207h60q134 0 134 110q0 50 -36 75.5t-101 25.5q-18 0 -42 -4z" />
    <glyph glyph-name="C" unicode="C" horiz-adv-x="637" 
d="M472 517l9 98q-29 15 -66 15q-94 0 -156 -84.5t-62 -219.5q0 -116 47.5 -172.5t132.5 -56.5q97 0 197 38q0 -21 -10 -51.5t-23 -50.5q-102 -53 -211 -53q-136 0 -215 90t-79 240q0 184 115.5 301.5t280.5 117.5q107 0 194 -47q-11 -108 -36 -194q-67 0 -118 29z" />
    <glyph glyph-name="D" unicode="D" horiz-adv-x="736" 
d="M102 110l43 487q-38 4 -63 9q-5 50 6 94q144 18 271 18q165 0 258.5 -78t93.5 -234q0 -99 -30 -179.5t-81 -131t-115.5 -77t-136.5 -26.5q-204 0 -340 13q6 52 27 90q23 9 67 15zM292 615l-38 -519q32 -5 68 -5q108 0 172.5 76.5t64.5 216.5q0 117 -57 176.5t-156 59.5
q-27 0 -54 -5z" />
    <glyph glyph-name="E" unicode="E" horiz-adv-x="639" 
d="M563 0h-559q6 52 27 90q23 9 69 16l44 499q-41 4 -63 12q-5 54 6 92h528l-17 -181q-66 0 -109 15q-5 30 -5 72h-194l-14 -207h155q2 12 12 44q48 15 108 15l-14 -205q-64 -6 -107 8q-5 20 -5 46h-156l-17 -220h189q7 45 21 81q45 15 116 15z" />
    <glyph glyph-name="F" unicode="F" horiz-adv-x="581" 
d="M265 298l-12 -192q55 -4 96 -14q4 -18 3.5 -46.5t-4.5 -45.5h-343q6 50 26 90q21 8 69 16l40 499q-41 4 -63 12q-7 50 5 92h509l-16 -190q-62 0 -110 17q-7 42 -7 79h-172l-14 -225h134q5 29 13 48q50 16 107 16l-17 -216q-66 -6 -107 9q-3 16 -5 51h-132z" />
    <glyph glyph-name="G" unicode="G" horiz-adv-x="733" 
d="M622 261l-20 -231q-52 -18 -132 -34t-142 -16q-139 0 -214 85t-75 231q0 188 116.5 310.5t299.5 122.5q120 0 215 -62q-11 -108 -37 -182q-26 0 -64 9t-53 18l10 102q-37 20 -86 20q-101 0 -170 -91t-69 -236q0 -223 181 -223q33 0 83 6l18 170q-71 0 -121 11
q-8 40 -8 90h358q-4 -47 -21 -90q-34 -8 -69 -10z" />
    <glyph glyph-name="H" unicode="H" horiz-adv-x="823" 
d="M550 311h-278l-16 -205q38 -3 70 -14q3 -16 1.5 -46t-5.5 -46h-316q9 55 28 90q21 8 69 16l47 499q-41 4 -63 12q-5 51 7 92h278q2 -15 -2 -45.5t-9 -46.5q-29 -9 -66 -11l-14 -196h279l18 195q-36 4 -57 12q-3 60 8 92h278q2 -15 -2 -45.5t-9 -46.5q-32 -9 -73 -11
l-39 -500q41 -3 77 -14q3 -16 1.5 -46t-5.5 -46h-315q9 56 26 90q21 9 63 16z" />
    <glyph glyph-name="I" unicode="I" horiz-adv-x="394" 
d="M328 0h-323q9 55 28 90q23 9 69 16l47 499q-41 4 -63 12q-5 51 7 92h286q2 -15 -1.5 -46t-8.5 -46q-32 -9 -73 -11l-41 -500q41 -3 77 -14q7 -53 -4 -92z" />
    <glyph glyph-name="J" unicode="J" horiz-adv-x="361" 
d="M288 606l-27 -364q-23 -300 -298 -425q-13 14 -25 37.5t-15 42.5q165 93 185 319l34 389q-51 4 -82 12q-6 46 7 92h304q2 -15 -2 -45.5t-9 -46.5q-30 -9 -72 -11z" />
    <glyph glyph-name="K" unicode="K" horiz-adv-x="742" 
d="M282 405h61l117 148q24 34 51 53q-29 4 -50 10q-8 39 -1 93h279q-8 -51 -27 -99q-22 -5 -62 -7l-199 -235l185 -265l64 4q-4 -56 -36 -107q-65 -17 -139 -20l-209 333h-40l-17 -207q37 -3 69 -14q3 -16 1.5 -46t-5.5 -46h-316q9 55 28 90q19 8 69 16l47 499q-41 4 -63 12
q-5 51 7 92h278q2 -15 -2 -45.5t-9 -46.5q-29 -9 -65 -11z" />
    <glyph glyph-name="L" unicode="L" horiz-adv-x="628" 
d="M104 106l47 499q-41 4 -63 12q-5 51 7 92h313q2 -15 -2 -46t-10 -46q-40 -9 -100 -11l-40 -508h192q10 54 24 98q48 17 120 17l-19 -213h-566q9 55 28 90q25 9 69 16z" />
    <glyph glyph-name="M" unicode="M" horiz-adv-x="965" 
d="M381 -11l-105 429q-19 82 -19 174h-12l-41 -487q34 -4 62 -14q7 -50 -5 -91h-256q9 53 25 90q21 9 58 16l47 499q-38 4 -58 12q-5 51 7 92h263l94 -361q21 -79 21 -193h12q5 37 21 91t30 85l173 378h254q4 -42 -10 -92q-32 -9 -73 -11l-42 -504q40 -4 76 -12
q7 -30 -2 -90h-297q6 53 25 90q29 11 62 16l46 490h-12q-28 -118 -58 -186l-178 -421h-108z" />
    <glyph glyph-name="N" unicode="N" horiz-adv-x="772" 
d="M334 709l169 -390q28 -64 35 -151h12l41 437q-45 4 -73 12q-5 53 8 92h245q2 -15 -2 -45.5t-9 -46.5q-26 -9 -66 -11l-52 -614h-160l-182 433q-32 75 -37 146h-12l-37 -465q39 -3 71 -14q3 -16 1.5 -46t-5.5 -46h-276q9 53 25 90q24 9 64 16l47 499q-41 4 -63 12
q-5 51 7 92h249z" />
    <glyph glyph-name="O" unicode="O" horiz-adv-x="712" 
d="M407 729q132 0 206 -84t74 -243q0 -189 -100 -305.5t-264 -116.5q-134 0 -205 82.5t-71 238.5q0 188 99.5 308t260.5 120zM391 631q-60 0 -103.5 -47t-63.5 -119t-20 -157q0 -109 35.5 -169t102.5 -60q86 0 138 93t52 228q0 109 -36.5 170t-104.5 61z" />
    <glyph glyph-name="P" unicode="P" horiz-adv-x="623" 
d="M104 106l40 496q-32 0 -64 6q-4 28 4 97q116 14 253 14q142 0 215 -45.5t73 -149.5q0 -123 -84 -189.5t-200 -66.5q-47 0 -75 7l-12 -169q56 -4 99 -14q4 -16 3 -46t-5 -46h-343q9 58 27 90q26 10 69 16zM286 620l-14 -250q28 -6 71 -6q58 0 96 36t38 103q0 120 -140 120
q-35 0 -51 -3z" />
    <glyph glyph-name="Q" unicode="Q" horiz-adv-x="746" 
d="M407 729q132 0 207 -84t75 -243q0 -212 -126 -327v-9q37 -37 80.5 -71.5t59.5 -36.5l87 10q0 -56 -38 -124q-10 -5 -34.5 -10.5t-35.5 -5.5q-37 0 -106 56.5t-122 118.5q-61 -23 -131 -23q-134 0 -206 82.5t-72 238.5q0 188 100 308t262 120zM391 631q-60 0 -104 -47
t-64.5 -119t-20.5 -157q0 -109 36.5 -169t103.5 -60q86 0 139 93.5t53 227.5q0 109 -37.5 170t-105.5 61z" />
    <glyph glyph-name="R" unicode="R" horiz-adv-x="690" 
d="M103 106l46 494q-38 0 -64 7q-3 36 6 97q116 15 276 15q118 0 189 -48t71 -143q0 -75 -44 -132t-113 -80q32 -74 69.5 -134.5t58.5 -77.5l53 6q0 -23 -9 -54.5t-20 -49.5q-56 -17 -130 -22q-25 20 -75.5 117.5t-81.5 190.5q-40 0 -68 7l-14 -193q39 -3 71 -14
q3 -16 1.5 -46t-5.5 -46h-314q9 55 28 90q19 8 69 16zM292 619l-17 -227q27 -6 77 -6q52 0 89.5 32t37.5 89q0 55 -36 85.5t-96 30.5q-25 0 -55 -4z" />
    <glyph glyph-name="S" unicode="S" horiz-adv-x="584" 
d="M408 540l8 82q-31 16 -64 16q-49 0 -78.5 -25.5t-29.5 -64.5q0 -36 30.5 -63t73.5 -48t86 -45.5t73.5 -66.5t30.5 -100q0 -66 -23.5 -114.5t-66 -76.5t-94 -41t-114.5 -13q-121 0 -212 37q10 110 35 198q72 0 121 -18l-9 -104q54 -21 99 -21q55 0 87.5 27t32.5 78
q0 37 -30 64t-72.5 46.5t-85.5 43.5t-73 68t-30 106q0 104 68 164t189 60q104 0 198 -35q-8 -91 -38 -179q-62 0 -112 25z" />
    <glyph glyph-name="T" unicode="T" horiz-adv-x="627" 
d="M415 615l-37 -509q53 -3 95 -14q4 -17 3 -46.5t-5 -45.5h-359q5 44 30 89q38 11 83 17l45 509h-102q-9 -46 -21 -81q-42 -14 -114 -14l16 189h608l-16 -192q-69 0 -114 14q-8 43 -6 84h-106z" />
    <glyph glyph-name="U" unicode="U" horiz-adv-x="717" 
d="M258 606l-24 -331q-1 -12 -1 -35q0 -159 126 -159q77 0 117.5 52t48.5 142l28 330q-36 4 -59 12q-5 56 7 92h238q2 -15 -1.5 -46t-8.5 -46q-24 -9 -61 -11l-24 -324q-11 -141 -89 -221.5t-230 -80.5q-125 0 -185 59.5t-60 180.5q0 15 2 47l29 341q-40 4 -63 11
q-6 47 -1 90h289q2 -15 -1.5 -46t-8.5 -46q-31 -9 -68 -11z" />
    <glyph glyph-name="V" unicode="V" horiz-adv-x="701" 
d="M352 153h12q16 71 43 138l82 206q24 62 58 110q-37 2 -66 10q-12 42 -12 92h273q-6 -58 -23 -96q-25 -6 -54 -8l-284 -617h-120l-162 618q-25 3 -50 12q-11 40 -11 91h310q-5 -42 -28 -96q-30 -8 -75 -8q28 -56 39 -105l48 -209q19 -79 20 -138z" />
    <glyph glyph-name="W" unicode="W" horiz-adv-x="1007" 
d="M301 127h11q5 84 38 190l140 401h137l55 -382q9 -54 9 -201h12q16 118 40 182l70 184q23 63 51 105q-28 2 -55 10q-10 48 -10 93h245q-6 -58 -23 -96q-24 -6 -51 -8l-247 -616h-128l-54 414q-8 69 -8 172h-12q-10 -103 -33 -168l-145 -419h-142l-114 618q-35 7 -48 12
q-9 32 -9 91h290q-6 -49 -25 -96q-21 -8 -66 -8q17 -36 30 -104l27 -173q15 -105 15 -201z" />
    <glyph glyph-name="X" unicode="X" horiz-adv-x="726" 
d="M411 442l68 113q14 25 42 53q-22 2 -43 10q-10 40 -10 91h251q-6 -55 -27 -96q-27 -6 -52 -8l-179 -251l150 -248q24 -2 63 -12q9 -49 9 -94h-310q8 45 28 92q21 6 49 9q-20 17 -50 69l-68 115l-65 -108q-20 -32 -62 -74q27 -2 54 -10q9 -40 9 -93h-288q7 46 30 89
q21 8 59 13l206 280l-128 222q-32 5 -56 14q-12 45 -12 91h311q-6 -48 -26 -96q-21 -6 -56 -8q24 -20 45 -58z" />
    <glyph glyph-name="Y" unicode="Y" horiz-adv-x="642" 
d="M337 353h12q11 54 39 102l64 106q14 23 39 45q-29 4 -47 12q-9 45 -9 91h254q-6 -58 -23 -96q-25 -6 -52 -8l-227 -339l-11 -160q53 -3 95 -14q4 -17 3 -46.5t-6 -45.5h-357q5 42 31 89q36 11 83 17l14 155l-151 345q-26 3 -48 12q-9 36 -7 91h297q-5 -41 -24 -96
q-21 -6 -59 -8q16 -14 30 -51l38 -98q21 -52 22 -103z" />
    <glyph glyph-name="Z" unicode="Z" horiz-adv-x="616" 
d="M10 0l6 89l386 513v12h-186q-12 -62 -22 -94q-58 -13 -122 -13l18 202h507l-8 -89l-375 -510v-12h204q7 33 26 98q44 18 120 18l-18 -214h-536z" />
    <glyph glyph-name="bracketleft" unicode="[" horiz-adv-x="336" 
d="M31 -212l94 996h208q2 -41 -14 -89q-32 -7 -65 -9l-68 -801q46 -4 78 -14q2 -14 -0.5 -41t-7.5 -42h-225z" />
    <glyph glyph-name="backslash" unicode="\" horiz-adv-x="425" 
d="M92 787l266 -926q-18 -11 -58 -23.5t-63 -14.5l-249 902q16 17 48 36.5t56 25.5z" />
    <glyph glyph-name="bracketright" unicode="]" horiz-adv-x="340" 
d="M277 784l-86 -996h-232q6 48 20 86q30 7 75 11l76 802q-31 2 -63 8q-2 16 1 45.5t8 43.5h201z" />
    <glyph glyph-name="asciicircum" unicode="^" 
d="M68 379l213 306l94 10l156 -328q-55 -42 -107 -56l-77 167q-22 51 -25 98h-12q-16 -51 -45 -95l-126 -183q-21 13 -41.5 37.5t-29.5 43.5z" />
    <glyph glyph-name="underscore" unicode="_" horiz-adv-x="500" 
d="M-5 -147h518q4 -57 -9 -102h-532q5 57 23 102z" />
    <glyph glyph-name="grave" unicode="`" horiz-adv-x="435" 
d="M238 553l-147 182q20 16 60.5 29t70.5 13l103 -192q-14 -12 -41.5 -22t-45.5 -10z" />
    <glyph glyph-name="a" unicode="a" horiz-adv-x="539" 
d="M297 64h-9q-45 -81 -137 -81q-63 0 -101.5 47t-38.5 143q0 130 74 225q80 102 218 102q90 0 167 -52l-40 -337q0 -9 4 -17l70 7q0 -18 -8.5 -46t-18.5 -44q-25 -10 -74 -19t-80 -9q-20 35 -26 81zM288 138l39 268q-13 4 -34 4q-56 0 -97 -61q-40 -60 -40 -166
q0 -94 50 -94q45 0 82 49z" />
    <glyph glyph-name="b" unicode="b" horiz-adv-x="544" 
d="M23 18l76 607l-68 -7q0 17 8 47.5t18 39.5q48 28 127 28q30 0 62 -9l-14 -146q-6 -70 -33 -159h15q13 35 47 58t86 23q59 0 103 -47.5t44 -140.5q0 -67 -22 -136t-59 -110q-77 -83 -200 -83q-81 0 -190 35zM202 337l-28 -252q15 -6 40 -6q56 0 88 38q45 52 45 169
q0 110 -55 110q-24 0 -49 -17.5t-41 -41.5z" />
    <glyph glyph-name="c" unicode="c" horiz-adv-x="481" 
d="M302 339l7 62q-13 5 -30 5q-50 0 -78 -43q-40 -60 -40 -166q0 -100 82 -100q80 0 162 41q0 -21 -10 -51t-23 -49q-75 -55 -160 -55q-97 0 -146.5 50.5t-49.5 141.5q0 145 76 236q76 89 200 89q82 0 153 -44q0 -74 -34 -147q-26 0 -58.5 8.5t-50.5 21.5z" />
    <glyph glyph-name="d" unicode="d" horiz-adv-x="547" 
d="M512 724l-71 -613q0 -9 4 -17l70 7q0 -18 -8.5 -46t-18.5 -44q-25 -10 -74 -19t-80 -9q-20 35 -26 81h-9q-47 -81 -141 -81q-67 0 -108 46.5t-41 140.5q0 127 70 227q31 45 86 74t113 29q41 0 69 -14l19 139l-68 -7q0 17 8 47.5t18 39.5q48 28 127 28q29 0 61 -9z
M301 137l34 265q-21 6 -40 6q-59 0 -95 -55q-43 -62 -43 -170q0 -94 55 -94q47 0 89 48z" />
    <glyph glyph-name="e" unicode="e" horiz-adv-x="470" 
d="M154 192v-13q0 -44 16.5 -62t50.5 -18q41 0 91.5 12.5t85.5 30.5q0 -50 -29 -100q-77 -59 -178 -59q-180 0 -180 189q0 64 19.5 129t55.5 111q72 88 190 88q74 0 114 -34t40 -95q0 -160 -276 -179zM163 282q77 5 103 28t26 56q0 45 -35 45q-41 0 -70 -50q-17 -28 -24 -79
z" />
    <glyph glyph-name="f" unicode="f" horiz-adv-x="368" 
d="M224 483h131q6 -48 -4 -99h-138l-52 -526q-35 -7 -82 -7q-40 0 -62 7l65 526h-81q7 51 29 90q31 14 63 20l6 44q14 102 75 151.5t148 49.5q57 0 129 -24q0 -30 -10 -72t-24 -71q-25 0 -57 9t-50 20l6 46q-8 3 -15 3q-25 0 -44.5 -27.5t-25.5 -81.5z" />
    <glyph glyph-name="g" unicode="g" horiz-adv-x="510" 
d="M306 83h-16q-43 -90 -136 -90q-67 0 -106.5 45.5t-39.5 140.5q0 127 74 221q80 100 218 100q91 0 168 -52l-46 -431q-6 -58 -21 -103t-43.5 -83t-76.5 -58.5t-115 -20.5q-79 0 -154 24q-16 38 -16 84q0 28 7 51q85 -51 160 -51q57 0 81 29t32 85q7 55 30 109zM325 406
q-13 4 -35 4q-56 0 -97 -59q-40 -59 -40 -161q0 -50 14 -70t42 -20q24 0 49.5 20.5t44.5 58.5z" />
    <glyph glyph-name="h" unicode="h" horiz-adv-x="563" 
d="M21 4l84 621l-68 -7q0 17 8 47.5t18 39.5q48 28 127 28q28 0 60 -9l-15 -144q-7 -73 -34 -162h15q52 82 141 82q56 0 93 -32.5t37 -105.5q0 -37 -31 -251q0 -9 4 -17l73 7q0 -18 -8.5 -46t-18.5 -44q-25 -10 -74 -19t-80 -9q-15 14 -30.5 44.5t-15.5 47.5q37 196 37 261
q0 62 -45 62q-47 0 -93 -73l-35 -321q-38 -7 -85 -7q-40 0 -64 7z" />
    <glyph glyph-name="i" unicode="i" horiz-adv-x="294" 
d="M79 385l-70 -6q0 16 8 47t17 40q48 28 128 28q30 0 62 -9l-44 -374q0 -9 4 -17l70 7q0 -18 -8.5 -46t-18.5 -44q-25 -11 -73 -19.5t-79 -8.5q-15 14 -30.5 44.5t-15.5 47.5zM170 765q38 0 61 -22.5t23 -63.5q0 -43 -23.5 -67.5t-60.5 -24.5q-86 0 -86 92q0 37 24.5 61.5
t61.5 24.5z" />
    <glyph glyph-name="j" unicode="j" horiz-adv-x="279" 
d="M-17 -237q-48 21 -71 60q47 49 85 125.5t49 160.5l37 276l-70 -6q0 16 8 47t17 40q48 28 128 28q30 0 62 -9l-38 -339q-23 -215 -207 -383zM162 765q38 0 61 -22.5t23 -63.5q0 -43 -23.5 -67.5t-60.5 -24.5q-86 0 -86 92q0 37 24.5 61.5t61.5 24.5z" />
    <glyph glyph-name="k" unicode="k" horiz-adv-x="523" 
d="M18 4l77 621l-68 -7q0 17 8 47.5t18 39.5q48 28 127 28q30 0 62 -9l-50 -469q88 55 148 120q0 10 -4 18l-64 -3q2 22 12.5 49t22.5 38q46 17 137 17q13 -11 29 -46.5t16 -55.5q-76 -94 -156 -147q39 -81 94 -155l59 7q0 -19 -8.5 -50t-18.5 -50q-40 -15 -117 -21
q-58 68 -120 207q-18 -10 -38 -18l-17 -161q-39 -7 -85 -7q-40 0 -64 7z" />
    <glyph glyph-name="l" unicode="l" horiz-adv-x="285" 
d="M244 724l-70 -613q0 -9 4 -17l70 7q0 -18 -8.5 -46t-18.5 -44q-25 -11 -73 -19.5t-79 -8.5q-15 14 -30.5 44.5t-15.5 47.5l74 550l-68 -7q0 17 8 47.5t18 39.5q48 28 127 28q30 0 62 -9z" />
    <glyph glyph-name="m" unicode="m" horiz-adv-x="833" 
d="M298 4q43 256 43 332q0 62 -47 62q-22 0 -44.5 -20.5t-38.5 -47.5l-36 -326q-39 -7 -85 -7q-40 0 -64 7l57 381l-70 -6q0 16 8 47t17 40q44 28 107 28q29 0 56 -9l-9 -86h15q48 101 148 101q45 0 77.5 -23.5t41.5 -73.5h9q43 97 143 97q55 0 91.5 -32.5t36.5 -105.5
q0 -37 -31 -251q0 -9 4 -17l73 7q0 -18 -8.5 -46t-18.5 -44q-25 -10 -74 -19t-80 -9q-15 14 -30.5 44.5t-15.5 47.5q37 196 37 261q0 62 -44 62q-23 0 -46.5 -20t-39.5 -47l-37 -327q-39 -7 -82 -7q-41 0 -63 7z" />
    <glyph glyph-name="n" unicode="n" horiz-adv-x="564" 
d="M191 399h15q50 101 152 101q56 0 93 -32.5t37 -105.5q0 -37 -31 -251q0 -9 4 -17l73 7q0 -18 -8.5 -46t-18.5 -44q-25 -10 -74 -19t-80 -9q-15 14 -30.5 44.5t-15.5 47.5q37 196 37 261q0 62 -45 62q-24 0 -48 -20.5t-41 -47.5l-36 -326q-38 -7 -85 -7q-40 0 -64 7
l57 381l-70 -6q0 16 8 47t17 40q44 28 107 28q29 0 56 -9z" />
    <glyph glyph-name="o" unicode="o" horiz-adv-x="521" 
d="M208 -17q-192 0 -192 210q0 102 43 178q73 129 225 129q94 0 144 -53t50 -157q0 -112 -51 -192q-73 -115 -219 -115zM227 78q53 0 80 62q24 55 24 147q0 63 -14 91t-46 28q-52 0 -81 -64q-26 -57 -26 -149q0 -115 63 -115z" />
    <glyph glyph-name="p" unicode="p" horiz-adv-x="540" 
d="M-6 -227l82 612l-70 -6q0 16 8 47t17 40q44 28 107 28q29 0 56 -9l-9 -86h15q49 101 153 101q64 0 104 -48t40 -144q0 -66 -19.5 -132.5t-56.5 -109.5q-32 -38 -81 -60.5t-105 -22.5q-38 0 -71 12l-21 -222q-39 -7 -85 -7q-40 0 -64 7zM201 325l-27 -241q16 -6 38 -6
q62 0 94 39q47 57 47 176q0 57 -15 80.5t-45 23.5q-51 0 -92 -72z" />
    <glyph glyph-name="q" unicode="q" horiz-adv-x="529" 
d="M316 75h-16q-42 -92 -136 -92q-69 0 -109.5 46.5t-40.5 143.5q0 131 76 225q82 102 220 102q92 0 169 -52l-55 -568q0 -9 4 -17l70 7q0 -18 -8.5 -46t-18.5 -44q-26 -11 -72 -19.5t-77 -8.5q-15 14 -30 44t-15 48l10 124q3 51 29 107zM336 406q-13 4 -34 4
q-28 0 -55.5 -17.5t-44.5 -43.5q-41 -63 -41 -167q0 -51 14.5 -72t43.5 -21q25 0 50 21.5t44 60.5z" />
    <glyph glyph-name="r" unicode="r" horiz-adv-x="392" 
d="M374 493q10 -28 10 -66q0 -44 -11 -71q-31 18 -71 18q-70 0 -106 -81l-27 -289q-37 -7 -84 -7q-42 0 -64 7l51 381l-70 -6q0 16 8 47t17 40q44 28 107 28q29 0 56 -9l-11 -106h15q33 121 131 121q28 0 49 -7z" />
    <glyph glyph-name="s" unicode="s" horiz-adv-x="446" 
d="M264 364l4 42q-13 8 -31 8q-19 0 -33 -12.5t-14 -32.5q0 -18 20 -34.5t49 -32t57.5 -34t48.5 -49t20 -69.5q0 -83 -64 -125t-155 -42q-164 0 -170 110q15 23 55.5 38t79.5 15q2 -35 18.5 -54.5t39.5 -19.5q21 0 37.5 14.5t16.5 37.5q0 19 -19.5 34.5t-47.5 30t-55.5 33
t-47 51t-19.5 76.5q0 66 54 108.5t144 42.5q72 0 148 -34q-2 -65 -27 -130q-28 0 -60 8.5t-49 19.5z" />
    <glyph glyph-name="t" unicode="t" horiz-adv-x="379" 
d="M87 494l31 106q19 10 56.5 18t65.5 8l-17 -143h135q6 -48 -4 -99h-144l-22 -217q-4 -36 6.5 -52t43.5 -16q37 0 93 18q0 -23 -9.5 -54t-23.5 -49q-65 -31 -126 -31q-133 0 -133 127q0 77 36 274h-77q7 51 29 90q30 14 60 20z" />
    <glyph glyph-name="u" unicode="u" horiz-adv-x="566" 
d="M225 485q-36 -266 -36 -338q0 -62 40 -62q47 0 87 57l33 243l-62 -5q0 16 8 46.5t17 39.5q47 28 123 28q29 0 60 -9l-36 -374q0 -9 4 -17l69 7q0 -18 -8.5 -46t-18.5 -44q-25 -10 -73.5 -19t-79.5 -9q-20 35 -26 86h-9q-49 -86 -149 -86q-53 0 -89.5 32.5t-36.5 105.5
q0 68 38 264l-70 -6q0 16 8 47t17 40q48 28 128 28q30 0 62 -9z" />
    <glyph glyph-name="v" unicode="v" horiz-adv-x="494" 
d="M36 387l-61 -6q0 16 7 47.5t15 41.5q48 24 108 24q29 0 58 -9l42 -260q12 -77 12 -122h12q68 151 108 274q0 7 -4 17l-70 -6q2 22 11 50t20 39q20 8 66.5 15.5t70.5 7.5q13 -10 30.5 -45t17.5 -53q-67 -166 -229 -427l-135 21z" />
    <glyph glyph-name="w" unicode="w" horiz-adv-x="814" 
d="M571 103q57 144 95 276q0 7 -4 17l-63 -5q2 22 11 50t20 39q18 7 57.5 13.5t59.5 6.5q13 -10 31 -45t18 -53q-77 -193 -201 -427l-152 23l-34 372h-12q-55 -195 -129 -395l-166 23l-50 389l-61 -6q0 16 7 47.5t15 41.5q51 24 109 24q32 0 60 -9l24 -253q5 -47 5 -129h12
q62 201 105 380l189 13l33 -260q9 -68 9 -133h12z" />
    <glyph glyph-name="x" unicode="x" horiz-adv-x="532" 
d="M236 489q7 -17 24.5 -67.5t29.5 -79.5h9q35 64 62 137q32 8 77 8q46 0 77 -8q-58 -98 -172 -247q40 -100 75 -141l75 10q0 -49 -24 -95q-36 -17 -136 -29q-38 31 -87 154h-9q-44 -69 -123 -154q-69 19 -110 47q-8 21 -8 56q0 28 5 48l62 -25q72 67 121 133
q-31 68 -63 153l-60 -9q0 17 6 47t13 41q41 26 107 26q30 0 49 -5z" />
    <glyph glyph-name="y" unicode="y" horiz-adv-x="489" 
d="M37 392l-61 -4q0 15 8 46.5t16 41.5q45 21 107 21q27 0 55 -10l56 -256q14 -65 16 -128h12q42 107 89 271q0 7 -4 17l-68 -4q2 22 12 49.5t21 38.5q21 8 65.5 13.5t70.5 5.5q12 -10 27 -45.5t15 -53.5q-48 -126 -117 -261.5t-117 -193.5q-112 -132 -230 -181
q-15 20 -28.5 60t-13.5 67q116 34 175 101z" />
    <glyph glyph-name="z" unicode="z" horiz-adv-x="485" 
d="M11 0l-6 66l257 318v12h-89q-12 -36 -31 -67q-68 0 -108 18l21 136h390l6 -68l-258 -318v-12q45 1 111 7q10 36 26 66q62 12 114 0l-30 -158h-403z" />
    <glyph glyph-name="braceleft" unicode="{" horiz-adv-x="350" 
d="M30 254q3 42 23 89q40 4 53.5 26.5t18.5 71.5l17 176q7 84 58 131t169 52q-8 -61 -29 -94q-56 -9 -62 -84l-14 -173q-9 -113 -78 -145v-9q66 -28 57 -138l-17 -198q-8 -87 57 -91q2 -15 -2 -48t-11 -46q-115 6 -156 49t-34 122l17 199q5 57 -7.5 81.5t-59.5 28.5z" />
    <glyph glyph-name="bar" unicode="|" horiz-adv-x="294" 
d="M239 774l-83 -963q-20 -6 -60 -6t-64 6l90 949q51 14 117 14z" />
    <glyph glyph-name="braceright" unicode="}" horiz-adv-x="353" 
d="M143 294l1 9q-59 36 -50 138l15 172q4 48 -11.5 69.5t-54.5 25.5q1 17 12 46t22 45q101 -8 137.5 -55.5t30.5 -121.5l-14 -178q-1 -28 -0.5 -49.5t15 -36t45.5 -16.5q8 -37 8 -90q-45 -3 -64.5 -25t-23.5 -72l-16 -203q-7 -84 -54.5 -129t-165.5 -51q-6 16 -4.5 47.5
t6.5 46.5q30 2 50 23t23 56l17 201q6 59 22.5 94t53.5 54z" />
    <glyph glyph-name="asciitilde" unicode="~" 
d="M93 190q-13 10 -26 32t-18 40q25 38 65.5 61t84.5 23q38 0 88.5 -24t81.5 -24q23 0 43.5 12.5t31.5 29.5q39 -9 69 -40q-27 -49 -73.5 -80.5t-96.5 -31.5q-45 0 -91 24t-77 24q-24 0 -47 -13.5t-35 -32.5z" />
    <glyph glyph-name="exclamdown" unicode="&#xa1;" horiz-adv-x="291" 
d="M-2 -207l79 469q32 15 77 15q17 0 28 -3l-6 -481q-30 -9 -88 -9q-59 0 -90 9zM147 514q38 0 60 -21.5t22 -62.5t-23 -64.5t-59 -23.5q-85 0 -85 88q0 36 24.5 60t60.5 24z" />
    <glyph glyph-name="cent" unicode="&#xa2;" horiz-adv-x="632" 
d="M411 373l7 62q-17 5 -36 5q-57 0 -91 -44q-42 -55 -42 -154q0 -60 22 -85.5t72 -25.5q81 0 171 41q0 -21 -10 -51t-23 -49q-49 -32 -95 -45l-9 -85q-16 -5 -64 -5q-45 0 -65 5l9 78q-78 13 -117.5 64t-39.5 132q0 61 21.5 125t58.5 105q56 61 146 81l9 63q56 15 127 15
l-11 -77q55 -10 103 -38q0 -74 -34 -147q-26 0 -58.5 8.5t-50.5 21.5z" />
    <glyph glyph-name="sterling" unicode="&#xa3;" horiz-adv-x="632" 
d="M469 236h-168q0 -39 -21.5 -77.5t-48.5 -54.5l-1 -9h174q10 33 25 57q55 12 105 9l-18 -161h-483q8 44 25 79q23 15 60 29q47 72 47 128h-79q3 42 18 83h58q-3 20 -3 42q0 94 61 147.5t178 53.5q84 0 163 -34q0 -77 -29 -145q-59 3 -106 31l6 47q-18 9 -43 9
q-52 0 -71 -29.5t-19 -83.5q0 -21 3 -38h174q4 -44 -7 -83z" />
    <glyph glyph-name="currency" unicode="&#xa4;" horiz-adv-x="632" 
d="M155 398l-58 77q37 46 82 62l50 -82q52 26 113 26q54 0 101 -22l66 76q20 -7 41.5 -23.5t30.5 -32.5l-75 -76q28 -44 28 -102q0 -50 -18 -98t-48 -80l58 -77q-29 -41 -81 -52l-49 75q-49 -23 -110 -23q-62 0 -106 23l-70 -78q-46 14 -67 55l78 80q-25 40 -25 101
q0 108 59 171zM299 144q44 0 74.5 42t30.5 100q0 45 -20 71t-56 26q-46 0 -74.5 -41t-28.5 -97q0 -46 19.5 -73.5t54.5 -27.5z" />
    <glyph glyph-name="yen" unicode="&#xa5;" horiz-adv-x="632" 
d="M387 217l-2 -16h137q4 -39 -6 -76h-140l-3 -26q54 -7 85 -21q6 -37 -5 -78h-332q7 32 27 72q26 14 73 28l3 25h-144q3 40 17 76h136v1l-28 52h-107q3 40 17 76h50l-53 99q-24 7 -40 17q-10 58 -5 93h275q-5 -53 -22 -97q-17 -9 -48 -16q16 -16 23 -38l13 -37
q14 -37 18 -66h11q13 40 33 66l26 38q20 27 34 38q-23 10 -31 18q-10 51 -3 94h233q-6 -57 -29 -100q-20 -8 -51 -12l-75 -97h66q4 -39 -6 -76h-119z" />
    <glyph glyph-name="brokenbar" unicode="&#xa6;" horiz-adv-x="283" 
d="M189 218l-35 -407q-20 -6 -61 -6t-65 6l37 391q62 16 124 16zM237 775l-31 -378q-20 -6 -60 -6q-41 0 -62 6l33 362q60 16 120 16z" />
    <glyph glyph-name="section" unicode="&#xa7;" horiz-adv-x="537" 
d="M92 330q22 13 61 21.5t70 8.5q-34 -45 -34 -97q0 -29 25 -51t60.5 -39.5t71.5 -38t61 -56t25 -83.5q0 -96 -68 -145.5t-177 -49.5q-181 0 -190 130q16 21 59.5 37t81.5 16q7 -88 76 -88q37 0 60 22.5t23 56.5q0 28 -25 49.5t-60 38t-70.5 36t-60.5 52.5t-25 78
q0 26 10.5 55.5t25.5 46.5zM398 186q-20 4 -46.5 21t-39.5 31q20 29 20 68q0 26 -23.5 47.5t-56.5 38t-66 36t-56.5 52t-23.5 75.5q0 82 56 129t149 47t175 -42q-9 -85 -27 -144q-68 0 -109 24l6 59q-24 13 -52 13q-29 0 -46 -17t-17 -44q0 -25 23.5 -45t56.5 -36.5t66 -36
t56.5 -54t23.5 -81.5q0 -38 -19.5 -77t-49.5 -64z" />
    <glyph glyph-name="dieresis" unicode="&#xa8;" horiz-adv-x="530" 
d="M141 727q34 0 54.5 -20t20.5 -56q0 -38 -21 -60t-54 -22q-76 0 -76 82q0 33 22 54.5t54 21.5zM395 727q34 0 54.5 -20t20.5 -56q0 -38 -21 -60t-54 -22q-76 0 -76 82q0 33 22 54.5t54 21.5z" />
    <glyph glyph-name="copyright" unicode="&#xa9;" horiz-adv-x="803" 
d="M453 407l5 49q-8 4 -24 4q-35 0 -60 -42.5t-25 -102.5q0 -50 20 -70.5t62 -20.5q59 0 107 17q0 -37 -28 -80q-63 -30 -131 -30q-80 0 -125 47.5t-45 127.5q0 104 71.5 171.5t167.5 67.5q74 0 129 -29q-4 -63 -26 -131q-61 0 -98 22zM446 704q140 0 227.5 -90.5
t87.5 -230.5q0 -166 -120 -284.5t-288 -118.5q-141 0 -226.5 85.5t-85.5 227.5q0 169 120 290t285 121zM434 628q-122 0 -213.5 -95.5t-91.5 -226.5q0 -109 66 -179t173 -70q125 0 214.5 93t89.5 222q0 109 -66.5 182.5t-171.5 73.5z" />
    <glyph glyph-name="ordfeminine" unicode="&#xaa;" horiz-adv-x="412" 
d="M341 191h-317q3 45 19 85h305q4 -45 -7 -85zM232 368h-6q-31 -53 -95 -53q-46 0 -73.5 30.5t-27.5 92.5q0 92 50 151q57 67 152 67q70 0 127 -34l-25 -208q0 -8 4 -14l45 5q0 -38 -18 -70q-17 -7 -54 -13.5t-62 -6.5q-13 21 -17 53zM226 424l25 162q-11 3 -21 3
q-38 0 -63 -38q-28 -38 -28 -100q0 -56 36 -56q28 0 51 29z" />
    <glyph glyph-name="guillemotleft" unicode="&#xab;" horiz-adv-x="619" 
d="M192 258q20 -102 58 -197q-55 -29 -123 -33q-66 131 -95 230q49 94 127 196q77 27 151 27q-70 -114 -118 -223zM451 261q20 -102 58 -197q-57 -31 -120 -33q-66 127 -96 230q49 94 127 196q77 27 149 27q-64 -105 -118 -223z" />
    <glyph glyph-name="logicalnot" unicode="&#xac;" 
d="M70 331h438l-23 -209q-21 -7 -61 -7t-70 7l15 99h-324q5 58 25 110z" />
    <glyph glyph-name="uni00AD" unicode="&#xad;" 
d="M61 324h442q6 -57 -9 -111h-458q5 59 25 111z" />
    <glyph glyph-name="registered" unicode="&#xae;" horiz-adv-x="564" 
d="M196 481l15 137q-10 0 -25 3q-2 24 5 49q47 5 123 5q47 0 76.5 -18t29.5 -50q0 -55 -51 -76q13 -33 26 -50l30 3q-3 -26 -15 -49q-39 -11 -75 -11q-30 56 -41 98q-10 0 -16 2l-5 -42q12 -2 23 -9q0 -23 -5 -43h-138q2 12 15 42q17 8 28 9zM287 620l-5 -46q12 -2 26 -2
q33 0 33 27q0 21 -33 21h-21zM334 805q108 0 167.5 -59t59.5 -161q0 -124 -85.5 -209t-213.5 -85q-109 0 -167.5 59t-58.5 163q0 126 84.5 209t213.5 83zM323 747q-94 0 -156.5 -65.5t-62.5 -158.5q0 -80 43.5 -128t125.5 -48q94 0 155.5 65t61.5 159q0 80 -43 128t-124 48z
" />
    <glyph glyph-name="macron" unicode="&#xaf;" horiz-adv-x="530" 
d="M430 597h-328q5 57 23 102h313q6 -50 -8 -102z" />
    <glyph glyph-name="degree" unicode="&#xb0;" horiz-adv-x="392" 
d="M223 656q63 0 100 -31t37 -88q0 -81 -46 -126.5t-126 -45.5q-137 0 -137 121q0 77 47.5 123.5t124.5 46.5zM213 573q-26 0 -41 -20t-15 -50q0 -25 11.5 -40t30.5 -15q24 0 39.5 22t15.5 55q0 21 -11 34.5t-30 13.5z" />
    <glyph glyph-name="plusminus" unicode="&#xb1;" 
d="M351 423h147q7 -47 -7 -100h-150l-17 -164q-26 -7 -61 -7q-42 0 -66 7l20 164h-154q5 48 25 100h139l22 158q50 11 120 11zM51 103h403q7 -49 -7 -103h-422q5 52 26 103z" />
    <glyph glyph-name="twosuperior" unicode="&#xb2;" horiz-adv-x="385" 
d="M26 377l9 76q17 15 82.5 62t98.5 82t33 69q0 32 -40 32q-31 0 -49 -8l-3 -44q-39 -14 -92 -14q-5 37 -5 104q82 39 169 39q138 0 138 -90q0 -35 -20.5 -68t-59.5 -62.5t-68 -47t-71 -39.5v-7q89 0 204 8q-7 -52 -19 -92h-307z" />
    <glyph glyph-name="threesuperior" unicode="&#xb3;" horiz-adv-x="385" 
d="M192 692l-3 -33q-32 -13 -88 -13q-7 42 -7 100q72 29 147 29q54 0 91.5 -24t37.5 -69q0 -35 -22 -61t-58 -35v-9q67 -14 67 -78q0 -62 -54.5 -95.5t-133.5 -33.5q-58 0 -99 13q-7 17 -9.5 46t1.5 50q52 -26 119 -26q56 0 56 39q0 23 -26 31.5t-96 8.5q0 46 16 82
q121 2 121 54q0 28 -31 28q-17 0 -29 -4z" />
    <glyph glyph-name="acute" unicode="&#xb4;" horiz-adv-x="435" 
d="M369 725l-205 -180q-18 7 -37.5 24t-27.5 32l141 169q30 0 72 -13.5t57 -31.5z" />
    <glyph glyph-name="mu" unicode="&#xb5;" horiz-adv-x="622" 
d="M134 74h-12q14 -114 14 -225q0 -52 -8 -126q-92 3 -141 35q69 458 101 721q21 7 69 12.5t74 5.5q-34 -168 -34 -264q0 -146 77 -146q55 0 103 69q0 126 40 324q48 17 130 17q-44 -218 -44 -331q0 -79 32 -79q30 0 51 12q-1 -20 -9.5 -48.5t-18.5 -42.5q-36 -25 -82 -25
q-40 0 -62 27.5t-24 65.5h-9q-45 -93 -134 -93q-96 0 -113 91z" />
    <glyph glyph-name="paragraph" unicode="&#xb6;" horiz-adv-x="628" 
d="M396 7l61 645q-42 5 -98 5l-68 -738q0 -8 8 -19l277 29q0 -30 -18 -69q-53 -15 -161 -30.5t-155 -16.5q-17 13 -33.5 44.5t-16.5 47.5l41 432q-24 -2 -46 -2q-68 0 -119.5 39.5t-51.5 120.5q0 115 84 175.5t246 60.5q179 0 287 -9q0 -47 -8 -77q-21 -1 -72 -1l-61 -637
q-20 -4 -44 -4q-26 0 -52 4z" />
    <glyph glyph-name="periodcentered" unicode="&#xb7;" horiz-adv-x="338" 
d="M169 327q37 0 59 -21t22 -59q0 -40 -22 -62.5t-59 -22.5q-83 0 -83 85q0 36 23 58t60 22z" />
    <glyph glyph-name="cedilla" unicode="&#xb8;" horiz-adv-x="435" 
d="M129 -82l51 90q33 9 89 9l-24 -72q23 -6 38 -24t15 -45q0 -47 -46.5 -80t-103.5 -38q-31 21 -43 61q30 4 50.5 18.5t20.5 37.5q0 32 -47 43z" />
    <glyph glyph-name="onesuperior" unicode="&#xb9;" horiz-adv-x="385" 
d="M290 775l-31 -318q34 -2 59 -8q4 -38 -1 -72h-251q5 38 23 70q25 8 52 11l24 222l-77 -7q6 44 25 77q88 21 177 25z" />
    <glyph glyph-name="ordmasculine" unicode="&#xba;" horiz-adv-x="415" 
d="M242 656q70 0 110.5 -36t40.5 -101q0 -83 -44 -138q-53 -66 -149 -66q-73 0 -112.5 38t-39.5 108q0 78 41 128q55 67 153 67zM233 579q-35 0 -54 -28q-19 -29 -19 -82q0 -35 13 -55t37 -20q29 0 48 25q24 32 24 91q0 31 -13.5 50t-35.5 19zM343 191h-308q3 45 19 85h296
q4 -45 -7 -85z" />
    <glyph glyph-name="guillemotright" unicode="&#xbb;" horiz-adv-x="612" 
d="M138 258q-23 93 -57 192q22 12 60 22.5t63 10.5q61 -118 93 -225q-47 -85 -150 -230q-61 3 -113 39q69 113 104 191zM398 261q-20 90 -56 192q21 12 58.5 22.5t61.5 10.5q64 -125 93 -225q-54 -97 -150 -230q-60 3 -110 39q54 88 103 191z" />
    <glyph glyph-name="onequarter" unicode="&#xbc;" horiz-adv-x="926" 
d="M821 713l-578 -757q-28 7 -54.5 24t-39.5 37l558 718q65 0 114 -22zM269 719l-31 -318q34 -2 59 -8q4 -38 -1 -72h-251q5 38 23 70q25 8 52 11l24 222l-77 -7q6 44 25 77q88 21 177 25zM811 82l-8 -86q-14 -5 -54 -5q-39 0 -58 5l9 86h-178l8 64l183 237h129l-24 -218h47
q6 -41 -6 -83h-48zM709 165l7 61q3 33 11 60h-7l-84 -117v-7q16 3 38 3h35z" />
    <glyph glyph-name="onehalf" unicode="&#xbd;" horiz-adv-x="926" 
d="M782 713l-578 -757q-28 7 -54.5 24t-39.5 37l558 718q65 0 114 -22zM251 719l-31 -318q34 -2 59 -8q4 -38 -1 -72h-251q5 38 23 70q25 8 52 11l24 222l-77 -7q6 44 25 77q88 21 177 25zM545 -7l9 76q17 15 82.5 62t98.5 82t33 69q0 32 -40 32q-31 0 -49 -8l-3 -44
q-39 -14 -92 -14q-5 37 -5 104q82 39 169 39q138 0 138 -90q0 -35 -20.5 -68t-59.5 -62.5t-68 -47t-71 -39.5v-7q89 0 204 8q-7 -52 -19 -92h-307z" />
    <glyph glyph-name="threequarters" unicode="&#xbe;" horiz-adv-x="926" 
d="M804 713l-578 -757q-28 7 -54.5 24t-39.5 37l558 718q65 0 114 -22zM169 636l-3 -33q-32 -13 -88 -13q-7 42 -7 100q72 29 147 29q54 0 91.5 -24t37.5 -69q0 -35 -22 -61t-58 -35v-9q67 -14 67 -78q0 -62 -54.5 -95.5t-133.5 -33.5q-58 0 -99 13q-7 17 -9.5 46t1.5 50
q52 -26 119 -26q56 0 56 39q0 23 -26 31.5t-96 8.5q0 46 16 82q121 2 121 54q0 28 -31 28q-17 0 -29 -4zM784 82l-8 -86q-14 -5 -54 -5q-39 0 -58 5l9 86h-178l8 64l183 237h129l-24 -218h47q6 -41 -6 -83h-48zM682 165l7 61q3 33 11 60h-7l-84 -117v-7q17 3 38 3h35z" />
    <glyph glyph-name="questiondown" unicode="&#xbf;" horiz-adv-x="455" 
d="M269 -130l9 88q41 22 117 29q2 -38 2 -63q0 -63 -6 -123q-44 -16 -108 -27t-113 -11q-87 0 -137 35.5t-50 98.5q0 45 22.5 83t54.5 64t64.5 49t55 48.5t22.5 51.5q0 35 -16 60q55 32 115 37q39 -41 39 -95q0 -36 -20 -68.5t-49 -56.5t-58 -47.5t-49 -50.5t-20 -56
q0 -24 15 -41.5t48 -17.5q32 0 62 13zM257 514q38 0 60 -21.5t22 -62.5t-23 -64.5t-59 -23.5q-85 0 -85 88q0 36 24.5 60t60.5 24z" />
    <glyph glyph-name="Agrave" unicode="&#xc0;" horiz-adv-x="755" 
d="M723 0h-304q7 44 32 91q26 9 62 16q-13 19 -27 66l-8 28h-237l-13 -33q-15 -35 -36 -65q36 -3 65 -12q12 -46 12 -91h-284q8 39 32 90q21 10 49 15l307 614h108l183 -611q31 -6 51 -15q8 -36 8 -93zM401 573h-12q-9 -61 -45 -143l-60 -136h172l-35 136q-20 75 -20 143z
M495 754l-271 108q18 24 53 53t62 39l200 -108q-4 -21 -17.5 -49t-26.5 -43z" />
    <glyph glyph-name="Aacute" unicode="&#xc1;" horiz-adv-x="755" 
d="M723 0h-304q7 44 32 91q26 9 62 16q-13 19 -27 66l-8 28h-237l-13 -33q-15 -35 -36 -65q36 -3 65 -12q12 -46 12 -91h-284q8 39 32 90q21 10 49 15l307 614h108l183 -611q31 -6 51 -15q8 -36 8 -93zM401 573h-12q-9 -61 -45 -143l-60 -136h172l-35 136q-20 75 -20 143z
M644 851l-296 -100q-13 46 -7 94l239 114q19 -16 37.5 -48.5t26.5 -59.5z" />
    <glyph glyph-name="Acircumflex" unicode="&#xc2;" horiz-adv-x="755" 
d="M723 0h-304q7 44 32 91q26 9 62 16q-13 19 -27 66l-8 28h-237l-13 -33q-15 -35 -36 -65q36 -3 65 -12q12 -46 12 -91h-284q8 39 32 90q21 10 49 15l307 614h108l183 -611q31 -6 51 -15q8 -36 8 -93zM401 573h-12q-9 -61 -45 -143l-60 -136h172l-35 136q-20 75 -20 143z
M383 940h130l140 -108q-8 -20 -27 -44.5t-35 -34.5l-159 81l-190 -85q-18 33 -18 90z" />
    <glyph glyph-name="Atilde" unicode="&#xc3;" horiz-adv-x="755" 
d="M723 0h-304q7 44 32 91q26 9 62 16q-13 19 -27 66l-8 28h-237l-13 -33q-15 -35 -36 -65q36 -3 65 -12q12 -46 12 -91h-284q8 39 32 90q21 10 49 15l307 614h108l183 -611q31 -6 51 -15q8 -36 8 -93zM401 573h-12q-9 -61 -45 -143l-60 -136h172l-35 136q-20 75 -20 143z
M579 926q44 0 81 -20q-8 -58 -51 -100t-118 -42q-38 0 -84 23.5t-77 23.5q-20 0 -36 -14t-22 -30q-45 7 -74 51q15 49 56 80.5t103 31.5q43 0 88.5 -22.5t74.5 -22.5q41 0 59 41z" />
    <glyph glyph-name="Adieresis" unicode="&#xc4;" horiz-adv-x="755" 
d="M723 0h-304q7 44 32 91q26 9 62 16q-13 19 -27 66l-8 28h-237l-13 -33q-15 -35 -36 -65q36 -3 65 -12q12 -46 12 -91h-284q8 39 32 90q21 10 49 15l307 614h108l183 -611q31 -6 51 -15q8 -36 8 -93zM401 573h-12q-9 -61 -45 -143l-60 -136h172l-35 136q-20 75 -20 143z
M273 923q37 0 60 -21t23 -57q0 -39 -23.5 -61t-59.5 -22q-85 0 -85 83q0 34 24.5 56t60.5 22zM582 923q37 0 60 -21t23 -57q0 -39 -23.5 -61t-59.5 -22q-85 0 -85 83q0 34 24.5 56t60.5 22z" />
    <glyph glyph-name="Aring" unicode="&#xc5;" horiz-adv-x="755" 
d="M458 938q122 0 122 -102q0 -47 -26 -79t-71 -45l181 -604q31 -6 51 -15q8 -36 8 -93h-304q7 44 32 91q26 9 62 16q-13 19 -27 66l-8 28h-237l-13 -33q-15 -35 -36 -65q36 -3 65 -12q12 -46 12 -91h-284q8 39 32 90q21 10 49 15l303 606q-67 20 -67 95q0 60 42 96t114 36z
M401 573h-12q-9 -61 -45 -143l-60 -136h172l-35 136q-20 75 -20 143zM447 866q-26 0 -42 -14t-16 -36q0 -40 45 -40q25 0 42 14t17 37q0 19 -13 29t-33 10z" />
    <glyph glyph-name="AE" unicode="&#xc6;" horiz-adv-x="999" 
d="M975 709l-17 -181q-66 0 -109 15q-5 30 -5 72h-194l-14 -207h155q2 12 12 44q48 15 108 15l-14 -205q-64 -6 -107 8q-5 20 -5 46h-156l-17 -220h189q7 45 21 81q45 15 116 15l-15 -192h-558q6 52 27 90q23 9 68 16l12 130h-199l-45 -68q-20 -33 -52 -65q41 -4 66 -12
q13 -36 11 -91h-273q7 42 28 90q21 10 48 15l336 500q-47 4 -79 12q-5 61 5 92h657zM429 481l-101 -154h156l24 276h-13q-31 -69 -66 -122z" />
    <glyph glyph-name="Ccedilla" unicode="&#xc7;" horiz-adv-x="637" 
d="M248 -94l39 77q-117 14 -184 102t-67 225q0 184 115.5 301.5t280.5 117.5q107 0 194 -47q-11 -108 -36 -194q-67 0 -118 29l9 98q-29 15 -66 15q-94 0 -156 -84.5t-62 -219.5q0 -116 47.5 -172.5t132.5 -56.5q97 0 197 38q0 -21 -10 -51.5t-23 -50.5q-65 -34 -149 -48
l-12 -40q26 -5 45 -25t19 -52q0 -58 -52 -94t-119 -43q-33 22 -47 65q75 11 75 62q0 37 -53 48z" />
    <glyph glyph-name="Egrave" unicode="&#xc8;" horiz-adv-x="639" 
d="M563 0h-559q6 52 27 90q23 9 69 16l44 499q-41 4 -63 12q-5 54 6 92h528l-17 -181q-66 0 -109 15q-5 30 -5 72h-194l-14 -207h155q2 12 12 44q48 15 108 15l-14 -205q-64 -6 -107 8q-5 20 -5 46h-156l-17 -220h189q7 45 21 81q45 15 116 15zM433 754l-271 108
q18 24 53 53t62 39l200 -108q-4 -21 -17.5 -49t-26.5 -43z" />
    <glyph glyph-name="Eacute" unicode="&#xc9;" horiz-adv-x="639" 
d="M563 0h-559q6 52 27 90q23 9 69 16l44 499q-41 4 -63 12q-5 54 6 92h528l-17 -181q-66 0 -109 15q-5 30 -5 72h-194l-14 -207h155q2 12 12 44q48 15 108 15l-14 -205q-64 -6 -107 8q-5 20 -5 46h-156l-17 -220h189q7 45 21 81q45 15 116 15zM600 851l-296 -100
q-13 46 -7 94l239 114q19 -16 37.5 -48.5t26.5 -59.5z" />
    <glyph glyph-name="Ecircumflex" unicode="&#xca;" horiz-adv-x="639" 
d="M563 0h-559q6 52 27 90q23 9 69 16l44 499q-41 4 -63 12q-5 54 6 92h528l-17 -181q-66 0 -109 15q-5 30 -5 72h-194l-14 -207h155q2 12 12 44q48 15 108 15l-14 -205q-64 -6 -107 8q-5 20 -5 46h-156l-17 -220h189q7 45 21 81q45 15 116 15zM327 940h130l140 -108
q-8 -20 -27 -44.5t-35 -34.5l-159 81l-190 -85q-18 33 -18 90z" />
    <glyph glyph-name="Edieresis" unicode="&#xcb;" horiz-adv-x="639" 
d="M563 0h-559q6 52 27 90q23 9 69 16l44 499q-41 4 -63 12q-5 54 6 92h528l-17 -181q-66 0 -109 15q-5 30 -5 72h-194l-14 -207h155q2 12 12 44q48 15 108 15l-14 -205q-64 -6 -107 8q-5 20 -5 46h-156l-17 -220h189q7 45 21 81q45 15 116 15zM214 923q37 0 60 -21t23 -57
q0 -39 -23.5 -61t-59.5 -22q-85 0 -85 83q0 34 24.5 56t60.5 22zM523 923q37 0 60 -21t23 -57q0 -39 -23.5 -61t-59.5 -22q-85 0 -85 83q0 34 24.5 56t60.5 22z" />
    <glyph glyph-name="Igrave" unicode="&#xcc;" horiz-adv-x="394" 
d="M328 0h-323q9 55 28 90q23 9 69 16l47 499q-41 4 -63 12q-5 51 7 92h286q2 -15 -1.5 -46t-8.5 -46q-32 -9 -73 -11l-41 -500q41 -3 77 -14q7 -53 -4 -92zM297 754l-271 108q18 24 53 53t62 39l200 -108q-4 -21 -17.5 -49t-26.5 -43z" />
    <glyph glyph-name="Iacute" unicode="&#xcd;" horiz-adv-x="394" 
d="M328 0h-323q9 55 28 90q23 9 69 16l47 499q-41 4 -63 12q-5 51 7 92h286q2 -15 -1.5 -46t-8.5 -46q-32 -9 -73 -11l-41 -500q41 -3 77 -14q7 -53 -4 -92zM474 851l-296 -100q-13 46 -7 94l239 114q19 -16 37.5 -48.5t26.5 -59.5z" />
    <glyph glyph-name="Icircumflex" unicode="&#xce;" horiz-adv-x="394" 
d="M328 0h-323q9 55 28 90q23 9 69 16l47 499q-41 4 -63 12q-5 51 7 92h286q2 -15 -1.5 -46t-8.5 -46q-32 -9 -73 -11l-41 -500q41 -3 77 -14q7 -53 -4 -92zM197 940h130l140 -108q-8 -20 -27 -44.5t-35 -34.5l-159 81l-190 -85q-18 33 -18 90z" />
    <glyph glyph-name="Idieresis" unicode="&#xcf;" horiz-adv-x="394" 
d="M104 923q37 0 60 -21t23 -57q0 -39 -23.5 -61t-59.5 -22q-85 0 -85 83q0 34 24.5 56t60.5 22zM383 923q37 0 60 -21t23 -57q0 -39 -23.5 -61t-59.5 -22q-85 0 -85 83q0 34 24.5 56t60.5 22zM328 0h-323q9 55 28 90q23 9 69 16l47 499q-41 4 -63 12q-5 51 7 92h286
q2 -15 -1.5 -46t-8.5 -46q-32 -9 -73 -11l-41 -500q41 -3 77 -14q7 -53 -4 -92z" />
    <glyph glyph-name="Eth" unicode="&#xd0;" horiz-adv-x="745" 
d="M110 110l17 195h-68q5 54 21 93h55l18 199q-38 4 -63 9q-5 50 6 94q144 18 271 18q165 0 258.5 -78t93.5 -234q0 -99 -30 -179.5t-81 -131t-115.5 -77t-136.5 -26.5q-204 0 -340 13q6 52 27 90q23 9 67 15zM431 305h-154l-15 -209q32 -5 68 -5q108 0 172.5 76.5
t64.5 216.5q0 117 -57 176.5t-156 59.5q-27 0 -54 -5l-16 -217h154q5 -43 -7 -93z" />
    <glyph glyph-name="Ntilde" unicode="&#xd1;" horiz-adv-x="772" 
d="M334 709l169 -390q28 -64 35 -151h12l41 437q-45 4 -73 12q-5 53 8 92h245q2 -15 -2 -45.5t-9 -46.5q-26 -9 -66 -11l-52 -614h-160l-182 433q-32 75 -37 146h-12l-37 -465q39 -3 71 -14q3 -16 1.5 -46t-5.5 -46h-276q9 53 25 90q24 9 64 16l47 499q-41 4 -63 12
q-5 51 7 92h249zM589 926q44 0 81 -20q-8 -58 -51 -100t-118 -42q-38 0 -84 23.5t-77 23.5q-20 0 -36 -14t-22 -30q-45 7 -74 51q15 49 56 80.5t103 31.5q43 0 88.5 -22.5t74.5 -22.5q41 0 59 41z" />
    <glyph glyph-name="Ograve" unicode="&#xd2;" horiz-adv-x="712" 
d="M407 729q132 0 206 -84t74 -243q0 -189 -100 -305.5t-264 -116.5q-134 0 -205 82.5t-71 238.5q0 188 99.5 308t260.5 120zM391 631q-60 0 -103.5 -47t-63.5 -119t-20 -157q0 -109 35.5 -169t102.5 -60q86 0 138 93t52 228q0 109 -36.5 170t-104.5 61zM465 754l-271 108
q18 24 53 53t62 39l200 -108q-4 -21 -17.5 -49t-26.5 -43z" />
    <glyph glyph-name="Oacute" unicode="&#xd3;" horiz-adv-x="712" 
d="M407 729q132 0 206 -84t74 -243q0 -189 -100 -305.5t-264 -116.5q-134 0 -205 82.5t-71 238.5q0 188 99.5 308t260.5 120zM391 631q-60 0 -103.5 -47t-63.5 -119t-20 -157q0 -109 35.5 -169t102.5 -60q86 0 138 93t52 228q0 109 -36.5 170t-104.5 61zM638 851l-296 -100
q-13 46 -7 94l239 114q19 -16 37.5 -48.5t26.5 -59.5z" />
    <glyph glyph-name="Ocircumflex" unicode="&#xd4;" horiz-adv-x="712" 
d="M407 729q132 0 206 -84t74 -243q0 -189 -100 -305.5t-264 -116.5q-134 0 -205 82.5t-71 238.5q0 188 99.5 308t260.5 120zM391 631q-60 0 -103.5 -47t-63.5 -119t-20 -157q0 -109 35.5 -169t102.5 -60q86 0 138 93t52 228q0 109 -36.5 170t-104.5 61zM364 940h130
l140 -108q-8 -20 -27 -44.5t-35 -34.5l-159 81l-190 -85q-18 33 -18 90z" />
    <glyph glyph-name="Otilde" unicode="&#xd5;" horiz-adv-x="712" 
d="M407 729q132 0 206 -84t74 -243q0 -189 -100 -305.5t-264 -116.5q-134 0 -205 82.5t-71 238.5q0 188 99.5 308t260.5 120zM391 631q-60 0 -103.5 -47t-63.5 -119t-20 -157q0 -109 35.5 -169t102.5 -60q86 0 138 93t52 228q0 109 -36.5 170t-104.5 61zM560 926
q44 0 81 -20q-8 -58 -51 -100t-118 -42q-38 0 -84 23.5t-77 23.5q-20 0 -36 -14t-22 -30q-45 7 -74 51q15 49 56 80.5t103 31.5q43 0 88.5 -22.5t74.5 -22.5q41 0 59 41z" />
    <glyph glyph-name="Odieresis" unicode="&#xd6;" horiz-adv-x="712" 
d="M239 923q37 0 60 -21t23 -57q0 -39 -23.5 -61t-59.5 -22q-85 0 -85 83q0 34 24.5 56t60.5 22zM588 923q37 0 60 -21t23 -57q0 -39 -23.5 -61t-59.5 -22q-85 0 -85 83q0 34 24.5 56t60.5 22zM407 729q132 0 206 -84t74 -243q0 -189 -100 -305.5t-264 -116.5
q-134 0 -205 82.5t-71 238.5q0 188 99.5 308t260.5 120zM391 631q-60 0 -103.5 -47t-63.5 -119t-20 -157q0 -109 35.5 -169t102.5 -60q86 0 138 93t52 228q0 109 -36.5 170t-104.5 61z" />
    <glyph glyph-name="multiply" unicode="&#xd7;" 
d="M353 269l136 -152q-12 -20 -41 -45.5t-53 -37.5l-126 155l-168 -158q-20 13 -42 39.5t-31 45.5l172 151l-140 156q43 43 103 65l122 -144l158 144q24 -8 49.5 -26t37.5 -35z" />
    <glyph glyph-name="Oslash" unicode="&#xd8;" horiz-adv-x="761" 
d="M439 729q105 0 175 -53l78 82q22 -4 58 -21t53 -30l-117 -119q37 -77 37 -186q0 -189 -101.5 -305.5t-268.5 -116.5q-123 0 -192 66l-113 -118q-18 11 -44 38t-34 43l128 134q-25 69 -25 158q0 188 101 308t265 120zM568 400q0 40 -6 75l-306 -317q36 -79 116 -79
q89 0 142.5 93t53.5 228zM423 631q-62 0 -107 -47t-65.5 -119t-20.5 -157q0 -16 2 -46l298 308q-38 61 -107 61z" />
    <glyph glyph-name="Ugrave" unicode="&#xd9;" horiz-adv-x="717" 
d="M258 606l-24 -331q-1 -12 -1 -35q0 -159 126 -159q77 0 117.5 52t48.5 142l28 330q-36 4 -59 12q-5 56 7 92h238q2 -15 -1.5 -46t-8.5 -46q-24 -9 -61 -11l-24 -324q-11 -141 -89 -221.5t-230 -80.5q-125 0 -185 59.5t-60 180.5q0 15 2 47l29 341q-40 4 -63 11
q-6 47 -1 90h289q2 -15 -1.5 -46t-8.5 -46q-31 -9 -68 -11zM479 754l-271 108q18 24 53 53t62 39l200 -108q-4 -21 -17.5 -49t-26.5 -43z" />
    <glyph glyph-name="Uacute" unicode="&#xda;" horiz-adv-x="717" 
d="M258 606l-24 -331q-1 -12 -1 -35q0 -159 126 -159q77 0 117.5 52t48.5 142l28 330q-36 4 -59 12q-5 56 7 92h238q2 -15 -1.5 -46t-8.5 -46q-24 -9 -61 -11l-24 -324q-11 -141 -89 -221.5t-230 -80.5q-125 0 -185 59.5t-60 180.5q0 15 2 47l29 341q-40 4 -63 11
q-6 47 -1 90h289q2 -15 -1.5 -46t-8.5 -46q-31 -9 -68 -11zM659 851l-296 -100q-13 46 -7 94l239 114q19 -16 37.5 -48.5t26.5 -59.5z" />
    <glyph glyph-name="Ucircumflex" unicode="&#xdb;" horiz-adv-x="717" 
d="M258 606l-24 -331q-1 -12 -1 -35q0 -159 126 -159q77 0 117.5 52t48.5 142l28 330q-36 4 -59 12q-5 56 7 92h238q2 -15 -1.5 -46t-8.5 -46q-24 -9 -61 -11l-24 -324q-11 -141 -89 -221.5t-230 -80.5q-125 0 -185 59.5t-60 180.5q0 15 2 47l29 341q-40 4 -63 11
q-6 47 -1 90h289q2 -15 -1.5 -46t-8.5 -46q-31 -9 -68 -11zM379 940h130l140 -108q-8 -20 -27 -44.5t-35 -34.5l-159 81l-190 -85q-18 33 -18 90z" />
    <glyph glyph-name="Udieresis" unicode="&#xdc;" horiz-adv-x="717" 
d="M258 606l-24 -331q-1 -12 -1 -35q0 -159 126 -159q77 0 117.5 52t48.5 142l28 330q-36 4 -59 12q-5 56 7 92h238q2 -15 -1.5 -46t-8.5 -46q-24 -9 -61 -11l-24 -324q-11 -141 -89 -221.5t-230 -80.5q-125 0 -185 59.5t-60 180.5q0 15 2 47l29 341q-40 4 -63 11
q-6 47 -1 90h289q2 -15 -1.5 -46t-8.5 -46q-31 -9 -68 -11zM274 923q37 0 60 -21t23 -57q0 -39 -23.5 -61t-59.5 -22q-85 0 -85 83q0 34 24.5 56t60.5 22zM583 923q37 0 60 -21t23 -57q0 -39 -23.5 -61t-59.5 -22q-85 0 -85 83q0 34 24.5 56t60.5 22z" />
    <glyph glyph-name="Yacute" unicode="&#xdd;" horiz-adv-x="642" 
d="M337 353h12q11 54 39 102l64 106q14 23 39 45q-29 4 -47 12q-9 45 -9 91h254q-6 -58 -23 -96q-25 -6 -52 -8l-227 -339l-11 -160q53 -3 95 -14q4 -17 3 -46.5t-6 -45.5h-357q5 42 31 89q36 11 83 17l14 155l-151 345q-26 3 -48 12q-9 36 -7 91h297q-5 -41 -24 -96
q-21 -6 -59 -8q16 -14 30 -51l38 -98q21 -52 22 -103zM598 851l-296 -100q-13 46 -7 94l239 114q19 -16 37.5 -48.5t26.5 -59.5z" />
    <glyph glyph-name="Thorn" unicode="&#xde;" horiz-adv-x="644" 
d="M330 0h-322q9 55 28 90q19 8 69 16l47 499q-41 4 -63 12q-5 51 7 92h283q2 -15 -1.5 -46t-8.5 -46q-32 -9 -73 -11l-3 -44q26 2 76 2q123 0 194.5 -45t71.5 -132q0 -76 -44 -130t-108 -77t-139 -23q-51 0 -84 8l-3 -59q41 -3 77 -14q7 -53 -4 -92zM282 465l-15 -206
q35 -7 89 -7q57 0 93 31t36 89q0 44 -38 70t-100 26q-5 0 -65 -3z" />
    <glyph glyph-name="germandbls" unicode="&#xdf;" horiz-adv-x="676" 
d="M13 -142l66 519q-40 4 -65 16q-3 40 8 90h74q22 121 98.5 185.5t197.5 64.5q39 0 76 -7t70.5 -21.5t53.5 -41.5t20 -63q0 -37 -18 -67t-39 -45.5t-39 -37t-18 -44.5q0 -26 23.5 -50t51.5 -41.5t51.5 -51t23.5 -75.5q0 -96 -65.5 -150.5t-169.5 -54.5q-72 0 -119.5 25.5
t-51.5 80.5q12 21 57 38t86 17q6 -68 57 -68q26 0 42.5 21.5t16.5 55.5q0 25 -16 46t-38.5 36.5t-45.5 33t-39 44t-16 60.5q0 36 13 64.5t31 46.5t36 33t31 32t13 36q0 29 -27.5 43.5t-63.5 14.5q-66 0 -106 -53t-49 -143l-62 -589q-35 -7 -84 -7q-43 0 -65 7z" />
    <glyph glyph-name="agrave" unicode="&#xe0;" horiz-adv-x="539" 
d="M297 64h-9q-45 -81 -137 -81q-63 0 -101.5 47t-38.5 143q0 130 74 225q80 102 218 102q90 0 167 -52l-40 -337q0 -9 4 -17l70 7q0 -18 -8.5 -46t-18.5 -44q-25 -10 -74 -19t-80 -9q-20 35 -26 81zM288 138l39 268q-13 4 -34 4q-56 0 -97 -61q-40 -60 -40 -166
q0 -94 50 -94q45 0 82 49zM315 553l-147 182q20 16 60.5 29t70.5 13l103 -192q-14 -12 -42 -22t-45 -10z" />
    <glyph glyph-name="aacute" unicode="&#xe1;" horiz-adv-x="539" 
d="M297 64h-9q-45 -81 -137 -81q-63 0 -101.5 47t-38.5 143q0 130 74 225q80 102 218 102q90 0 167 -52l-40 -337q0 -9 4 -17l70 7q0 -18 -8.5 -46t-18.5 -44q-25 -10 -74 -19t-80 -9q-20 35 -26 81zM288 138l39 268q-13 4 -34 4q-56 0 -97 -61q-40 -60 -40 -166
q0 -94 50 -94q45 0 82 49zM466 725l-205 -180q-18 7 -37.5 24t-27.5 32l141 169q30 0 72 -13.5t57 -31.5z" />
    <glyph glyph-name="acircumflex" unicode="&#xe2;" horiz-adv-x="539" 
d="M297 64h-9q-45 -81 -137 -81q-63 0 -101.5 47t-38.5 143q0 130 74 225q80 102 218 102q90 0 167 -52l-40 -337q0 -9 4 -17l70 7q0 -18 -8.5 -46t-18.5 -44q-25 -10 -74 -19t-80 -9q-20 35 -26 81zM288 138l39 268q-13 4 -34 4q-56 0 -97 -61q-40 -60 -40 -166
q0 -94 50 -94q45 0 82 49zM256 756l102 6l114 -155q-11 -17 -32.5 -33t-40.5 -22l-102 105l-141 -107q-12 12 -22.5 37.5t-12.5 45.5z" />
    <glyph glyph-name="atilde" unicode="&#xe3;" horiz-adv-x="539" 
d="M297 64h-9q-45 -81 -137 -81q-63 0 -101.5 47t-38.5 143q0 130 74 225q80 102 218 102q90 0 167 -52l-40 -337q0 -9 4 -17l70 7q0 -18 -8.5 -46t-18.5 -44q-25 -10 -74 -19t-80 -9q-20 35 -26 81zM288 138l39 268q-13 4 -34 4q-56 0 -97 -61q-40 -60 -40 -166
q0 -94 50 -94q45 0 82 49zM419 724q52 0 79 -17q-8 -53 -48 -93t-103 -40q-33 0 -71.5 21.5t-61.5 21.5q-37 0 -52 -38q-20 3 -39 15t-26 28q12 47 47.5 77t91.5 30q36 0 73 -21t58 -21q33 0 52 37z" />
    <glyph glyph-name="adieresis" unicode="&#xe4;" horiz-adv-x="539" 
d="M297 64h-9q-45 -81 -137 -81q-63 0 -101.5 47t-38.5 143q0 130 74 225q80 102 218 102q90 0 167 -52l-40 -337q0 -9 4 -17l70 7q0 -18 -8.5 -46t-18.5 -44q-25 -10 -74 -19t-80 -9q-20 35 -26 81zM288 138l39 268q-13 4 -34 4q-56 0 -97 -61q-40 -60 -40 -166
q0 -94 50 -94q45 0 82 49zM171 727q34 0 54.5 -20t20.5 -56q0 -38 -21 -60t-54 -22q-76 0 -76 82q0 33 22 54.5t54 21.5zM425 727q34 0 54.5 -20t20.5 -56q0 -38 -21 -60t-54 -22q-76 0 -76 82q0 33 22 54.5t54 21.5z" />
    <glyph glyph-name="aring" unicode="&#xe5;" horiz-adv-x="539" 
d="M297 64h-9q-45 -81 -137 -81q-63 0 -101.5 47t-38.5 143q0 130 74 225q80 102 218 102q90 0 167 -52l-40 -337q0 -9 4 -17l70 7q0 -18 -8.5 -46t-18.5 -44q-25 -10 -74 -19t-80 -9q-20 35 -26 81zM288 138l39 268q-13 4 -34 4q-56 0 -97 -61q-40 -60 -40 -166
q0 -94 50 -94q45 0 82 49zM322 790q103 0 103 -98q0 -60 -38.5 -96.5t-102.5 -36.5q-102 0 -102 96q0 60 37.5 97.5t102.5 37.5zM315 727q-27 0 -42.5 -18t-15.5 -46q0 -40 36 -40q26 0 41.5 17.5t15.5 47.5q0 39 -35 39z" />
    <glyph glyph-name="ae" unicode="&#xe6;" horiz-adv-x="756" 
d="M445 192v-13q0 -44 16 -62t50 -18q41 0 91 12.5t85 30.5q0 -50 -29 -100q-77 -59 -177 -59q-118 0 -157 80h-9q-55 -80 -154 -80q-65 0 -105 32t-40 97q0 85 61.5 135.5t149.5 50.5q46 0 88 -16q6 32 6 51q0 60 -74 60q-36 0 -85.5 -13t-81.5 -29q-3 11 -3 30q0 48 25 96
q29 11 85.5 19.5t102.5 8.5q92 0 134 -63h9q41 58 132 58q74 0 114 -34t40 -95q0 -160 -274 -179zM220 83q49 0 84 42q-3 23 -3 47q0 28 2 42q-32 5 -57 5q-39 0 -62.5 -22.5t-23.5 -57.5q0 -56 60 -56zM454 284q74 5 99.5 27.5t25.5 54.5q0 43 -33 43q-41 0 -69 -48
q-16 -29 -23 -77z" />
    <glyph glyph-name="ccedilla" unicode="&#xe7;" horiz-adv-x="481" 
d="M130 -82l37 68q-75 11 -113 60t-38 129q0 145 76 236q76 89 200 89q82 0 153 -44q0 -74 -34 -147q-26 0 -58.5 8.5t-50.5 21.5l7 62q-13 5 -30 5q-50 0 -78 -43q-40 -60 -40 -166q0 -100 82 -100q76 0 162 36q0 -21 -10 -51t-23 -49q-57 -36 -113 -46l-13 -42
q23 -6 38 -24t15 -45q0 -47 -46.5 -80t-103.5 -38q-31 21 -43 61q30 4 50.5 18.5t20.5 37.5q0 32 -47 43z" />
    <glyph glyph-name="egrave" unicode="&#xe8;" horiz-adv-x="470" 
d="M154 192v-13q0 -44 16.5 -62t50.5 -18q41 0 91.5 12.5t85.5 30.5q0 -50 -29 -100q-77 -59 -178 -59q-180 0 -180 189q0 64 19.5 129t55.5 111q72 88 190 88q74 0 114 -34t40 -95q0 -160 -276 -179zM163 282q77 5 103 28t26 56q0 45 -35 45q-41 0 -70 -50q-17 -28 -24 -79
zM278 553l-147 182q20 16 60.5 29t70.5 13l103 -192q-14 -12 -41.5 -22t-45.5 -10z" />
    <glyph glyph-name="eacute" unicode="&#xe9;" horiz-adv-x="470" 
d="M154 192v-13q0 -44 16.5 -62t50.5 -18q41 0 91.5 12.5t85.5 30.5q0 -50 -29 -100q-77 -59 -178 -59q-180 0 -180 189q0 64 19.5 129t55.5 111q72 88 190 88q74 0 114 -34t40 -95q0 -160 -276 -179zM163 282q77 5 103 28t26 56q0 45 -35 45q-41 0 -70 -50q-17 -28 -24 -79
zM444 725l-205 -180q-18 7 -37.5 24t-27.5 32l141 169q30 0 72 -13.5t57 -31.5z" />
    <glyph glyph-name="ecircumflex" unicode="&#xea;" horiz-adv-x="470" 
d="M154 192v-13q0 -44 16.5 -62t50.5 -18q41 0 91.5 12.5t85.5 30.5q0 -50 -29 -100q-77 -59 -178 -59q-180 0 -180 189q0 64 19.5 129t55.5 111q72 88 190 88q74 0 114 -34t40 -95q0 -160 -276 -179zM163 282q77 5 103 28t26 56q0 45 -35 45q-41 0 -70 -50q-17 -28 -24 -79
zM230 756l102 6l114 -155q-11 -17 -32.5 -33t-40.5 -22l-102 105l-141 -107q-12 12 -22.5 37.5t-12.5 45.5z" />
    <glyph glyph-name="edieresis" unicode="&#xeb;" horiz-adv-x="470" 
d="M154 192v-13q0 -44 16.5 -62t50.5 -18q41 0 91.5 12.5t85.5 30.5q0 -50 -29 -100q-77 -59 -178 -59q-180 0 -180 189q0 64 19.5 129t55.5 111q72 88 190 88q74 0 114 -34t40 -95q0 -160 -276 -179zM163 282q77 5 103 28t26 56q0 45 -35 45q-41 0 -70 -50q-17 -28 -24 -79
zM136 727q34 0 54.5 -20t20.5 -56q0 -38 -21 -60t-54 -22q-76 0 -76 82q0 33 22 54.5t54 21.5zM390 727q34 0 54.5 -20t20.5 -56q0 -38 -21 -60t-54 -22q-76 0 -76 82q0 33 22 54.5t54 21.5z" />
    <glyph glyph-name="igrave" unicode="&#xec;" horiz-adv-x="294" 
d="M81 385l-70 -6q0 16 8 47t17 40q48 28 128 28q30 0 62 -9l-47 -374q0 -9 4 -17l73 7q0 -18 -8.5 -46t-18.5 -44q-25 -11 -72 -19.5t-78 -8.5q-15 14 -30.5 44.5t-15.5 47.5zM167 553l-147 182q20 16 60.5 29t70.5 13l103 -192q-14 -12 -42 -22t-45 -10z" />
    <glyph glyph-name="iacute" unicode="&#xed;" horiz-adv-x="294" 
d="M81 385l-70 -6q0 16 8 47t17 40q48 28 128 28q30 0 62 -9l-47 -374q0 -9 4 -17l73 7q0 -18 -8.5 -46t-18.5 -44q-25 -11 -72 -19.5t-78 -8.5q-15 14 -30.5 44.5t-15.5 47.5zM339 725l-205 -180q-18 7 -37.5 24t-27.5 32l141 169q30 0 72 -13.5t57 -31.5z" />
    <glyph glyph-name="icircumflex" unicode="&#xee;" horiz-adv-x="294" 
d="M81 385l-70 -6q0 16 8 47t17 40q48 28 128 28q30 0 62 -9l-47 -374q0 -9 4 -17l73 7q0 -18 -8.5 -46t-18.5 -44q-25 -11 -72 -19.5t-78 -8.5q-15 14 -30.5 44.5t-15.5 47.5zM121 756l102 6l114 -155q-11 -17 -32.5 -33t-40.5 -22l-102 105l-141 -107q-12 12 -22.5 37.5
t-12.5 45.5z" />
    <glyph glyph-name="idieresis" unicode="&#xef;" horiz-adv-x="294" 
d="M47 727q34 0 54.5 -20t20.5 -56q0 -38 -21 -60t-54 -22q-76 0 -76 82q0 33 22 54.5t54 21.5zM276 727q34 0 54.5 -20t20.5 -56q0 -38 -21 -60t-54 -22q-76 0 -76 82q0 33 22 54.5t54 21.5zM81 385l-70 -6q0 16 8 47t17 40q48 28 128 28q30 0 62 -9l-47 -374q0 -9 4 -17
l73 7q0 -18 -8.5 -46t-18.5 -44q-25 -11 -72 -19.5t-78 -8.5q-15 14 -30.5 44.5t-15.5 47.5z" />
    <glyph glyph-name="eth" unicode="&#xf0;" horiz-adv-x="544" 
d="M356 435h15q-17 83 -74 136l-137 -75q-14 32 -14 86l80 41q-42 17 -91 27q7 23 25.5 48.5t38.5 41.5q94 -25 150 -56l107 56q36 -39 43 -71l-77 -41q93 -96 93 -264q0 -165 -81.5 -273t-225.5 -108q-188 0 -188 195q0 122 65.5 210.5t171.5 88.5q63 0 99 -42zM369 342
q-35 40 -87 40q-55 0 -86.5 -55t-31.5 -130q0 -116 74 -116q43 0 74 40.5t44 97.5t13 123z" />
    <glyph glyph-name="ntilde" unicode="&#xf1;" horiz-adv-x="564" 
d="M191 399h15q50 101 152 101q56 0 93 -32.5t37 -105.5q0 -37 -31 -251q0 -9 4 -17l73 7q0 -18 -8.5 -46t-18.5 -44q-25 -10 -74 -19t-80 -9q-15 14 -30.5 44.5t-15.5 47.5q37 196 37 261q0 62 -45 62q-24 0 -48 -20.5t-41 -47.5l-36 -326q-38 -7 -85 -7q-40 0 -64 7
l57 381l-70 -6q0 16 8 47t17 40q44 28 107 28q29 0 56 -9zM433 724q52 0 79 -17q-8 -53 -48 -93t-103 -40q-33 0 -71.5 21.5t-61.5 21.5q-37 0 -52 -38q-20 3 -39 15t-26 28q12 47 47.5 77t91.5 30q36 0 73 -21t58 -21q33 0 52 37z" />
    <glyph glyph-name="ograve" unicode="&#xf2;" horiz-adv-x="521" 
d="M208 -17q-192 0 -192 210q0 102 43 178q73 129 225 129q94 0 144 -53t50 -157q0 -112 -51 -192q-73 -115 -219 -115zM227 78q53 0 80 62q24 55 24 147q0 63 -14 91t-46 28q-52 0 -81 -64q-26 -57 -26 -149q0 -115 63 -115zM299 553l-147 182q20 16 60.5 29t70.5 13
l103 -192q-14 -12 -42 -22t-45 -10z" />
    <glyph glyph-name="oacute" unicode="&#xf3;" horiz-adv-x="521" 
d="M208 -17q-192 0 -192 210q0 102 43 178q73 129 225 129q94 0 144 -53t50 -157q0 -112 -51 -192q-73 -115 -219 -115zM227 78q53 0 80 62q24 55 24 147q0 63 -14 91t-46 28q-52 0 -81 -64q-26 -57 -26 -149q0 -115 63 -115zM459 725l-205 -180q-18 7 -37.5 24t-27.5 32
l141 169q30 0 72 -13.5t57 -31.5z" />
    <glyph glyph-name="ocircumflex" unicode="&#xf4;" horiz-adv-x="521" 
d="M208 -17q-192 0 -192 210q0 102 43 178q73 129 225 129q94 0 144 -53t50 -157q0 -112 -51 -192q-73 -115 -219 -115zM227 78q53 0 80 62q24 55 24 147q0 63 -14 91t-46 28q-52 0 -81 -64q-26 -57 -26 -149q0 -115 63 -115zM246 756l102 6l114 -155q-11 -17 -32.5 -33
t-40.5 -22l-102 105l-141 -107q-12 12 -22.5 37.5t-12.5 45.5z" />
    <glyph glyph-name="otilde" unicode="&#xf5;" horiz-adv-x="521" 
d="M208 -17q-192 0 -192 210q0 102 43 178q73 129 225 129q94 0 144 -53t50 -157q0 -112 -51 -192q-73 -115 -219 -115zM227 78q53 0 80 62q24 55 24 147q0 63 -14 91t-46 28q-52 0 -81 -64q-26 -57 -26 -149q0 -115 63 -115zM411 724q52 0 79 -17q-8 -53 -48 -93t-103 -40
q-33 0 -71.5 21.5t-61.5 21.5q-37 0 -52 -38q-20 3 -39 15t-26 28q12 47 47.5 77t91.5 30q36 0 73 -21t58 -21q33 0 52 37z" />
    <glyph glyph-name="odieresis" unicode="&#xf6;" horiz-adv-x="521" 
d="M208 -17q-192 0 -192 210q0 102 43 178q73 129 225 129q94 0 144 -53t50 -157q0 -112 -51 -192q-73 -115 -219 -115zM227 78q53 0 80 62q24 55 24 147q0 63 -14 91t-46 28q-52 0 -81 -64q-26 -57 -26 -149q0 -115 63 -115zM162 727q34 0 54.5 -20t20.5 -56q0 -38 -21 -60
t-54 -22q-76 0 -76 82q0 33 22 54.5t54 21.5zM416 727q34 0 54.5 -20t20.5 -56q0 -38 -21 -60t-54 -22q-76 0 -76 82q0 33 22 54.5t54 21.5z" />
    <glyph glyph-name="divide" unicode="&#xf7;" 
d="M57 326h452q6 -55 -9 -109h-467q5 56 24 109zM298 531q31 0 50 -17.5t19 -49.5q0 -34 -19.5 -54t-49.5 -20q-70 0 -70 74q0 29 20 48t50 19zM251 148q31 0 50 -17.5t19 -49.5q0 -34 -19.5 -54t-49.5 -20q-70 0 -70 74q0 29 20 48t50 19z" />
    <glyph glyph-name="oslash" unicode="&#xf8;" horiz-adv-x="550" 
d="M224 -17q-60 0 -103 20l-69 -85q-23 22 -45 77l52 65q-31 49 -31 133q0 103 44 178q75 129 230 129q56 0 99 -20l64 77q17 -7 38.5 -23.5t31.5 -30.5l-68 -81q33 -52 33 -132q0 -113 -52 -192q-74 -115 -224 -115zM243 78q57 0 85 62q25 54 25 147v9l-158 -196
q16 -22 48 -22zM176 193v-5l157 197q-15 21 -44 21q-55 0 -85 -64q-28 -56 -28 -149z" />
    <glyph glyph-name="ugrave" unicode="&#xf9;" horiz-adv-x="566" 
d="M225 485q-36 -266 -36 -338q0 -62 40 -62q47 0 87 57l33 243l-62 -5q0 16 8 46.5t17 39.5q47 28 123 28q29 0 60 -9l-36 -374q0 -9 4 -17l69 7q0 -18 -8.5 -46t-18.5 -44q-25 -10 -73.5 -19t-79.5 -9q-20 35 -26 86h-9q-49 -86 -149 -86q-53 0 -89.5 32.5t-36.5 105.5
q0 68 38 264l-70 -6q0 16 8 47t17 40q48 28 128 28q30 0 62 -9zM301 553l-147 182q20 16 60.5 29t70.5 13l103 -192q-14 -12 -42 -22t-45 -10z" />
    <glyph glyph-name="uacute" unicode="&#xfa;" horiz-adv-x="566" 
d="M225 485q-36 -266 -36 -338q0 -62 40 -62q47 0 87 57l33 243l-62 -5q0 16 8 46.5t17 39.5q47 28 123 28q29 0 60 -9l-36 -374q0 -9 4 -17l69 7q0 -18 -8.5 -46t-18.5 -44q-25 -10 -73.5 -19t-79.5 -9q-20 35 -26 86h-9q-49 -86 -149 -86q-53 0 -89.5 32.5t-36.5 105.5
q0 68 38 264l-70 -6q0 16 8 47t17 40q48 28 128 28q30 0 62 -9zM474 725l-205 -180q-18 7 -37.5 24t-27.5 32l141 169q30 0 72 -13.5t57 -31.5z" />
    <glyph glyph-name="ucircumflex" unicode="&#xfb;" horiz-adv-x="566" 
d="M225 485q-36 -266 -36 -338q0 -62 40 -62q47 0 87 57l33 243l-62 -5q0 16 8 46.5t17 39.5q47 28 123 28q29 0 60 -9l-36 -374q0 -9 4 -17l69 7q0 -18 -8.5 -46t-18.5 -44q-25 -10 -73.5 -19t-79.5 -9q-20 35 -26 86h-9q-49 -86 -149 -86q-53 0 -89.5 32.5t-36.5 105.5
q0 68 38 264l-70 -6q0 16 8 47t17 40q48 28 128 28q30 0 62 -9zM266 756l102 6l114 -155q-11 -17 -32.5 -33t-40.5 -22l-102 105l-141 -107q-12 12 -22.5 37.5t-12.5 45.5z" />
    <glyph glyph-name="udieresis" unicode="&#xfc;" horiz-adv-x="566" 
d="M225 485q-36 -266 -36 -338q0 -62 40 -62q47 0 87 57l33 243l-62 -5q0 16 8 46.5t17 39.5q47 28 123 28q29 0 60 -9l-36 -374q0 -9 4 -17l69 7q0 -18 -8.5 -46t-18.5 -44q-25 -10 -73.5 -19t-79.5 -9q-20 35 -26 86h-9q-49 -86 -149 -86q-53 0 -89.5 32.5t-36.5 105.5
q0 68 38 264l-70 -6q0 16 8 47t17 40q48 28 128 28q30 0 62 -9zM163 727q34 0 54.5 -20t20.5 -56q0 -38 -21 -60t-54 -22q-76 0 -76 82q0 33 22 54.5t54 21.5zM417 727q34 0 54.5 -20t20.5 -56q0 -38 -21 -60t-54 -22q-76 0 -76 82q0 33 22 54.5t54 21.5z" />
    <glyph glyph-name="yacute" unicode="&#xfd;" horiz-adv-x="489" 
d="M37 392l-61 -4q0 15 8 46.5t16 41.5q45 21 107 21q27 0 55 -10l56 -256q14 -65 16 -128h12q42 107 89 271q0 7 -4 17l-68 -4q2 22 12 49.5t21 38.5q21 8 65.5 13.5t70.5 5.5q12 -10 27 -45.5t15 -53.5q-48 -126 -117 -261.5t-117 -193.5q-112 -132 -230 -181
q-15 20 -28.5 60t-13.5 67q116 34 175 101zM460 725l-205 -180q-18 7 -37.5 24t-27.5 32l141 169q30 0 72 -13.5t57 -31.5z" />
    <glyph glyph-name="thorn" unicode="&#xfe;" horiz-adv-x="539" 
d="M-6 -227l107 852l-68 -7q0 17 8 47.5t18 39.5q48 28 127 28q30 0 62 -9l-14 -146q-6 -71 -33 -159h15q12 34 46 57.5t82 23.5q64 0 108 -46t44 -145q0 -68 -22 -135t-60 -111q-70 -80 -175 -80q-44 0 -77 13l-19 -223q-39 -7 -85 -7q-40 0 -64 7zM204 337l-28 -252
q14 -6 44 -6q56 0 86 38q43 53 43 169q0 110 -55 110q-24 0 -49 -17.5t-41 -41.5z" />
    <glyph glyph-name="ydieresis" unicode="&#xff;" horiz-adv-x="489" 
d="M37 392l-61 -4q0 15 8 46.5t16 41.5q45 21 107 21q27 0 55 -10l56 -256q14 -65 16 -128h12q42 107 89 271q0 7 -4 17l-68 -4q2 22 12 49.5t21 38.5q21 8 65.5 13.5t70.5 5.5q12 -10 27 -45.5t15 -53.5q-48 -126 -117 -261.5t-117 -193.5q-112 -132 -230 -181
q-15 20 -28.5 60t-13.5 67q116 34 175 101zM149 727q34 0 54.5 -20t20.5 -56q0 -38 -21 -60t-54 -22q-76 0 -76 82q0 33 22 54.5t54 21.5zM403 727q34 0 54.5 -20t20.5 -56q0 -38 -21 -60t-54 -22q-76 0 -76 82q0 33 22 54.5t54 21.5z" />
    <glyph glyph-name="Amacron" unicode="&#x100;" horiz-adv-x="755" 
d="M723 0h-304q7 44 32 91q26 9 62 16q-13 19 -27 66l-8 28h-237l-13 -33q-15 -35 -36 -65q36 -3 65 -12q12 -46 12 -91h-284q8 39 32 90q21 10 49 15l307 614h108l183 -611q31 -6 51 -15q8 -36 8 -93zM401 573h-12q-9 -61 -45 -143l-60 -136h172l-35 136q-20 75 -20 143z
M632 788h-413q5 60 25 112h397q6 -57 -9 -112z" />
    <glyph glyph-name="amacron" unicode="&#x101;" horiz-adv-x="539" 
d="M297 64h-9q-45 -81 -137 -81q-63 0 -101.5 47t-38.5 143q0 130 74 225q80 102 218 102q90 0 167 -52l-40 -337q0 -9 4 -17l70 7q0 -18 -8.5 -46t-18.5 -44q-25 -10 -74 -19t-80 -9q-20 35 -26 81zM288 138l39 268q-13 4 -34 4q-56 0 -97 -61q-40 -60 -40 -166
q0 -94 50 -94q45 0 82 49zM464 597h-328q5 57 23 102h313q6 -50 -8 -102z" />
    <glyph glyph-name="Abreve" unicode="&#x102;" horiz-adv-x="755" 
d="M723 0h-304q7 44 32 91q26 9 62 16q-13 19 -27 66l-8 28h-237l-13 -33q-15 -35 -36 -65q36 -3 65 -12q12 -46 12 -91h-284q8 39 32 90q21 10 49 15l307 614h108l183 -611q31 -6 51 -15q8 -36 8 -93zM401 573h-12q-9 -61 -45 -143l-60 -136h172l-35 136q-20 75 -20 143z
M329 953q15 -78 106 -78q92 0 131 71q45 0 85 -28q-19 -72 -80.5 -115t-154.5 -43q-85 0 -133.5 39.5t-54.5 110.5q13 15 43 27.5t58 15.5z" />
    <glyph glyph-name="abreve" unicode="&#x103;" horiz-adv-x="539" 
d="M297 64h-9q-45 -81 -137 -81q-63 0 -101.5 47t-38.5 143q0 130 74 225q80 102 218 102q90 0 167 -52l-40 -337q0 -9 4 -17l70 7q0 -18 -8.5 -46t-18.5 -44q-25 -10 -74 -19t-80 -9q-20 35 -26 81zM288 138l39 268q-13 4 -34 4q-56 0 -97 -61q-40 -60 -40 -166
q0 -94 50 -94q45 0 82 49zM213 751q6 -91 81 -91q67 0 104 86q54 -4 83 -25q-22 -76 -74.5 -120.5t-128.5 -44.5q-73 0 -111 41.5t-40 116.5q28 28 86 37z" />
    <glyph glyph-name="Aogonek" unicode="&#x104;" horiz-adv-x="755" 
d="M612 -148q14 -32 14 -82q-36 -15 -89 -15q-57 0 -96 27.5t-39 78.5q0 96 119 130v9h-102q7 44 32 91q26 9 62 16q-13 19 -27 66l-8 28h-237l-13 -33q-15 -35 -36 -65q36 -3 65 -12q12 -46 12 -91h-284q8 39 32 90q21 10 49 15l307 614h108l183 -611q31 -6 51 -15
q8 -36 8 -93h-80q-105 -49 -105 -113q0 -39 45 -39q11 0 29 4zM401 573h-12q-9 -61 -45 -143l-60 -136h172l-35 136q-20 75 -20 143z" />
    <glyph glyph-name="aogonek" unicode="&#x105;" horiz-adv-x="539" 
d="M297 64h-9q-45 -81 -137 -81q-63 0 -101.5 47t-38.5 143q0 130 74 225q80 102 218 102q90 0 167 -52l-40 -337q0 -9 4 -17l70 7q0 -18 -8.5 -46t-18.5 -44q-114 -51 -114 -113q0 -36 40 -36q13 0 25 4q13 -30 13 -73q-32 -15 -81 -15t-82.5 24.5t-33.5 71.5q0 73 76 113
q-17 32 -23 77zM288 138l39 268q-13 4 -34 4q-56 0 -97 -61q-40 -60 -40 -166q0 -94 50 -94q45 0 82 49z" />
    <glyph glyph-name="Cacute" unicode="&#x106;" horiz-adv-x="637" 
d="M472 517l9 98q-29 15 -66 15q-94 0 -156 -84.5t-62 -219.5q0 -116 47.5 -172.5t132.5 -56.5q97 0 197 38q0 -21 -10 -51.5t-23 -50.5q-102 -53 -211 -53q-136 0 -215 90t-79 240q0 184 115.5 301.5t280.5 117.5q107 0 194 -47q-11 -108 -36 -194q-67 0 -118 29zM658 851
l-296 -100q-13 46 -7 94l239 114q19 -16 37.5 -48.5t26.5 -59.5z" />
    <glyph glyph-name="cacute" unicode="&#x107;" horiz-adv-x="481" 
d="M302 339l7 62q-13 5 -30 5q-50 0 -78 -43q-40 -60 -40 -166q0 -100 82 -100q80 0 162 41q0 -21 -10 -51t-23 -49q-75 -55 -160 -55q-97 0 -146.5 50.5t-49.5 141.5q0 145 76 236q76 89 200 89q82 0 153 -44q0 -74 -34 -147q-26 0 -58.5 8.5t-50.5 21.5zM475 725
l-205 -180q-18 7 -37.5 24t-27.5 32l141 169q30 0 72 -13.5t57 -31.5z" />
    <glyph glyph-name="Ccircumflex" unicode="&#x108;" horiz-adv-x="637" 
d="M472 517l9 98q-29 15 -66 15q-94 0 -156 -84.5t-62 -219.5q0 -116 47.5 -172.5t132.5 -56.5q97 0 197 38q0 -21 -10 -51.5t-23 -50.5q-102 -53 -211 -53q-136 0 -215 90t-79 240q0 184 115.5 301.5t280.5 117.5q107 0 194 -47q-11 -108 -36 -194q-67 0 -118 29zM374 940
h130l140 -108q-8 -20 -27 -44.5t-35 -34.5l-159 81l-190 -85q-18 33 -18 90z" />
    <glyph glyph-name="ccircumflex" unicode="&#x109;" horiz-adv-x="481" 
d="M302 339l7 62q-13 5 -30 5q-50 0 -78 -43q-40 -60 -40 -166q0 -100 82 -100q80 0 162 41q0 -21 -10 -51t-23 -49q-75 -55 -160 -55q-97 0 -146.5 50.5t-49.5 141.5q0 145 76 236q76 89 200 89q82 0 153 -44q0 -74 -34 -147q-26 0 -58.5 8.5t-50.5 21.5zM252 756l102 6
l114 -155q-11 -17 -32.5 -33t-40.5 -22l-102 105l-141 -107q-12 12 -22.5 37.5t-12.5 45.5z" />
    <glyph glyph-name="Cdotaccent" unicode="&#x10a;" horiz-adv-x="637" 
d="M472 517l9 98q-29 15 -66 15q-94 0 -156 -84.5t-62 -219.5q0 -116 47.5 -172.5t132.5 -56.5q97 0 197 38q0 -21 -10 -51.5t-23 -50.5q-102 -53 -211 -53q-136 0 -215 90t-79 240q0 184 115.5 301.5t280.5 117.5q107 0 194 -47q-11 -108 -36 -194q-67 0 -118 29zM424 925
q38 0 61.5 -21.5t23.5 -58.5q0 -40 -24 -63t-61 -23q-88 0 -88 86q0 34 25 57t63 23z" />
    <glyph glyph-name="cdotaccent" unicode="&#x10b;" horiz-adv-x="481" 
d="M302 339l7 62q-13 5 -30 5q-50 0 -78 -43q-40 -60 -40 -166q0 -100 82 -100q80 0 162 41q0 -21 -10 -51t-23 -49q-75 -55 -160 -55q-97 0 -146.5 50.5t-49.5 141.5q0 145 76 236q76 89 200 89q82 0 153 -44q0 -74 -34 -147q-26 0 -58.5 8.5t-50.5 21.5zM295 731
q36 0 57 -21t21 -58q0 -40 -21.5 -62.5t-56.5 -22.5q-79 0 -79 85q0 34 22.5 56.5t56.5 22.5z" />
    <glyph glyph-name="Ccaron" unicode="&#x10c;" horiz-adv-x="637" 
d="M472 517l9 98q-29 15 -66 15q-94 0 -156 -84.5t-62 -219.5q0 -116 47.5 -172.5t132.5 -56.5q97 0 197 38q0 -21 -10 -51.5t-23 -50.5q-102 -53 -211 -53q-136 0 -215 90t-79 240q0 184 115.5 301.5t280.5 117.5q107 0 194 -47q-11 -108 -36 -194q-67 0 -118 29zM476 761
h-134l-142 124q14 16 46 30.5t59 18.5l130 -76l144 72q16 -6 34.5 -22.5t28.5 -31.5z" />
    <glyph glyph-name="ccaron" unicode="&#x10d;" horiz-adv-x="481" 
d="M302 339l7 62q-13 5 -30 5q-50 0 -78 -43q-40 -60 -40 -166q0 -100 82 -100q80 0 162 41q0 -21 -10 -51t-23 -49q-75 -55 -160 -55q-97 0 -146.5 50.5t-49.5 141.5q0 145 76 236q76 89 200 89q82 0 153 -44q0 -74 -34 -147q-26 0 -58.5 8.5t-50.5 21.5zM328 558l-109 -5
l-119 167q14 14 42 25t49 13l105 -97l132 98q17 -5 39 -19.5t33 -27.5z" />
    <glyph glyph-name="Dcaron" unicode="&#x10e;" horiz-adv-x="736" 
d="M102 110l43 487q-38 4 -63 9q-5 50 6 94q144 18 271 18q165 0 258.5 -78t93.5 -234q0 -99 -30 -179.5t-81 -131t-115.5 -77t-136.5 -26.5q-204 0 -340 13q6 52 27 90q23 9 67 15zM292 615l-38 -519q32 -5 68 -5q108 0 172.5 76.5t64.5 216.5q0 117 -57 176.5t-156 59.5
q-27 0 -54 -5zM451 761h-134l-142 124q14 16 46 30.5t59 18.5l130 -76l144 72q16 -6 34.5 -22.5t28.5 -31.5z" />
    <glyph glyph-name="dcaron" unicode="&#x10f;" horiz-adv-x="547" 
d="M512 724l-71 -613q0 -9 4 -17l70 7q0 -18 -8.5 -46t-18.5 -44q-25 -10 -74 -19t-80 -9q-20 35 -26 81h-9q-47 -81 -141 -81q-67 0 -108 46.5t-41 140.5q0 127 70 227q31 45 86 74t113 29q41 0 69 -14l19 139l-68 -7q0 17 8 47.5t18 39.5q48 28 127 28q29 0 61 -9z
M301 137l34 265q-21 6 -40 6q-59 0 -95 -55q-43 -62 -43 -170q0 -94 55 -94q47 0 89 48zM593 644l-43 10q17 45 49 81q20 5 47 5q47 0 85 -15q-16 -55 -57 -133.5t-76 -124.5q-14 4 -34 14.5t-29 18.5q37 68 58 144z" />
    <glyph glyph-name="Dcroat" unicode="&#x110;" horiz-adv-x="745" 
d="M110 110l17 195h-68q5 54 21 93h55l18 199q-38 4 -63 9q-5 50 6 94q144 18 271 18q165 0 258.5 -78t93.5 -234q0 -99 -30 -179.5t-81 -131t-115.5 -77t-136.5 -26.5q-204 0 -340 13q6 52 27 90q23 9 67 15zM431 305h-154l-15 -209q32 -5 68 -5q108 0 172.5 76.5
t64.5 216.5q0 117 -57 176.5t-156 59.5q-27 0 -54 -5l-16 -217h154q5 -43 -7 -93z" />
    <glyph glyph-name="dcroat" unicode="&#x111;" horiz-adv-x="599" 
d="M555 531h-63l-48 -420q0 -9 4 -17l70 7q0 -18 -8.5 -46t-18.5 -44q-25 -10 -74 -19t-80 -9q-20 35 -26 81h-9q-47 -81 -141 -81q-67 0 -108 45.5t-41 137.5q0 124 70 221q31 44 85.5 72.5t112.5 28.5q41 0 69 -14l7 57h-151q3 37 17 72h144l4 31l-68 -7q0 15 8 42.5
t17 35.5q48 28 127 28q29 0 61 -9l-14 -121h60q4 -36 -6 -72zM304 137l33 253q-21 6 -40 6q-58 0 -94 -53q-43 -60 -43 -164q0 -90 55 -90q47 0 89 48z" />
    <glyph glyph-name="Emacron" unicode="&#x112;" horiz-adv-x="639" 
d="M563 0h-559q6 52 27 90q23 9 69 16l44 499q-41 4 -63 12q-5 54 6 92h528l-17 -181q-66 0 -109 15q-5 30 -5 72h-194l-14 -207h155q2 12 12 44q48 15 108 15l-14 -205q-64 -6 -107 8q-5 20 -5 46h-156l-17 -220h189q7 45 21 81q45 15 116 15zM570 788h-413q5 60 25 112
h397q6 -57 -9 -112z" />
    <glyph glyph-name="emacron" unicode="&#x113;" horiz-adv-x="470" 
d="M154 192v-13q0 -44 16.5 -62t50.5 -18q41 0 91.5 12.5t85.5 30.5q0 -50 -29 -100q-77 -59 -178 -59q-180 0 -180 189q0 64 19.5 129t55.5 111q72 88 190 88q74 0 114 -34t40 -95q0 -160 -276 -179zM163 282q77 5 103 28t26 56q0 45 -35 45q-41 0 -70 -50q-17 -28 -24 -79
zM431 597h-328q5 57 23 102h313q6 -50 -8 -102z" />
    <glyph glyph-name="Ebreve" unicode="&#x114;" horiz-adv-x="639" 
d="M563 0h-559q6 52 27 90q23 9 69 16l44 499q-41 4 -63 12q-5 54 6 92h528l-17 -181q-66 0 -109 15q-5 30 -5 72h-194l-14 -207h155q2 12 12 44q48 15 108 15l-14 -205q-64 -6 -107 8q-5 20 -5 46h-156l-17 -220h189q7 45 21 81q45 15 116 15zM272 953q15 -78 106 -78
q92 0 131 71q45 0 85 -28q-19 -72 -80.5 -115t-154.5 -43q-85 0 -133.5 39.5t-54.5 110.5q13 15 43 27.5t58 15.5z" />
    <glyph glyph-name="ebreve" unicode="&#x115;" horiz-adv-x="470" 
d="M154 192v-13q0 -44 16.5 -62t50.5 -18q41 0 91.5 12.5t85.5 30.5q0 -50 -29 -100q-77 -59 -178 -59q-180 0 -180 189q0 64 19.5 129t55.5 111q72 88 190 88q74 0 114 -34t40 -95q0 -160 -276 -179zM163 282q77 5 103 28t26 56q0 45 -35 45q-41 0 -70 -50q-17 -28 -24 -79
zM179 751q6 -91 81 -91q67 0 104 86q54 -4 83 -25q-22 -76 -74.5 -120.5t-128.5 -44.5q-73 0 -111 41.5t-40 116.5q28 28 86 37z" />
    <glyph glyph-name="Edotaccent" unicode="&#x116;" horiz-adv-x="639" 
d="M563 0h-559q6 52 27 90q23 9 69 16l44 499q-41 4 -63 12q-5 54 6 92h528l-17 -181q-66 0 -109 15q-5 30 -5 72h-194l-14 -207h155q2 12 12 44q48 15 108 15l-14 -205q-64 -6 -107 8q-5 20 -5 46h-156l-17 -220h189q7 45 21 81q45 15 116 15zM379 925q38 0 61.5 -21.5
t23.5 -58.5q0 -40 -24 -63t-61 -23q-88 0 -88 86q0 34 25 57t63 23z" />
    <glyph glyph-name="edotaccent" unicode="&#x117;" horiz-adv-x="470" 
d="M154 192v-13q0 -44 16.5 -62t50.5 -18q41 0 91.5 12.5t85.5 30.5q0 -50 -29 -100q-77 -59 -178 -59q-180 0 -180 189q0 64 19.5 129t55.5 111q72 88 190 88q74 0 114 -34t40 -95q0 -160 -276 -179zM163 282q77 5 103 28t26 56q0 45 -35 45q-41 0 -70 -50q-17 -28 -24 -79
zM270 731q36 0 57 -21t21 -58q0 -40 -21.5 -62.5t-56.5 -22.5q-79 0 -79 85q0 34 22.5 56.5t56.5 22.5z" />
    <glyph glyph-name="Eogonek" unicode="&#x118;" horiz-adv-x="639" 
d="M392 0h-388q6 52 27 90q23 9 69 16l44 499q-41 4 -63 12q-5 54 6 92h528l-17 -181q-66 0 -109 15q-5 30 -5 72h-194l-14 -207h155q2 12 12 44q48 15 108 15l-14 -205q-64 -6 -107 8q-5 20 -5 46h-156l-17 -220h189q7 45 21 81q45 15 116 15l-15 -192h-51
q-105 -49 -105 -113q0 -39 45 -39q11 0 29 4q14 -32 14 -82q-36 -15 -89 -15q-57 0 -96 27.5t-39 78.5q0 100 121 130v9z" />
    <glyph glyph-name="eogonek" unicode="&#x119;" horiz-adv-x="470" 
d="M154 192v-13q0 -44 16.5 -62t50.5 -18q41 0 91.5 12.5t85.5 30.5q0 -50 -29 -100q-26 -20 -70 -39q-97 -42 -97 -105q0 -36 40 -36q13 0 25 4q13 -30 13 -73q-32 -15 -81 -15t-82.5 24.5t-33.5 71.5q0 35 18.5 63t52.5 41v9q-143 18 -143 185q0 64 19.5 129t55.5 111
q72 88 190 88q74 0 114 -34t40 -95q0 -160 -276 -179zM163 282q77 5 103 28t26 56q0 45 -35 45q-41 0 -70 -50q-17 -28 -24 -79z" />
    <glyph glyph-name="Ecaron" unicode="&#x11a;" horiz-adv-x="639" 
d="M563 0h-559q6 52 27 90q23 9 69 16l44 499q-41 4 -63 12q-5 54 6 92h528l-17 -181q-66 0 -109 15q-5 30 -5 72h-194l-14 -207h155q2 12 12 44q48 15 108 15l-14 -205q-64 -6 -107 8q-5 20 -5 46h-156l-17 -220h189q7 45 21 81q45 15 116 15zM435 761h-134l-142 124
q14 16 46 30.5t59 18.5l130 -76l144 72q16 -6 34.5 -22.5t28.5 -31.5z" />
    <glyph glyph-name="ecaron" unicode="&#x11b;" horiz-adv-x="470" 
d="M154 192v-13q0 -44 16.5 -62t50.5 -18q41 0 91.5 12.5t85.5 30.5q0 -50 -29 -100q-77 -59 -178 -59q-180 0 -180 189q0 64 19.5 129t55.5 111q72 88 190 88q74 0 114 -34t40 -95q0 -160 -276 -179zM163 282q77 5 103 28t26 56q0 45 -35 45q-41 0 -70 -50q-17 -28 -24 -79
zM302 558l-109 -5l-119 167q14 14 42 25t49 13l105 -97l132 98q17 -5 39 -19.5t33 -27.5z" />
    <glyph glyph-name="Gcircumflex" unicode="&#x11c;" horiz-adv-x="733" 
d="M622 261l-20 -231q-52 -18 -132 -34t-142 -16q-139 0 -214 85t-75 231q0 188 116.5 310.5t299.5 122.5q120 0 215 -62q-11 -108 -37 -182q-26 0 -64 9t-53 18l10 102q-37 20 -86 20q-101 0 -170 -91t-69 -236q0 -223 181 -223q33 0 83 6l18 170q-71 0 -121 11
q-8 40 -8 90h358q-4 -47 -21 -90q-34 -8 -69 -10zM380 940h130l140 -108q-8 -20 -27 -44.5t-35 -34.5l-159 81l-190 -85q-18 33 -18 90z" />
    <glyph glyph-name="gcircumflex" unicode="&#x11d;" horiz-adv-x="510" 
d="M306 83h-16q-43 -90 -136 -90q-67 0 -106.5 45.5t-39.5 140.5q0 127 74 221q80 100 218 100q91 0 168 -52l-46 -431q-6 -58 -21 -103t-43.5 -83t-76.5 -58.5t-115 -20.5q-79 0 -154 24q-16 38 -16 84q0 28 7 51q85 -51 160 -51q57 0 81 29t32 85q7 55 30 109zM325 406
q-13 4 -35 4q-56 0 -97 -59q-40 -59 -40 -161q0 -50 14 -70t42 -20q24 0 49.5 20.5t44.5 58.5zM254 756l102 6l114 -155q-11 -17 -32.5 -33t-40.5 -22l-102 105l-141 -107q-12 12 -22.5 37.5t-12.5 45.5z" />
    <glyph glyph-name="Gbreve" unicode="&#x11e;" horiz-adv-x="733" 
d="M622 261l-20 -231q-52 -18 -132 -34t-142 -16q-139 0 -214 85t-75 231q0 188 116.5 310.5t299.5 122.5q120 0 215 -62q-11 -108 -37 -182q-26 0 -64 9t-53 18l10 102q-37 20 -86 20q-101 0 -170 -91t-69 -236q0 -223 181 -223q33 0 83 6l18 170q-71 0 -121 11
q-8 40 -8 90h358q-4 -47 -21 -90q-34 -8 -69 -10zM327 953q15 -78 106 -78q92 0 131 71q45 0 85 -28q-19 -72 -80.5 -115t-154.5 -43q-85 0 -133.5 39.5t-54.5 110.5q13 15 43 27.5t58 15.5z" />
    <glyph glyph-name="gbreve" unicode="&#x11f;" horiz-adv-x="510" 
d="M306 83h-16q-43 -90 -136 -90q-67 0 -106.5 45.5t-39.5 140.5q0 127 74 221q80 100 218 100q91 0 168 -52l-46 -431q-6 -58 -21 -103t-43.5 -83t-76.5 -58.5t-115 -20.5q-79 0 -154 24q-16 38 -16 84q0 28 7 51q85 -51 160 -51q57 0 81 29t32 85q7 55 30 109zM325 406
q-13 4 -35 4q-56 0 -97 -59q-40 -59 -40 -161q0 -50 14 -70t42 -20q24 0 49.5 20.5t44.5 58.5zM201 751q6 -91 81 -91q67 0 104 86q54 -4 83 -25q-22 -76 -74.5 -120.5t-128.5 -44.5q-73 0 -111 41.5t-40 116.5q28 28 86 37z" />
    <glyph glyph-name="Gdotaccent" unicode="&#x120;" horiz-adv-x="733" 
d="M622 261l-20 -231q-52 -18 -132 -34t-142 -16q-139 0 -214 85t-75 231q0 188 116.5 310.5t299.5 122.5q120 0 215 -62q-11 -108 -37 -182q-26 0 -64 9t-53 18l10 102q-37 20 -86 20q-101 0 -170 -91t-69 -236q0 -223 181 -223q33 0 83 6l18 170q-71 0 -121 11
q-8 40 -8 90h358q-4 -47 -21 -90q-34 -8 -69 -10zM438 925q38 0 61.5 -21.5t23.5 -58.5q0 -40 -24 -63t-61 -23q-88 0 -88 86q0 34 25 57t63 23z" />
    <glyph glyph-name="gdotaccent" unicode="&#x121;" horiz-adv-x="510" 
d="M306 83h-16q-43 -90 -136 -90q-67 0 -106.5 45.5t-39.5 140.5q0 127 74 221q80 100 218 100q91 0 168 -52l-46 -431q-6 -58 -21 -103t-43.5 -83t-76.5 -58.5t-115 -20.5q-79 0 -154 24q-16 38 -16 84q0 28 7 51q85 -51 160 -51q57 0 81 29t32 85q7 55 30 109zM325 406
q-13 4 -35 4q-56 0 -97 -59q-40 -59 -40 -161q0 -50 14 -70t42 -20q24 0 49.5 20.5t44.5 58.5zM283 731q36 0 57 -21t21 -58q0 -40 -21.5 -62.5t-56.5 -22.5q-79 0 -79 85q0 34 22.5 56.5t56.5 22.5z" />
    <glyph glyph-name="Gcommaaccent" unicode="&#x122;" horiz-adv-x="733" 
d="M622 261l-20 -231q-52 -18 -132 -34t-142 -16q-139 0 -214 85t-75 231q0 188 116.5 310.5t299.5 122.5q120 0 215 -62q-11 -108 -37 -182q-26 0 -64 9t-53 18l10 102q-37 20 -86 20q-101 0 -170 -91t-69 -236q0 -223 181 -223q33 0 83 6l18 170q-71 0 -121 11
q-8 40 -8 90h358q-4 -47 -21 -90q-34 -8 -69 -10zM291 -152l-51 11q21 55 52 88q24 6 52 6q49 0 92 -16q-14 -59 -57 -144.5t-80 -134.5q-48 13 -69 34q46 92 61 156z" />
    <glyph glyph-name="gcommaaccent" unicode="&#x123;" horiz-adv-x="510" 
d="M391 812q-38 -77 -62 -154l53 -13q-6 -18 -23 -44.5t-32 -40.5q-81 9 -131 41q39 109 110 202q26 9 85 9zM306 83h-16q-43 -90 -136 -90q-67 0 -106.5 45.5t-39.5 140.5q0 127 74 221q80 100 218 100q91 0 168 -52l-46 -431q-6 -58 -21 -103t-43.5 -83t-76.5 -58.5
t-115 -20.5q-79 0 -154 24q-16 38 -16 84q0 28 7 51q85 -51 160 -51q57 0 81 29t32 85q7 55 30 109zM325 406q-13 4 -35 4q-56 0 -97 -59q-40 -59 -40 -161q0 -50 14 -70t42 -20q24 0 49.5 20.5t44.5 58.5z" />
    <glyph glyph-name="Hcircumflex" unicode="&#x124;" horiz-adv-x="823" 
d="M550 311h-278l-16 -205q38 -3 70 -14q3 -16 1.5 -46t-5.5 -46h-316q9 55 28 90q21 8 69 16l47 499q-41 4 -63 12q-5 51 7 92h278q2 -15 -2 -45.5t-9 -46.5q-29 -9 -66 -11l-14 -196h279l18 195q-36 4 -57 12q-3 60 8 92h278q2 -15 -2 -45.5t-9 -46.5q-32 -9 -73 -11
l-39 -500q41 -3 77 -14q3 -16 1.5 -46t-5.5 -46h-315q9 56 26 90q21 9 63 16zM413 940h130l140 -108q-8 -20 -27 -44.5t-35 -34.5l-159 81l-190 -85q-18 33 -18 90z" />
    <glyph glyph-name="hcircumflex" unicode="&#x125;" horiz-adv-x="563" 
d="M140 925h127l135 -105q-8 -20 -25.5 -42.5t-33.5 -32.5l-154 79l-186 -83q-18 33 -18 85zM21 4l84 621l-68 -7q0 17 8 47.5t18 39.5q48 28 127 28q28 0 60 -9l-15 -144q-7 -73 -34 -162h15q52 82 141 82q56 0 93 -32.5t37 -105.5q0 -37 -31 -251q0 -9 4 -17l73 7
q0 -18 -8.5 -46t-18.5 -44q-25 -10 -74 -19t-80 -9q-15 14 -30.5 44.5t-15.5 47.5q37 196 37 261q0 62 -45 62q-47 0 -93 -73l-35 -321q-38 -7 -85 -7q-40 0 -64 7z" />
    <glyph glyph-name="Hbar" unicode="&#x126;" horiz-adv-x="833" 
d="M96 551h54l6 61q-39 4 -64 11q-5 48 7 86h278q4 -42 -11 -86q-33 -8 -65 -10l-5 -62h282l6 61q-35 4 -58 11q-3 56 8 86h278q4 -42 -11 -86q-37 -8 -72 -10l-5 -62h66q4 -47 -7 -88h-66l-28 -357q41 -3 77 -14q3 -16 1.5 -46t-5.5 -46h-315q9 56 26 90q21 9 63 16l18 184
h-280l-13 -184q38 -3 70 -14q3 -16 1.5 -46t-5.5 -46h-316q9 55 28 90q21 8 69 16l34 357h-67q5 47 21 88zM283 389h281l6 74h-281z" />
    <glyph glyph-name="hbar" unicode="&#x127;" 
d="M400 530h-168q-7 -49 -28 -121h15q52 82 141 82q56 0 93 -32t37 -103q0 -36 -31 -245q0 -9 4 -17l73 7q0 -18 -8.5 -46t-18.5 -44q-25 -10 -74 -19t-80 -9q-15 14 -30.5 44.5t-15.5 47.5q37 191 37 254q0 60 -45 60q-47 0 -93 -71l-35 -314q-39 -7 -85 -7q-40 0 -64 7
l71 526h-62q3 37 17 72h54l5 32l-68 -7q0 15 8 42.5t17 35.5q48 28 127 28q28 0 60 -9l-12 -122h165q4 -36 -6 -72z" />
    <glyph glyph-name="Itilde" unicode="&#x128;" horiz-adv-x="394" 
d="M328 0h-323q9 55 28 90q23 9 69 16l47 499q-41 4 -63 12q-5 51 7 92h286q2 -15 -1.5 -46t-8.5 -46q-32 -9 -73 -11l-41 -500q41 -3 77 -14q7 -53 -4 -92zM391 926q44 0 81 -20q-8 -58 -51 -100t-118 -42q-38 0 -84 23.5t-77 23.5q-20 0 -36 -14t-22 -30q-45 7 -74 51
q15 49 56 80.5t103 31.5q43 0 88.5 -22.5t74.5 -22.5q41 0 59 41z" />
    <glyph glyph-name="itilde" unicode="&#x129;" horiz-adv-x="294" 
d="M81 385l-70 -6q0 16 8 47t17 40q48 28 128 28q30 0 62 -9l-47 -374q0 -9 4 -17l73 7q0 -18 -8.5 -46t-18.5 -44q-25 -11 -72 -19.5t-78 -8.5q-15 14 -30.5 44.5t-15.5 47.5zM282 724q52 0 79 -17q-8 -53 -48 -93t-103 -40q-33 0 -71.5 21.5t-61.5 21.5q-37 0 -52 -38
q-20 3 -39 15t-26 28q12 47 47.5 77t91.5 30q37 0 73 -21t58 -21q34 0 52 37z" />
    <glyph glyph-name="imacron" unicode="&#x12b;" horiz-adv-x="294" 
d="M309 597h-302q5 57 23 102h287q6 -50 -8 -102zM81 385l-70 -6q0 16 8 47t17 40q48 28 128 28q30 0 62 -9l-47 -374q0 -9 4 -17l73 7q0 -18 -8.5 -46t-18.5 -44q-25 -11 -72 -19.5t-78 -8.5q-15 14 -30.5 44.5t-15.5 47.5z" />
    <glyph glyph-name="Ibreve" unicode="&#x12c;" horiz-adv-x="394" 
d="M328 0h-323q9 55 28 90q23 9 69 16l47 499q-41 4 -63 12q-5 51 7 92h286q2 -15 -1.5 -46t-8.5 -46q-32 -9 -73 -11l-41 -500q41 -3 77 -14q7 -53 -4 -92zM138 953q15 -78 106 -78q92 0 131 71q45 0 85 -28q-19 -72 -80.5 -115t-154.5 -43q-85 0 -133.5 39.5t-54.5 110.5
q13 15 43 27.5t58 15.5z" />
    <glyph glyph-name="Iogonek" unicode="&#x12e;" horiz-adv-x="394" 
d="M249 -148q14 -32 14 -82q-36 -15 -89 -15q-57 0 -96 27.5t-39 78.5q0 102 119 130v9h-153q9 55 28 90q23 9 69 16l47 499q-41 4 -63 12q-5 51 7 92h286q2 -15 -1.5 -46t-8.5 -46q-32 -9 -73 -11l-41 -500q41 -3 77 -14q7 -53 -4 -92h-48q-105 -49 -105 -113q0 -39 45 -39
q11 0 29 4z" />
    <glyph glyph-name="iogonek" unicode="&#x12f;" horiz-adv-x="294" 
d="M81 385l-70 -6q0 16 8 47t17 40q48 28 128 28q30 0 62 -9l-44 -374q0 -9 4 -17l70 7q0 -18 -8.5 -46t-18.5 -44q-117 -51 -117 -113q0 -36 40 -36q13 0 25 4q13 -30 13 -73q-32 -15 -81 -15t-82.5 24.5t-33.5 71.5q0 80 82 108v9q-14 9 -29 37.5t-15 46.5zM172 765
q38 0 61 -22.5t23 -63.5q0 -43 -23.5 -67.5t-60.5 -24.5q-86 0 -86 92q0 37 24.5 61.5t61.5 24.5z" />
    <glyph glyph-name="Idotaccent" unicode="&#x130;" horiz-adv-x="394" 
d="M328 0h-323q9 55 28 90q23 9 69 16l47 499q-41 4 -63 12q-5 51 7 92h286q2 -15 -1.5 -46t-8.5 -46q-32 -9 -73 -11l-41 -500q41 -3 77 -14q7 -53 -4 -92zM245 925q38 0 61.5 -21.5t23.5 -58.5q0 -40 -24 -63t-61 -23q-88 0 -88 86q0 34 25 57t63 23z" />
    <glyph glyph-name="dotlessi" unicode="&#x131;" horiz-adv-x="294" 
d="M81 385l-70 -6q0 16 8 47t17 40q48 28 128 28q30 0 62 -9l-47 -374q0 -9 4 -17l73 7q0 -18 -8.5 -46t-18.5 -44q-25 -11 -72 -19.5t-78 -8.5q-15 14 -30.5 44.5t-15.5 47.5z" />
    <glyph glyph-name="ij" unicode="&#x133;" horiz-adv-x="576" 
d="M81 385l-70 -6q0 16 8 47t17 40q48 28 128 28q30 0 62 -9l-44 -374q0 -9 4 -17l70 7q0 -18 -8.5 -46t-18.5 -44q-25 -11 -73 -19.5t-79 -8.5q-15 14 -30.5 44.5t-15.5 47.5zM172 765q38 0 61 -22.5t23 -63.5q0 -43 -23.5 -67.5t-60.5 -24.5q-86 0 -86 92q0 37 24.5 61.5
t61.5 24.5zM277 -237q-48 21 -71 60q47 49 85 125.5t49 160.5l37 276l-70 -6q0 16 8 47t17 40q48 28 128 28q30 0 62 -9l-38 -339q-23 -215 -207 -383zM456 765q38 0 61 -22.5t23 -63.5q0 -43 -23.5 -67.5t-60.5 -24.5q-86 0 -86 92q0 37 24.5 61.5t61.5 24.5z" />
    <glyph glyph-name="Jcircumflex" unicode="&#x134;" horiz-adv-x="361" 
d="M288 606l-27 -364q-23 -300 -298 -425q-13 14 -25 37.5t-15 42.5q165 93 185 319l34 389q-51 4 -82 12q-6 46 7 92h304q2 -15 -2 -45.5t-9 -46.5q-30 -9 -72 -11zM179 940h130l140 -108q-8 -20 -27 -44.5t-35 -34.5l-159 81l-190 -85q-18 33 -18 90z" />
    <glyph glyph-name="jcircumflex" unicode="&#x135;" horiz-adv-x="279" 
d="M-17 -237q-48 21 -71 60q47 49 85 125.5t49 160.5l37 276l-70 -6q0 16 8 47t17 40q48 28 128 28q30 0 62 -9l-38 -339q-23 -215 -207 -383zM139 756l102 6l114 -155q-11 -17 -32.5 -33t-40.5 -22l-102 105l-141 -107q-12 12 -22.5 37.5t-12.5 45.5z" />
    <glyph glyph-name="Kcommaaccent" unicode="&#x136;" horiz-adv-x="742" 
d="M282 405h61l117 148q24 34 51 53q-29 4 -50 10q-8 39 -1 93h279q-8 -51 -27 -99q-22 -5 -62 -7l-199 -235l185 -265l64 4q-4 -56 -36 -107q-65 -17 -139 -20l-209 333h-40l-17 -207q37 -3 69 -14q3 -16 1.5 -46t-5.5 -46h-316q9 55 28 90q19 8 69 16l47 499q-41 4 -63 12
q-5 51 7 92h278q2 -15 -2 -45.5t-9 -46.5q-29 -9 -65 -11zM319 -152l-51 11q21 55 52 88q24 6 52 6q49 0 92 -16q-14 -59 -57 -144.5t-80 -134.5q-48 13 -69 34q46 92 61 156z" />
    <glyph glyph-name="kcommaaccent" unicode="&#x137;" horiz-adv-x="523" 
d="M18 4l77 621l-68 -7q0 17 8 47.5t18 39.5q48 28 127 28q30 0 62 -9l-50 -469q88 55 148 120q0 10 -4 18l-64 -3q2 22 12.5 49t22.5 38q46 17 137 17q13 -11 29 -46.5t16 -55.5q-76 -94 -156 -147q39 -81 94 -155l59 7q0 -19 -8.5 -50t-18.5 -50q-40 -15 -117 -21
q-58 68 -120 207q-18 -10 -38 -18l-17 -161q-39 -7 -85 -7q-40 0 -64 7zM178 -154l-49 10q24 57 51 86q21 6 50 6q51 0 90 -13q-16 -56 -57 -138t-74 -129q-35 10 -65 34q36 82 54 144z" />
    <glyph glyph-name="kgreenlandic" unicode="&#x138;" horiz-adv-x="542" 
d="M80 386l-68 -7q0 17 8 47.5t18 39.5q48 28 127 28q31 0 62 -9l-23 -230q93 56 155 120q0 10 -4 18l-64 -3q3 23 13.5 50t22.5 37q48 17 138 17q12 -11 27.5 -47t15.5 -55q-70 -86 -163 -147q47 -95 99 -155l59 7q0 -19 -8.5 -49.5t-19.5 -50.5q-39 -14 -118 -21
q-55 62 -121 207q-10 -6 -41 -18l-19 -161q-38 -7 -84 -7q-40 0 -64 7z" />
    <glyph glyph-name="Lacute" unicode="&#x139;" horiz-adv-x="628" 
d="M104 106l47 499q-41 4 -63 12q-5 51 7 92h313q2 -15 -2 -46t-10 -46q-40 -9 -100 -11l-40 -508h192q10 54 24 98q48 17 120 17l-19 -213h-566q9 55 28 90q25 9 69 16zM484 851l-296 -100q-13 46 -7 94l239 114q19 -16 37.5 -48.5t26.5 -59.5z" />
    <glyph glyph-name="lacute" unicode="&#x13a;" horiz-adv-x="285" 
d="M359 851l-296 -100q-12 42 -8 87l243 116q19 -16 36 -46t25 -57zM244 724l-70 -613q0 -9 4 -17l70 7q0 -18 -8.5 -46t-18.5 -44q-25 -11 -73 -19.5t-79 -8.5q-15 14 -30.5 44.5t-15.5 47.5l74 550l-68 -7q0 17 8 47.5t18 39.5q48 28 127 28q30 0 62 -9z" />
    <glyph glyph-name="Lcommaaccent" unicode="&#x13b;" horiz-adv-x="628" 
d="M104 106l47 499q-41 4 -63 12q-5 51 7 92h313q2 -15 -2 -46t-10 -46q-40 -9 -100 -11l-40 -508h192q10 54 24 98q48 17 120 17l-19 -213h-566q9 55 28 90q25 9 69 16zM280 -152l-51 11q21 55 52 88q24 6 52 6q49 0 92 -16q-14 -59 -57 -144.5t-80 -134.5q-48 13 -69 34
q46 92 61 156z" />
    <glyph glyph-name="lcommaaccent" unicode="&#x13c;" horiz-adv-x="285" 
d="M244 724l-70 -613q0 -9 4 -17l70 7q0 -18 -8.5 -46t-18.5 -44q-25 -11 -73 -19.5t-79 -8.5q-15 14 -30.5 44.5t-15.5 47.5l74 550l-68 -7q0 17 8 47.5t18 39.5q48 28 127 28q30 0 62 -9zM46 -154l-49 10q24 57 51 86q21 6 50 6q51 0 90 -13q-16 -56 -57 -138t-74 -129
q-35 10 -65 34q36 82 54 144z" />
    <glyph glyph-name="Lcaron" unicode="&#x13d;" horiz-adv-x="638" 
d="M104 106l47 499q-41 4 -63 12q-5 51 7 92h313q2 -15 -2 -46t-10 -46q-40 -9 -100 -11l-40 -508h192q10 54 24 98q48 17 120 17l-19 -213h-566q9 55 28 90q25 9 69 16zM512 612l-52 11q17 47 51 85q30 7 56 7q47 0 90 -16q-16 -59 -61 -145.5t-83 -135.5q-41 10 -65 36
q45 83 64 158z" />
    <glyph glyph-name="lcaron" unicode="&#x13e;" horiz-adv-x="285" 
d="M244 724l-70 -613q0 -9 4 -17l70 7q0 -18 -8.5 -46t-18.5 -44q-25 -11 -73 -19.5t-79 -8.5q-15 14 -30.5 44.5t-15.5 47.5l74 550l-68 -7q0 17 8 47.5t18 39.5q48 28 127 28q30 0 62 -9zM330 644l-43 10q17 45 49 81q20 5 47 5q47 0 85 -15q-16 -55 -57 -133.5
t-76 -124.5q-14 4 -34 14.5t-29 18.5q37 68 58 144z" />
    <glyph glyph-name="Ldot" unicode="&#x13f;" horiz-adv-x="670" 
d="M104 106l47 499q-41 4 -63 12q-5 51 7 92h313q2 -15 -2 -46t-10 -46q-40 -9 -100 -11l-40 -508h192q10 54 24 98q48 17 120 17l-19 -213h-566q9 55 28 90q25 9 69 16zM569 453q38 0 61.5 -21.5t23.5 -58.5q0 -40 -24 -63t-61 -23q-88 0 -88 86q0 34 25 57t63 23z" />
    <glyph glyph-name="ldot" unicode="&#x140;" horiz-adv-x="450" 
d="M362 458q36 0 57 -21t21 -58q0 -40 -21.5 -62.5t-56.5 -22.5q-79 0 -79 85q0 34 22.5 56.5t56.5 22.5zM244 724l-70 -613q0 -9 4 -17l70 7q0 -18 -8.5 -46t-18.5 -44q-25 -11 -73 -19.5t-79 -8.5q-15 14 -30.5 44.5t-15.5 47.5l74 550l-68 -7q0 17 8 47.5t18 39.5
q48 28 127 28q30 0 62 -9z" />
    <glyph glyph-name="Lslash" unicode="&#x141;" horiz-adv-x="638" 
d="M109 106l13 136l-66 -39q-18 37 -18 104l96 57l22 241q-41 4 -63 12q-5 51 7 92h313q2 -15 -2 -46t-10 -46q-40 -9 -100 -11l-14 -161l116 69q11 -12 25 -39.5t19 -45.5l-169 -102l-17 -229h192q10 54 24 98q48 17 120 17l-19 -213h-566q9 55 28 90q25 9 69 16z" />
    <glyph glyph-name="lslash" unicode="&#x142;" horiz-adv-x="348" 
d="M272 724l-23 -204q-5 -46 -16 -86l67 37q10 -10 19.5 -33.5t11.5 -39.5l-102 -58l-27 -229q0 -9 4 -17l70 7q0 -18 -8.5 -46t-18.5 -44q-25 -11 -73 -19.5t-79 -8.5q-15 14 -30.5 44.5t-15.5 47.5l14 112q5 44 17 84l-76 -43q-15 34 -15 91l99 52l35 254l-68 -7
q0 17 8 47.5t18 39.5q48 28 127 28q30 0 62 -9z" />
    <glyph glyph-name="Nacute" unicode="&#x143;" horiz-adv-x="772" 
d="M334 709l169 -390q28 -64 35 -151h12l41 437q-45 4 -73 12q-5 53 8 92h245q2 -15 -2 -45.5t-9 -46.5q-26 -9 -66 -11l-52 -614h-160l-182 433q-32 75 -37 146h-12l-37 -465q39 -3 71 -14q3 -16 1.5 -46t-5.5 -46h-276q9 53 25 90q24 9 64 16l47 499q-41 4 -63 12
q-5 51 7 92h249zM669 851l-296 -100q-13 46 -7 94l239 114q19 -16 37.5 -48.5t26.5 -59.5z" />
    <glyph glyph-name="nacute" unicode="&#x144;" horiz-adv-x="564" 
d="M191 399h15q50 101 152 101q56 0 93 -32.5t37 -105.5q0 -37 -31 -251q0 -9 4 -17l73 7q0 -18 -8.5 -46t-18.5 -44q-25 -10 -74 -19t-80 -9q-15 14 -30.5 44.5t-15.5 47.5q37 196 37 261q0 62 -45 62q-24 0 -48 -20.5t-41 -47.5l-36 -326q-38 -7 -85 -7q-40 0 -64 7
l57 381l-70 -6q0 16 8 47t17 40q44 28 107 28q29 0 56 -9zM490 725l-205 -180q-18 7 -37.5 24t-27.5 32l141 169q30 0 72 -13.5t57 -31.5z" />
    <glyph glyph-name="Ncommaaccent" unicode="&#x145;" horiz-adv-x="772" 
d="M334 709l169 -390q28 -64 35 -151h12l41 437q-45 4 -73 12q-5 53 8 92h245q2 -15 -2 -45.5t-9 -46.5q-26 -9 -66 -11l-52 -614h-160l-182 433q-32 75 -37 146h-12l-37 -465q39 -3 71 -14q3 -16 1.5 -46t-5.5 -46h-276q9 53 25 90q24 9 64 16l47 499q-41 4 -63 12
q-5 51 7 92h249zM310 -152l-51 11q21 55 52 88q24 6 52 6q49 0 92 -16q-14 -59 -57 -144.5t-80 -134.5q-48 13 -69 34q46 92 61 156z" />
    <glyph glyph-name="ncommaaccent" unicode="&#x146;" horiz-adv-x="564" 
d="M191 399h15q50 101 152 101q56 0 93 -32.5t37 -105.5q0 -37 -31 -251q0 -9 4 -17l73 7q0 -18 -8.5 -46t-18.5 -44q-25 -10 -74 -19t-80 -9q-15 14 -30.5 44.5t-15.5 47.5q37 196 37 261q0 62 -45 62q-24 0 -48 -20.5t-41 -47.5l-36 -326q-38 -7 -85 -7q-40 0 -64 7
l57 381l-70 -6q0 16 8 47t17 40q44 28 107 28q29 0 56 -9zM189 -154l-49 10q24 57 51 86q21 6 50 6q51 0 90 -13q-16 -56 -57 -138t-74 -129q-35 10 -65 34q36 82 54 144z" />
    <glyph glyph-name="Ncaron" unicode="&#x147;" horiz-adv-x="772" 
d="M334 709l169 -390q28 -64 35 -151h12l41 437q-45 4 -73 12q-5 53 8 92h245q2 -15 -2 -45.5t-9 -46.5q-26 -9 -66 -11l-52 -614h-160l-182 433q-32 75 -37 146h-12l-37 -465q39 -3 71 -14q3 -16 1.5 -46t-5.5 -46h-276q9 53 25 90q24 9 64 16l47 499q-41 4 -63 12
q-5 51 7 92h249zM494 761h-134l-142 124q14 16 46 30.5t59 18.5l130 -76l144 72q16 -6 34.5 -22.5t28.5 -31.5z" />
    <glyph glyph-name="ncaron" unicode="&#x148;" horiz-adv-x="564" 
d="M191 399h15q50 101 152 101q56 0 93 -32.5t37 -105.5q0 -37 -31 -251q0 -9 4 -17l73 7q0 -18 -8.5 -46t-18.5 -44q-25 -10 -74 -19t-80 -9q-15 14 -30.5 44.5t-15.5 47.5q37 196 37 261q0 62 -45 62q-24 0 -48 -20.5t-41 -47.5l-36 -326q-38 -7 -85 -7q-40 0 -64 7
l57 381l-70 -6q0 16 8 47t17 40q44 28 107 28q29 0 56 -9zM356 558l-109 -5l-119 167q14 14 42 25t49 13l105 -97l132 98q17 -5 39 -19.5t33 -27.5z" />
    <glyph glyph-name="Eng" unicode="&#x14a;" horiz-adv-x="757" 
d="M311 709l186 -331q33 -61 39 -155h12l35 382q-45 4 -73 12q-5 53 8 92h248q2 -15 -2 -45.5t-9 -46.5q-26 -9 -66 -11l-42 -490q-11 -127 -66.5 -222.5t-130.5 -154.5q-33 20 -52 61q39 33 76 95.5t47 117.5l-214 372q-37 65 -43 154h-12l-37 -433q39 -3 71 -14
q3 -16 1.5 -46t-5.5 -46h-277q9 53 25 90q24 9 64 16l49 499q-41 4 -63 12q-5 51 7 92h224z" />
    <glyph glyph-name="eng" unicode="&#x14b;" horiz-adv-x="530" 
d="M191 399h15q51 101 157 101q132 0 132 -150q0 -101 -24 -217q-19 -93 -73.5 -182t-132.5 -152q-20 9 -38 27.5t-27 37.5q98 93 127 251q25 138 25 211q0 72 -46 72q-51 0 -96 -68l-36 -326q-38 -7 -85 -7q-40 0 -64 7l57 381l-70 -6q0 16 8 47t17 40q44 28 107 28
q29 0 56 -9z" />
    <glyph glyph-name="Omacron" unicode="&#x14c;" horiz-adv-x="712" 
d="M636 788h-453q5 60 25 112h437q6 -57 -9 -112zM407 729q132 0 206 -84t74 -243q0 -189 -100 -305.5t-264 -116.5q-134 0 -205 82.5t-71 238.5q0 188 99.5 308t260.5 120zM391 631q-60 0 -103.5 -47t-63.5 -119t-20 -157q0 -109 35.5 -169t102.5 -60q86 0 138 93t52 228
q0 109 -36.5 170t-104.5 61z" />
    <glyph glyph-name="omacron" unicode="&#x14d;" horiz-adv-x="521" 
d="M208 -17q-192 0 -192 210q0 102 43 178q73 129 225 129q94 0 144 -53t50 -157q0 -112 -51 -192q-73 -115 -219 -115zM227 78q53 0 80 62q24 55 24 147q0 63 -14 91t-46 28q-52 0 -81 -64q-26 -57 -26 -149q0 -115 63 -115zM447 597h-328q5 57 23 102h313q6 -50 -8 -102z
" />
    <glyph glyph-name="Obreve" unicode="&#x14e;" horiz-adv-x="712" 
d="M407 729q132 0 206 -84t74 -243q0 -189 -100 -305.5t-264 -116.5q-134 0 -205 82.5t-71 238.5q0 188 99.5 308t260.5 120zM391 631q-60 0 -103.5 -47t-63.5 -119t-20 -157q0 -109 35.5 -169t102.5 -60q86 0 138 93t52 228q0 109 -36.5 170t-104.5 61zM310 953
q15 -78 106 -78q92 0 131 71q45 0 85 -28q-19 -72 -80.5 -115t-154.5 -43q-85 0 -133.5 39.5t-54.5 110.5q13 15 43 27.5t58 15.5z" />
    <glyph glyph-name="obreve" unicode="&#x14f;" horiz-adv-x="521" 
d="M208 -17q-192 0 -192 210q0 102 43 178q73 129 225 129q94 0 144 -53t50 -157q0 -112 -51 -192q-73 -115 -219 -115zM227 78q53 0 80 62q24 55 24 147q0 63 -14 91t-46 28q-52 0 -81 -64q-26 -57 -26 -149q0 -115 63 -115zM208 751q6 -91 81 -91q67 0 104 86
q54 -4 83 -25q-22 -76 -74.5 -120.5t-128.5 -44.5q-73 0 -111 41.5t-40 116.5q28 28 86 37z" />
    <glyph glyph-name="Ohungarumlaut" unicode="&#x150;" horiz-adv-x="712" 
d="M407 729q132 0 206 -84t74 -243q0 -189 -100 -305.5t-264 -116.5q-134 0 -205 82.5t-71 238.5q0 188 99.5 308t260.5 120zM391 631q-60 0 -103.5 -47t-63.5 -119t-20 -157q0 -109 35.5 -169t102.5 -60q86 0 138 93t52 228q0 109 -36.5 170t-104.5 61zM499 916l-241 -175
q-34 26 -48 79l172 162q30 -4 64 -24t53 -42zM789 916l-241 -175q-34 26 -48 79l172 162q30 -4 64 -24t53 -42z" />
    <glyph glyph-name="ohungarumlaut" unicode="&#x151;" horiz-adv-x="521" 
d="M208 -17q-192 0 -192 210q0 102 43 178q73 129 225 129q94 0 144 -53t50 -157q0 -112 -51 -192q-73 -115 -219 -115zM227 78q53 0 80 62q24 55 24 147q0 63 -14 91t-46 28q-52 0 -81 -64q-26 -57 -26 -149q0 -115 63 -115zM344 725l-172 -187q-19 6 -37.5 24t-26.5 35
l116 171q27 0 66 -13.5t54 -29.5zM569 725l-172 -187q-19 6 -37.5 24t-26.5 35l116 171q27 0 66 -13.5t54 -29.5z" />
    <glyph glyph-name="OE" unicode="&#x152;" horiz-adv-x="999" 
d="M923 0h-461q-58 -16 -120 -16q-142 0 -218.5 82.5t-76.5 237.5q0 186 104.5 304t264.5 118q58 0 112 -17h447l-17 -181q-66 0 -109 15q-5 30 -5 72h-188l-14 -207h149q2 12 12 44q48 15 108 15l-14 -205q-64 -6 -107 8q-5 20 -5 46h-150l-17 -220h183q7 45 21 81
q45 15 116 15zM370 87q56 0 100 21l44 491q-40 25 -100 25q-104 0 -158.5 -88.5t-54.5 -223.5q0 -225 169 -225z" />
    <glyph glyph-name="oe" unicode="&#x153;" horiz-adv-x="761" 
d="M203 -17q-92 0 -139.5 53t-47.5 157q0 102 43 179q32 59 88 93.5t131 34.5q49 0 87 -15.5t51 -42.5h9q18 28 60.5 43t89.5 15q71 0 110 -34.5t39 -94.5q0 -160 -268 -179v-13q0 -46 16 -63t53 -17t85.5 13t81.5 30q0 -50 -29 -100q-75 -59 -176 -59q-50 0 -76.5 15
t-46.5 44h-9q-61 -59 -152 -59zM224 78q51 0 78 62q24 55 24 147q0 119 -60 119q-50 0 -77 -65q-27 -61 -27 -146q0 -62 15 -89.5t47 -27.5zM554 409q-19 0 -39 -14t-30 -33q-14 -27 -22 -78q125 9 125 81q0 44 -34 44z" />
    <glyph glyph-name="Racute" unicode="&#x154;" horiz-adv-x="690" 
d="M103 106l46 494q-38 0 -64 7q-3 36 6 97q116 15 276 15q118 0 189 -48t71 -143q0 -75 -44 -132t-113 -80q32 -74 69.5 -134.5t58.5 -77.5l53 6q0 -23 -9 -54.5t-20 -49.5q-56 -17 -130 -22q-25 20 -75.5 117.5t-81.5 190.5q-40 0 -68 7l-14 -193q39 -3 71 -14
q3 -16 1.5 -46t-5.5 -46h-314q9 55 28 90q19 8 69 16zM292 619l-17 -227q27 -6 77 -6q52 0 89.5 32t37.5 89q0 55 -36 85.5t-96 30.5q-25 0 -55 -4zM609 851l-296 -100q-13 46 -7 94l239 114q19 -16 37.5 -48.5t26.5 -59.5z" />
    <glyph glyph-name="racute" unicode="&#x155;" horiz-adv-x="392" 
d="M374 493q10 -28 10 -66q0 -44 -11 -71q-31 18 -71 18q-70 0 -106 -81l-27 -289q-37 -7 -84 -7q-42 0 -64 7l51 381l-70 -6q0 16 8 47t17 40q44 28 107 28q29 0 56 -9l-11 -106h15q33 121 131 121q28 0 49 -7zM447 725l-205 -180q-18 7 -37.5 24t-27.5 32l141 169
q30 0 72 -13.5t57 -31.5z" />
    <glyph glyph-name="Rcommaaccent" unicode="&#x156;" horiz-adv-x="690" 
d="M103 106l46 494q-38 0 -64 7q-3 36 6 97q116 15 276 15q118 0 189 -48t71 -143q0 -75 -44 -132t-113 -80q32 -74 69.5 -134.5t58.5 -77.5l53 6q0 -23 -9 -54.5t-20 -49.5q-56 -17 -130 -22q-25 20 -75.5 117.5t-81.5 190.5q-40 0 -68 7l-14 -193q39 -3 71 -14
q3 -16 1.5 -46t-5.5 -46h-314q9 55 28 90q19 8 69 16zM292 619l-17 -227q27 -6 77 -6q52 0 89.5 32t37.5 89q0 55 -36 85.5t-96 30.5q-25 0 -55 -4zM292 -152l-51 11q21 55 52 88q24 6 52 6q49 0 92 -16q-14 -59 -57 -144.5t-80 -134.5q-48 13 -69 34q46 92 61 156z" />
    <glyph glyph-name="rcommaaccent" unicode="&#x157;" horiz-adv-x="392" 
d="M374 493q10 -28 10 -66q0 -44 -11 -71q-31 18 -71 18q-70 0 -106 -81l-27 -289q-37 -7 -84 -7q-42 0 -64 7l51 381l-70 -6q0 16 8 47t17 40q44 28 107 28q29 0 56 -9l-11 -106h15q33 121 131 121q28 0 49 -7zM16 -154l-49 10q24 57 51 86q21 6 50 6q51 0 90 -13
q-16 -56 -57 -138t-74 -129q-35 10 -65 34q36 82 54 144z" />
    <glyph glyph-name="Rcaron" unicode="&#x158;" horiz-adv-x="690" 
d="M103 106l46 494q-38 0 -64 7q-3 36 6 97q116 15 276 15q118 0 189 -48t71 -143q0 -75 -44 -132t-113 -80q32 -74 69.5 -134.5t58.5 -77.5l53 6q0 -23 -9 -54.5t-20 -49.5q-56 -17 -130 -22q-25 20 -75.5 117.5t-81.5 190.5q-40 0 -68 7l-14 -193q39 -3 71 -14
q3 -16 1.5 -46t-5.5 -46h-314q9 55 28 90q19 8 69 16zM292 619l-17 -227q27 -6 77 -6q52 0 89.5 32t37.5 89q0 55 -36 85.5t-96 30.5q-25 0 -55 -4zM434 761h-134l-142 124q14 16 46 30.5t59 18.5l130 -76l144 72q16 -6 34.5 -22.5t28.5 -31.5z" />
    <glyph glyph-name="rcaron" unicode="&#x159;" horiz-adv-x="392" 
d="M374 493q10 -28 10 -66q0 -44 -11 -71q-31 18 -71 18q-70 0 -106 -81l-27 -289q-37 -7 -84 -7q-42 0 -64 7l51 381l-70 -6q0 16 8 47t17 40q44 28 107 28q29 0 56 -9l-11 -106h15q33 121 131 121q28 0 49 -7zM305 558l-109 -5l-119 167q14 14 42 25t49 13l105 -97l132 98
q17 -5 39 -19.5t33 -27.5z" />
    <glyph glyph-name="Sacute" unicode="&#x15a;" horiz-adv-x="578" 
d="M404 540l8 82q-31 16 -64 16q-49 0 -78.5 -25.5t-29.5 -64.5q0 -36 30.5 -63t73.5 -48t86 -45.5t73.5 -66.5t30.5 -100q0 -66 -23.5 -114.5t-66 -76.5t-94 -41t-114.5 -13q-121 0 -212 37q10 110 35 198q72 0 121 -18l-9 -104q54 -21 99 -21q55 0 87.5 27t32.5 78
q0 37 -30 64t-72.5 46.5t-85.5 43.5t-73 68t-30 106q0 104 68 164t189 60q104 0 198 -35q-8 -91 -38 -179q-62 0 -112 25zM582 851l-296 -100q-13 46 -7 94l239 114q19 -16 37.5 -48.5t26.5 -59.5z" />
    <glyph glyph-name="sacute" unicode="&#x15b;" horiz-adv-x="446" 
d="M264 364l4 42q-13 8 -31 8q-19 0 -33 -12.5t-14 -32.5q0 -18 20 -34.5t49 -32t57.5 -34t48.5 -49t20 -69.5q0 -83 -64 -125t-155 -42q-164 0 -170 110q15 23 55.5 38t79.5 15q2 -35 18.5 -54.5t39.5 -19.5q21 0 37.5 14.5t16.5 37.5q0 19 -19.5 34.5t-47.5 30t-55.5 33
t-47 51t-19.5 76.5q0 66 54 108.5t144 42.5q72 0 148 -34q-2 -65 -27 -130q-28 0 -60 8.5t-49 19.5zM433 725l-205 -180q-18 7 -37.5 24t-27.5 32l141 169q30 0 72 -13.5t57 -31.5z" />
    <glyph glyph-name="Scircumflex" unicode="&#x15c;" horiz-adv-x="578" 
d="M404 540l8 82q-31 16 -64 16q-49 0 -78.5 -25.5t-29.5 -64.5q0 -36 30.5 -63t73.5 -48t86 -45.5t73.5 -66.5t30.5 -100q0 -66 -23.5 -114.5t-66 -76.5t-94 -41t-114.5 -13q-121 0 -212 37q10 110 35 198q72 0 121 -18l-9 -104q54 -21 99 -21q55 0 87.5 27t32.5 78
q0 37 -30 64t-72.5 46.5t-85.5 43.5t-73 68t-30 106q0 104 68 164t189 60q104 0 198 -35q-8 -91 -38 -179q-62 0 -112 25zM304 940h130l140 -108q-8 -20 -27 -44.5t-35 -34.5l-159 81l-190 -85q-18 33 -18 90z" />
    <glyph glyph-name="scircumflex" unicode="&#x15d;" horiz-adv-x="446" 
d="M264 364l4 42q-13 8 -31 8q-19 0 -33 -12.5t-14 -32.5q0 -18 20 -34.5t49 -32t57.5 -34t48.5 -49t20 -69.5q0 -83 -64 -125t-155 -42q-164 0 -170 110q15 23 55.5 38t79.5 15q2 -35 18.5 -54.5t39.5 -19.5q21 0 37.5 14.5t16.5 37.5q0 19 -19.5 34.5t-47.5 30t-55.5 33
t-47 51t-19.5 76.5q0 66 54 108.5t144 42.5q72 0 148 -34q-2 -65 -27 -130q-28 0 -60 8.5t-49 19.5zM217 756l102 6l114 -155q-11 -17 -32.5 -33t-40.5 -22l-102 105l-141 -107q-12 12 -22.5 37.5t-12.5 45.5z" />
    <glyph glyph-name="Scedilla" unicode="&#x15e;" horiz-adv-x="578" 
d="M176 -94l38 75q-110 4 -190 36q10 110 35 198q72 0 121 -18l-9 -104q54 -21 99 -21q55 0 87.5 27t32.5 78q0 37 -30 64t-72.5 46.5t-85.5 43.5t-73 68t-30 106q0 104 68 164t189 60q104 0 198 -35q-8 -91 -38 -179q-62 0 -112 25l8 82q-31 16 -64 16q-49 0 -78.5 -25.5
t-29.5 -64.5q0 -36 30.5 -63t73.5 -48t86 -45.5t73.5 -66.5t30.5 -100q0 -106 -58 -164t-156 -74l-12 -42q26 -5 45 -25t19 -52q0 -58 -52 -94t-119 -43q-33 22 -47 65q75 11 75 62q0 37 -53 48z" />
    <glyph glyph-name="scedilla" unicode="&#x15f;" horiz-adv-x="446" 
d="M102 -80l37 64q-137 10 -143 109q15 23 55.5 38t79.5 15q2 -35 18.5 -54.5t39.5 -19.5q21 0 37.5 14.5t16.5 37.5q0 19 -19.5 34.5t-47.5 30t-55.5 33t-47 51t-19.5 76.5q0 66 54 108.5t144 42.5q72 0 148 -34q-2 -65 -27 -130q-28 0 -60 8.5t-49 19.5l4 42q-13 8 -31 8
q-19 0 -33 -12.5t-14 -32.5q0 -18 20 -34.5t49 -32t57.5 -34t48.5 -49t20 -69.5q0 -67 -42.5 -107t-110.5 -53l-14 -44q24 -5 40.5 -22.5t16.5 -44.5q0 -46 -48 -78.5t-106 -37.5q-31 21 -43 61q31 4 53 18.5t22 36.5q0 32 -51 41z" />
    <glyph glyph-name="Scaron" unicode="&#x160;" horiz-adv-x="578" 
d="M404 540l8 82q-31 16 -64 16q-49 0 -78.5 -25.5t-29.5 -64.5q0 -36 30.5 -63t73.5 -48t86 -45.5t73.5 -66.5t30.5 -100q0 -66 -23.5 -114.5t-66 -76.5t-94 -41t-114.5 -13q-121 0 -212 37q10 110 35 198q72 0 121 -18l-9 -104q54 -21 99 -21q55 0 87.5 27t32.5 78
q0 37 -30 64t-72.5 46.5t-85.5 43.5t-73 68t-30 106q0 104 68 164t189 60q104 0 198 -35q-8 -91 -38 -179q-62 0 -112 25zM407 761h-134l-142 124q14 16 46 30.5t59 18.5l130 -76l144 72q16 -6 34.5 -22.5t28.5 -31.5z" />
    <glyph glyph-name="scaron" unicode="&#x161;" horiz-adv-x="446" 
d="M264 364l4 42q-13 8 -31 8q-19 0 -33 -12.5t-14 -32.5q0 -18 20 -34.5t49 -32t57.5 -34t48.5 -49t20 -69.5q0 -83 -64 -125t-155 -42q-164 0 -170 110q15 23 55.5 38t79.5 15q2 -35 18.5 -54.5t39.5 -19.5q21 0 37.5 14.5t16.5 37.5q0 19 -19.5 34.5t-47.5 30t-55.5 33
t-47 51t-19.5 76.5q0 66 54 108.5t144 42.5q72 0 148 -34q-2 -65 -27 -130q-28 0 -60 8.5t-49 19.5zM294 558l-109 -5l-119 167q14 14 42 25t49 13l105 -97l132 98q17 -5 39 -19.5t33 -27.5z" />
    <glyph glyph-name="Tcommaaccent" unicode="&#x162;" horiz-adv-x="617" 
d="M415 615l-37 -509q53 -3 95 -14q4 -17 3 -46.5t-5 -45.5h-359q5 44 30 89q38 11 83 17l45 509h-102q-9 -46 -21 -81q-42 -14 -114 -14l16 189h608l-16 -192q-69 0 -114 14q-8 43 -6 84h-106zM227 -152l-51 11q21 55 52 88q24 6 52 6q49 0 92 -16q-14 -59 -57 -144.5
t-80 -134.5q-48 13 -69 34q46 92 61 156z" />
    <glyph glyph-name="tcommaaccent" unicode="&#x163;" horiz-adv-x="375" 
d="M83 494l31 106q19 10 56.5 18t65.5 8l-17 -143h135q6 -48 -4 -99h-144l-22 -217q-4 -36 6.5 -52t43.5 -16q37 0 93 18q0 -23 -9.5 -54t-23.5 -49q-65 -31 -126 -31q-133 0 -133 127q0 77 36 274h-77q7 51 29 90q30 14 60 20zM92 -154l-49 10q24 57 51 86q21 6 50 6
q51 0 90 -13q-16 -56 -57 -138t-74 -129q-35 10 -65 34q36 82 54 144z" />
    <glyph glyph-name="Tcaron" unicode="&#x164;" horiz-adv-x="617" 
d="M415 615l-37 -509q53 -3 95 -14q4 -17 3 -46.5t-5 -45.5h-359q5 44 30 89q38 11 83 17l45 509h-102q-9 -46 -21 -81q-42 -14 -114 -14l16 189h608l-16 -192q-69 0 -114 14q-8 43 -6 84h-106zM425 761h-134l-142 124q14 16 46 30.5t59 18.5l130 -76l144 72
q16 -6 34.5 -22.5t28.5 -31.5z" />
    <glyph glyph-name="tcaron" unicode="&#x165;" horiz-adv-x="375" 
d="M367 684l-43 10q17 45 49 81q20 5 47 5q47 0 85 -15q-16 -55 -51.5 -123t-70.5 -114q-14 4 -34 14.5t-29 18.5q27 49 47 123zM83 494l31 106q19 10 56.5 18t65.5 8l-17 -143h135q6 -48 -4 -99h-144l-22 -217q-4 -36 6.5 -52t43.5 -16q37 0 93 18q0 -23 -9.5 -54
t-23.5 -49q-65 -31 -126 -31q-133 0 -133 127q0 77 36 274h-77q7 51 29 90q30 14 60 20z" />
    <glyph glyph-name="Tbar" unicode="&#x166;" horiz-adv-x="629" 
d="M516 311h-117l-15 -205q53 -3 95 -14q4 -17 3 -46.5t-5 -45.5h-359q5 44 30 89q38 11 83 17l18 205h-122q5 54 21 93h109l19 211h-102q-9 -46 -21 -81q-42 -14 -114 -14l16 189h608l-16 -192q-69 0 -114 14q-8 43 -6 84h-106l-16 -211h118q5 -43 -7 -93z" />
    <glyph glyph-name="tbar" unicode="&#x167;" horiz-adv-x="389" 
d="M317 207h-122l-4 -40q-4 -36 6.5 -52t43.5 -16q37 0 93 18q0 -23 -9.5 -54t-23.5 -49q-65 -31 -126 -31q-133 0 -133 127q0 31 8 97h-63q5 44 20 85h55q3 19 9 53.5t7 38.5h-77q7 51 29 90q30 14 60 20l31 106q19 10 56.5 18t65.5 8l-17 -143h135q6 -48 -4 -99h-144
l-10 -92h121q4 -44 -7 -85z" />
    <glyph glyph-name="Utilde" unicode="&#x168;" horiz-adv-x="717" 
d="M258 606l-24 -331q-1 -12 -1 -35q0 -159 126 -159q77 0 117.5 52t48.5 142l28 330q-36 4 -59 12q-5 56 7 92h238q2 -15 -1.5 -46t-8.5 -46q-24 -9 -61 -11l-24 -324q-11 -141 -89 -221.5t-230 -80.5q-125 0 -185 59.5t-60 180.5q0 15 2 47l29 341q-40 4 -63 11
q-6 47 -1 90h289q2 -15 -1.5 -46t-8.5 -46q-31 -9 -68 -11zM580 926q44 0 81 -20q-8 -58 -51 -100t-118 -42q-38 0 -84 23.5t-77 23.5q-20 0 -36 -14t-22 -30q-45 7 -74 51q15 49 56 80.5t103 31.5q43 0 88.5 -22.5t74.5 -22.5q41 0 59 41z" />
    <glyph glyph-name="utilde" unicode="&#x169;" horiz-adv-x="566" 
d="M225 485q-36 -266 -36 -338q0 -62 40 -62q47 0 87 57l33 243l-62 -5q0 16 8 46.5t17 39.5q47 28 123 28q29 0 60 -9l-36 -374q0 -9 4 -17l69 7q0 -18 -8.5 -46t-18.5 -44q-25 -10 -73.5 -19t-79.5 -9q-20 35 -26 86h-9q-49 -86 -149 -86q-53 0 -89.5 32.5t-36.5 105.5
q0 68 38 264l-70 -6q0 16 8 47t17 40q48 28 128 28q30 0 62 -9zM410 724q52 0 79 -17q-8 -53 -48 -93t-103 -40q-33 0 -71.5 21.5t-61.5 21.5q-37 0 -52 -38q-20 3 -39 15t-26 28q12 47 47.5 77t91.5 30q37 0 73 -21t58 -21q34 0 52 37z" />
    <glyph glyph-name="Umacron" unicode="&#x16a;" horiz-adv-x="717" 
d="M258 606l-24 -331q-1 -12 -1 -35q0 -159 126 -159q77 0 117.5 52t48.5 142l28 330q-36 4 -59 12q-5 56 7 92h238q2 -15 -1.5 -46t-8.5 -46q-24 -9 -61 -11l-24 -324q-11 -141 -89 -221.5t-230 -80.5q-125 0 -185 59.5t-60 180.5q0 15 2 47l29 341q-40 4 -63 11
q-6 47 -1 90h289q2 -15 -1.5 -46t-8.5 -46q-31 -9 -68 -11zM627 788h-413q5 60 25 112h397q6 -57 -9 -112z" />
    <glyph glyph-name="umacron" unicode="&#x16b;" horiz-adv-x="566" 
d="M225 485q-36 -266 -36 -338q0 -62 40 -62q47 0 87 57l33 243l-62 -5q0 16 8 46.5t17 39.5q47 28 123 28q29 0 60 -9l-36 -374q0 -9 4 -17l69 7q0 -18 -8.5 -46t-18.5 -44q-25 -10 -73.5 -19t-79.5 -9q-20 35 -26 86h-9q-49 -86 -149 -86q-53 0 -89.5 32.5t-36.5 105.5
q0 68 38 264l-70 -6q0 16 8 47t17 40q48 28 128 28q30 0 62 -9zM460 597h-328q5 57 23 102h313q6 -50 -8 -102z" />
    <glyph glyph-name="Ubreve" unicode="&#x16c;" horiz-adv-x="717" 
d="M258 606l-24 -331q-1 -12 -1 -35q0 -159 126 -159q77 0 117.5 52t48.5 142l28 330q-36 4 -59 12q-5 56 7 92h238q2 -15 -1.5 -46t-8.5 -46q-24 -9 -61 -11l-24 -324q-11 -141 -89 -221.5t-230 -80.5q-125 0 -185 59.5t-60 180.5q0 15 2 47l29 341q-40 4 -63 11
q-6 47 -1 90h289q2 -15 -1.5 -46t-8.5 -46q-31 -9 -68 -11zM321 953q15 -78 106 -78q92 0 131 71q45 0 85 -28q-19 -72 -80.5 -115t-154.5 -43q-85 0 -133.5 39.5t-54.5 110.5q13 15 43 27.5t58 15.5z" />
    <glyph glyph-name="ubreve" unicode="&#x16d;" horiz-adv-x="566" 
d="M225 485q-36 -266 -36 -338q0 -62 40 -62q47 0 87 57l33 243l-62 -5q0 16 8 46.5t17 39.5q47 28 123 28q29 0 60 -9l-36 -374q0 -9 4 -17l69 7q0 -18 -8.5 -46t-18.5 -44q-25 -10 -73.5 -19t-79.5 -9q-20 35 -26 86h-9q-49 -86 -149 -86q-53 0 -89.5 32.5t-36.5 105.5
q0 68 38 264l-70 -6q0 16 8 47t17 40q48 28 128 28q30 0 62 -9zM219 751q6 -91 81 -91q67 0 104 86q54 -4 83 -25q-22 -76 -74.5 -120.5t-128.5 -44.5q-73 0 -111 41.5t-40 116.5q28 28 86 37z" />
    <glyph glyph-name="Uring" unicode="&#x16e;" horiz-adv-x="717" 
d="M258 606l-24 -331q-1 -12 -1 -35q0 -159 126 -159q77 0 117.5 52t48.5 142l28 330q-36 4 -59 12q-5 56 7 92h238q2 -15 -1.5 -46t-8.5 -46q-24 -9 -61 -11l-24 -324q-11 -141 -89 -221.5t-230 -80.5q-125 0 -185 59.5t-60 180.5q0 15 2 47l29 341q-40 4 -63 11
q-6 47 -1 90h289q2 -15 -1.5 -46t-8.5 -46q-31 -9 -68 -11zM447 985q122 0 122 -102q0 -62 -43.5 -97t-113.5 -35q-59 0 -90 26t-31 76q0 60 42 96t114 36zM436 913q-26 0 -42 -14t-16 -36q0 -40 45 -40q25 0 42 14t17 37q0 19 -13 29t-33 10z" />
    <glyph glyph-name="uring" unicode="&#x16f;" horiz-adv-x="566" 
d="M225 485q-36 -266 -36 -338q0 -62 40 -62q47 0 87 57l33 243l-62 -5q0 16 8 46.5t17 39.5q47 28 123 28q29 0 60 -9l-36 -374q0 -9 4 -17l69 7q0 -18 -8.5 -46t-18.5 -44q-25 -10 -73.5 -19t-79.5 -9q-20 35 -26 86h-9q-49 -86 -149 -86q-53 0 -89.5 32.5t-36.5 105.5
q0 68 38 264l-70 -6q0 16 8 47t17 40q48 28 128 28q30 0 62 -9zM331 790q103 0 103 -98q0 -60 -38.5 -96.5t-102.5 -36.5q-102 0 -102 96q0 60 37.5 97.5t102.5 37.5zM324 727q-27 0 -42.5 -18t-15.5 -46q0 -40 36 -40q26 0 41.5 17.5t15.5 47.5q0 39 -35 39z" />
    <glyph glyph-name="Uhungarumlaut" unicode="&#x170;" horiz-adv-x="717" 
d="M258 606l-24 -331q-1 -12 -1 -35q0 -159 126 -159q77 0 117.5 52t48.5 142l28 330q-36 4 -59 12q-5 56 7 92h238q2 -15 -1.5 -46t-8.5 -46q-24 -9 -61 -11l-24 -324q-11 -141 -89 -221.5t-230 -80.5q-125 0 -185 59.5t-60 180.5q0 15 2 47l29 341q-40 4 -63 11
q-6 47 -1 90h289q2 -15 -1.5 -46t-8.5 -46q-31 -9 -68 -11zM519 916l-241 -175q-34 26 -48 79l172 162q30 -4 64 -24t53 -42zM809 916l-241 -175q-34 26 -48 79l172 162q30 -4 64 -24t53 -42z" />
    <glyph glyph-name="uhungarumlaut" unicode="&#x171;" horiz-adv-x="566" 
d="M225 485q-36 -266 -36 -338q0 -62 40 -62q47 0 87 57l33 243l-62 -5q0 16 8 46.5t17 39.5q47 28 123 28q29 0 60 -9l-36 -374q0 -9 4 -17l69 7q0 -18 -8.5 -46t-18.5 -44q-25 -10 -73.5 -19t-79.5 -9q-20 35 -26 86h-9q-49 -86 -149 -86q-53 0 -89.5 32.5t-36.5 105.5
q0 68 38 264l-70 -6q0 16 8 47t17 40q48 28 128 28q30 0 62 -9zM363 725l-172 -187q-19 6 -37.5 24t-26.5 35l116 171q27 0 66 -13.5t54 -29.5zM588 725l-172 -187q-19 6 -37.5 24t-26.5 35l116 171q27 0 66 -13.5t54 -29.5z" />
    <glyph glyph-name="Uogonek" unicode="&#x172;" horiz-adv-x="717" 
d="M431 -148q14 -32 14 -82q-36 -15 -89 -15q-57 0 -96 27.5t-39 78.5q0 86 85 110v9h-6q-105 0 -162.5 62t-57.5 178q0 15 2 47l29 341q-40 4 -63 11q-6 47 -1 90h289q2 -15 -1.5 -46t-8.5 -46q-31 -9 -68 -11l-24 -331q-1 -12 -1 -35q0 -159 126 -159q77 0 117.5 52
t48.5 142l28 330q-36 4 -59 12q-5 56 7 92h238q2 -15 -1.5 -46t-8.5 -46q-24 -9 -61 -11l-24 -324q-15 -201 -149 -267q-73 -36 -105.5 -63t-32.5 -65q0 -39 45 -39q11 0 29 4z" />
    <glyph glyph-name="uogonek" unicode="&#x173;" horiz-adv-x="566" 
d="M225 485q-36 -266 -36 -338q0 -62 40 -62q47 0 87 57l33 243l-62 -5q0 16 8 46.5t17 39.5q47 28 123 28q29 0 60 -9l-36 -374q0 -9 4 -17l69 7q0 -18 -8.5 -46t-18.5 -44q-109 -48 -109 -113q0 -36 40 -36q13 0 25 4q13 -30 13 -73q-32 -15 -81 -15t-82.5 24.5
t-33.5 71.5q0 72 75 106v9q-20 26 -26 80h-9q-49 -86 -149 -86q-53 0 -89.5 32.5t-36.5 105.5q0 68 38 264l-70 -6q0 16 8 47t17 40q48 28 128 28q30 0 62 -9z" />
    <glyph glyph-name="Wcircumflex" unicode="&#x174;" horiz-adv-x="1007" 
d="M301 127h11q8 101 38 190l140 401h137l55 -382q9 -62 9 -201h12q13 109 40 182l70 184q23 63 51 105q-28 2 -55 10q-10 38 -10 93h245q-6 -58 -23 -96q-24 -6 -51 -8l-247 -616h-128l-54 414q-8 69 -8 172h-12q-9 -97 -33 -168l-145 -419h-142l-114 618q-26 3 -48 12
q-9 38 -9 91h290q-6 -52 -25 -96q-26 -8 -66 -8q20 -41 30 -104l27 -173q15 -92 15 -201zM510 940h130l140 -108q-8 -20 -27 -44.5t-35 -34.5l-159 81l-190 -85q-18 33 -18 90z" />
    <glyph glyph-name="wcircumflex" unicode="&#x175;" horiz-adv-x="814" 
d="M571 103q57 144 95 276q0 7 -4 17l-63 -5q2 22 11 50t20 39q18 7 57.5 13.5t59.5 6.5q13 -10 31 -45t18 -53q-77 -193 -201 -427l-152 23l-34 372h-12q-55 -195 -129 -395l-166 23l-50 389l-61 -6q0 16 7 47.5t15 41.5q51 24 109 24q32 0 60 -9l24 -253q5 -47 5 -129h12
q62 201 105 380l189 13l33 -260q9 -68 9 -133h12zM397 756l102 6l114 -155q-11 -17 -32.5 -33t-40.5 -22l-102 105l-141 -107q-12 12 -22.5 37.5t-12.5 45.5z" />
    <glyph glyph-name="Ycircumflex" unicode="&#x176;" horiz-adv-x="642" 
d="M337 353h12q11 54 39 102l64 106q14 23 39 45q-29 4 -47 12q-9 45 -9 91h254q-6 -58 -23 -96q-25 -6 -52 -8l-227 -339l-11 -160q53 -3 95 -14q4 -17 3 -46.5t-6 -45.5h-357q5 42 31 89q36 11 83 17l14 155l-151 345q-26 3 -48 12q-9 36 -7 91h297q-5 -41 -24 -96
q-21 -6 -59 -8q16 -14 30 -51l38 -98q21 -52 22 -103zM326 940h130l140 -108q-8 -20 -27 -44.5t-35 -34.5l-159 81l-190 -85q-18 33 -18 90z" />
    <glyph glyph-name="ycircumflex" unicode="&#x177;" horiz-adv-x="489" 
d="M37 392l-61 -4q0 15 8 46.5t16 41.5q45 21 107 21q27 0 55 -10l56 -256q14 -65 16 -128h12q42 107 89 271q0 7 -4 17l-68 -4q2 22 12 49.5t21 38.5q21 8 65.5 13.5t70.5 5.5q12 -10 27 -45.5t15 -53.5q-48 -126 -117 -261.5t-117 -193.5q-112 -132 -230 -181
q-15 20 -28.5 60t-13.5 67q116 34 175 101zM246 756l102 6l114 -155q-11 -17 -32.5 -33t-40.5 -22l-102 105l-141 -107q-12 12 -22.5 37.5t-12.5 45.5z" />
    <glyph glyph-name="Ydieresis" unicode="&#x178;" horiz-adv-x="642" 
d="M337 353h12q11 54 39 102l64 106q14 23 39 45q-29 4 -47 12q-9 45 -9 91h254q-6 -58 -23 -96q-25 -6 -52 -8l-227 -339l-11 -160q53 -3 95 -14q4 -17 3 -46.5t-6 -45.5h-357q5 42 31 89q36 11 83 17l14 155l-151 345q-26 3 -48 12q-9 36 -7 91h297q-5 -41 -24 -96
q-21 -6 -59 -8q16 -14 30 -51l38 -98q21 -52 22 -103zM221 923q37 0 60 -21t23 -57q0 -39 -23.5 -61t-59.5 -22q-85 0 -85 83q0 34 24.5 56t60.5 22zM530 923q37 0 60 -21t23 -57q0 -39 -23.5 -61t-59.5 -22q-85 0 -85 83q0 34 24.5 56t60.5 22z" />
    <glyph glyph-name="Zacute" unicode="&#x179;" horiz-adv-x="616" 
d="M10 0l6 89l386 513v12h-186q-12 -62 -22 -94q-58 -13 -122 -13l18 202h507l-8 -89l-375 -510v-12h204q7 33 26 98q44 18 120 18l-18 -214h-536zM586 851l-296 -100q-13 46 -7 94l239 114q19 -16 37.5 -48.5t26.5 -59.5z" />
    <glyph glyph-name="zacute" unicode="&#x17a;" horiz-adv-x="485" 
d="M11 0l-6 66l257 318v12h-89q-12 -36 -31 -67q-68 0 -108 18l21 136h390l6 -68l-258 -318v-12q45 1 111 7q10 36 26 66q62 12 114 0l-30 -158h-403zM451 725l-205 -180q-18 7 -37.5 24t-27.5 32l141 169q30 0 72 -13.5t57 -31.5z" />
    <glyph glyph-name="Zdotaccent" unicode="&#x17b;" horiz-adv-x="616" 
d="M10 0l6 89l386 513v12h-186q-12 -62 -22 -94q-58 -13 -122 -13l18 202h507l-8 -89l-375 -510v-12h204q7 33 26 98q44 18 120 18l-18 -214h-536zM366 925q38 0 61.5 -21.5t23.5 -58.5q0 -40 -24 -63t-61 -23q-88 0 -88 86q0 34 25 57t63 23z" />
    <glyph glyph-name="zdotaccent" unicode="&#x17c;" horiz-adv-x="485" 
d="M11 0l-6 66l257 318v12h-89q-12 -36 -31 -67q-68 0 -108 18l21 136h390l6 -68l-258 -318v-12q45 1 111 7q10 36 26 66q62 12 114 0l-30 -158h-403zM273 731q36 0 57 -21t21 -58q0 -40 -21.5 -62.5t-56.5 -22.5q-79 0 -79 85q0 34 22.5 56.5t56.5 22.5z" />
    <glyph glyph-name="Zcaron" unicode="&#x17d;" horiz-adv-x="616" 
d="M10 0l6 89l386 513v12h-186q-12 -62 -22 -94q-58 -13 -122 -13l18 202h507l-8 -89l-375 -510v-12h204q7 33 26 98q44 18 120 18l-18 -214h-536zM415 761h-134l-142 124q14 16 46 30.5t59 18.5l130 -76l144 72q16 -6 34.5 -22.5t28.5 -31.5z" />
    <glyph glyph-name="zcaron" unicode="&#x17e;" horiz-adv-x="485" 
d="M11 0l-6 66l257 318v12h-89q-12 -36 -31 -67q-68 0 -108 18l21 136h390l6 -68l-258 -318v-12q45 1 111 7q10 36 26 66q62 12 114 0l-30 -158h-403zM313 558l-109 -5l-119 167q14 14 42 25t49 13l105 -97l132 98q17 -5 39 -19.5t33 -27.5z" />
    <glyph glyph-name="florin" unicode="&#x192;" horiz-adv-x="632" 
d="M500 191h-136l-23 -152q-16 -106 -82 -155t-154 -49q-72 0 -132 26q9 74 45 160q52 -7 99 -28l-8 -61q10 -5 27 -5q43 0 61 101l30 163h-114q3 45 20 90h110l14 77q18 102 84 153t150 51q76 0 126 -26q-13 -71 -48 -149q-23 2 -52.5 11.5t-42.5 19.5l9 45q-14 7 -26 7
q-52 0 -66 -101l-12 -88h129q4 -50 -8 -90z" />
    <glyph glyph-name="Aringacute" unicode="&#x1fa;" horiz-adv-x="755" 
d="M630 1054l-296 -100q-13 46 -7 94l239 114q19 -16 37.5 -48.5t26.5 -59.5zM458 938q122 0 122 -102q0 -47 -26 -79t-71 -45l181 -604q31 -6 51 -15q8 -36 8 -93h-304q7 44 32 91q26 9 62 16q-13 19 -27 66l-8 28h-237l-13 -33q-15 -35 -36 -65q36 -3 65 -12
q12 -46 12 -91h-284q8 39 32 90q21 10 49 15l303 606q-67 20 -67 95q0 60 42 96t114 36zM401 573h-12q-9 -61 -45 -143l-60 -136h172l-35 136q-20 75 -20 143zM447 866q-26 0 -42 -14t-16 -36q0 -40 45 -40q25 0 42 14t17 37q0 19 -13 29t-33 10z" />
    <glyph glyph-name="aringacute" unicode="&#x1fb;" horiz-adv-x="539" 
d="M468 988l-205 -180q-18 7 -37.5 24t-27.5 32l141 169q30 0 72 -13.5t57 -31.5zM297 64h-9q-45 -81 -137 -81q-63 0 -101.5 47t-38.5 143q0 130 74 225q80 102 218 102q90 0 167 -52l-40 -337q0 -9 4 -17l70 7q0 -18 -8.5 -46t-18.5 -44q-25 -10 -74 -19t-80 -9
q-20 35 -26 81zM288 138l39 268q-13 4 -34 4q-56 0 -97 -61q-40 -60 -40 -166q0 -94 50 -94q45 0 82 49zM322 790q103 0 103 -98q0 -60 -38.5 -96.5t-102.5 -36.5q-102 0 -102 96q0 60 37.5 97.5t102.5 37.5zM315 727q-27 0 -42.5 -18t-15.5 -46q0 -40 36 -40
q26 0 41.5 17.5t15.5 47.5q0 39 -35 39z" />
    <glyph glyph-name="AEacute" unicode="&#x1fc;" horiz-adv-x="999" 
d="M975 709l-17 -181q-66 0 -109 15q-5 30 -5 72h-194l-14 -207h155q2 12 12 44q48 15 108 15l-14 -205q-64 -6 -107 8q-5 20 -5 46h-156l-17 -220h189q7 45 21 81q45 15 116 15l-15 -192h-558q6 52 27 90q23 9 68 16l12 130h-199l-45 -68q-20 -33 -52 -65q41 -4 66 -12
q13 -36 11 -91h-273q7 42 28 90q21 10 48 15l336 500q-47 4 -79 12q-5 61 5 92h657zM429 481l-101 -154h156l24 276h-13q-31 -69 -66 -122zM804 851l-296 -100q-13 46 -7 94l239 114q19 -16 37.5 -48.5t26.5 -59.5z" />
    <glyph glyph-name="aeacute" unicode="&#x1fd;" horiz-adv-x="756" 
d="M445 192v-13q0 -44 16 -62t50 -18q41 0 91 12.5t85 30.5q0 -50 -29 -100q-77 -59 -177 -59q-118 0 -157 80h-9q-55 -80 -154 -80q-65 0 -105 32t-40 97q0 85 61.5 135.5t149.5 50.5q46 0 88 -16q6 32 6 51q0 60 -74 60q-36 0 -85.5 -13t-81.5 -29q-3 11 -3 30q0 48 25 96
q29 11 85.5 19.5t102.5 8.5q92 0 134 -63h9q41 58 132 58q74 0 114 -34t40 -95q0 -160 -274 -179zM220 83q49 0 84 42q-3 23 -3 47q0 28 2 42q-32 5 -57 5q-39 0 -62.5 -22.5t-23.5 -57.5q0 -56 60 -56zM454 284q74 5 99.5 27.5t25.5 54.5q0 43 -33 43q-41 0 -69 -48
q-16 -29 -23 -77zM604 725l-205 -180q-18 7 -37.5 24t-27.5 32l141 169q30 0 72 -13.5t57 -31.5z" />
    <glyph glyph-name="Oslashacute" unicode="&#x1fe;" horiz-adv-x="761" 
d="M439 729q105 0 175 -53l78 82q22 -4 58 -21t53 -30l-117 -119q37 -77 37 -186q0 -189 -101.5 -305.5t-268.5 -116.5q-123 0 -192 66l-113 -118q-18 11 -44 38t-34 43l128 134q-25 69 -25 158q0 188 101 308t265 120zM568 400q0 40 -6 75l-306 -317q36 -79 116 -79
q89 0 142.5 93t53.5 228zM423 631q-62 0 -107 -47t-65.5 -119t-20.5 -157q0 -16 2 -46l298 308q-38 61 -107 61zM661 851l-296 -100q-13 46 -7 94l239 114q19 -16 37.5 -48.5t26.5 -59.5z" />
    <glyph glyph-name="oslashacute" unicode="&#x1ff;" horiz-adv-x="550" 
d="M224 -17q-60 0 -103 20l-69 -85q-23 22 -45 77l52 65q-31 49 -31 133q0 103 44 178q75 129 230 129q56 0 99 -20l64 77q17 -7 38.5 -23.5t31.5 -30.5l-68 -81q33 -52 33 -132q0 -113 -52 -192q-74 -115 -224 -115zM243 78q57 0 85 62q25 54 25 147v9l-158 -196
q16 -22 48 -22zM176 193v-5l157 197q-15 21 -44 21q-55 0 -85 -64q-28 -56 -28 -149zM496 725l-205 -180q-18 7 -37.5 24t-27.5 32l141 169q30 0 72 -13.5t57 -31.5z" />
    <glyph glyph-name="Scommaaccent" unicode="&#x218;" horiz-adv-x="578" 
d="M404 540l8 82q-31 16 -64 16q-49 0 -78.5 -25.5t-29.5 -64.5q0 -36 30.5 -63t73.5 -48t86 -45.5t73.5 -66.5t30.5 -100q0 -66 -23.5 -114.5t-66 -76.5t-94 -41t-114.5 -13q-121 0 -212 37q10 110 35 198q72 0 121 -18l-9 -104q54 -21 99 -21q55 0 87.5 27t32.5 78
q0 37 -30 64t-72.5 46.5t-85.5 43.5t-73 68t-30 106q0 104 68 164t189 60q104 0 198 -35q-8 -91 -38 -179q-62 0 -112 25zM217 -152l-51 11q21 55 52 88q24 6 52 6q49 0 92 -16q-14 -59 -57 -144.5t-80 -134.5q-48 13 -69 34q46 92 61 156z" />
    <glyph glyph-name="scommaaccent" unicode="&#x219;" horiz-adv-x="446" 
d="M264 364l4 42q-13 8 -31 8q-19 0 -33 -12.5t-14 -32.5q0 -18 20 -34.5t49 -32t57.5 -34t48.5 -49t20 -69.5q0 -83 -64 -125t-155 -42q-164 0 -170 110q15 23 55.5 38t79.5 15q2 -35 18.5 -54.5t39.5 -19.5q21 0 37.5 14.5t16.5 37.5q0 19 -19.5 34.5t-47.5 30t-55.5 33
t-47 51t-19.5 76.5q0 66 54 108.5t144 42.5q72 0 148 -34q-2 -65 -27 -130q-28 0 -60 8.5t-49 19.5zM125 -154l-49 10q24 57 51 86q21 6 50 6q51 0 90 -13q-16 -56 -57 -138t-74 -129q-35 10 -65 34q36 82 54 144z" />
    <glyph glyph-name="uni021B" unicode="&#x21b;" horiz-adv-x="375" 
d="M83 494l31 106q19 10 56.5 18t65.5 8l-17 -143h135q6 -48 -4 -99h-144l-22 -217q-4 -36 6.5 -52t43.5 -16q37 0 93 18q0 -23 -9.5 -54t-23.5 -49q-65 -31 -126 -31q-133 0 -133 127q0 77 36 274h-77q7 51 29 90q30 14 60 20zM92 -154l-49 10q24 57 51 86q21 6 50 6
q51 0 90 -13q-16 -56 -57 -138t-74 -129q-35 10 -65 34q36 82 54 144z" />
    <glyph glyph-name="circumflex" unicode="&#x2c6;" horiz-adv-x="530" 
d="M230 756l102 6l114 -155q-11 -17 -32.5 -33t-40.5 -22l-102 105l-141 -107q-12 12 -22.5 37.5t-12.5 45.5z" />
    <glyph glyph-name="caron" unicode="&#x2c7;" horiz-adv-x="530" 
d="M303 558l-109 -5l-119 167q14 14 42 25t49 13l105 -97l132 98q17 -5 39 -19.5t33 -27.5z" />
    <glyph glyph-name="breve" unicode="&#x2d8;" horiz-adv-x="530" 
d="M189 751q6 -91 81 -91q67 0 104 86q54 -4 83 -25q-22 -76 -74.5 -120.5t-128.5 -44.5q-73 0 -111 41.5t-40 116.5q28 28 86 37z" />
    <glyph glyph-name="dotaccent" unicode="&#x2d9;" horiz-adv-x="435" 
d="M220 731q36 0 57 -21t21 -58q0 -40 -21.5 -62.5t-56.5 -22.5q-79 0 -79 85q0 34 22.5 56.5t56.5 22.5z" />
    <glyph glyph-name="ring" unicode="&#x2da;" horiz-adv-x="435" 
d="M249 790q103 0 103 -98q0 -60 -38.5 -96.5t-102.5 -36.5q-102 0 -102 96q0 60 37.5 97.5t102.5 37.5zM242 727q-27 0 -42.5 -18t-15.5 -46q0 -40 36 -40q26 0 41.5 17.5t15.5 47.5q0 39 -35 39z" />
    <glyph glyph-name="ogonek" unicode="&#x2db;" horiz-adv-x="435" 
d="M344 10q-120 -52 -120 -112q0 -36 40 -36q13 0 25 4q13 -30 13 -73q-32 -15 -81 -15t-82.5 24.5t-33.5 71.5q0 42 30 77.5t89 54.5q32 4 120 4z" />
    <glyph glyph-name="tilde" unicode="&#x2dc;" horiz-adv-x="530" 
d="M394 724q52 0 79 -17q-8 -53 -48 -93t-103 -40q-33 0 -71.5 21.5t-61.5 21.5q-37 0 -52 -38q-20 3 -39 15t-26 28q12 47 47.5 77t91.5 30q37 0 73 -21t58 -21q34 0 52 37z" />
    <glyph glyph-name="hungarumlaut" unicode="&#x2dd;" horiz-adv-x="530" 
d="M279 725l-172 -187q-19 6 -37.5 24t-26.5 35l116 171q27 0 66 -13.5t54 -29.5zM504 725l-172 -187q-19 6 -37.5 24t-26.5 35l116 171q27 0 66 -13.5t54 -29.5z" />
    <glyph glyph-name="commaaboverightcmb" unicode="&#x315;" horiz-adv-x="435" 
d="M193 644l-43 10q17 45 49 81q20 5 47 5q47 0 85 -15q-16 -55 -57 -133.5t-76 -124.5q-14 4 -34 14.5t-29 18.5q37 68 58 144z" />
    <glyph glyph-name="pi" unicode="&#x3c0;" horiz-adv-x="611" 
d="M20 428q57 42 117 56t184 14q120 0 282 -9q8 -57 -10 -121q-50 4 -100 5q-29 -128 -29 -208q0 -36 7.5 -53.5t27.5 -17.5q26 0 44 9q-1 -25 -9.5 -58t-20.5 -49q-29 -13 -78 -13q-100 0 -100 155q0 95 35 240q-37 5 -80 5q-15 0 -39 -2q-8 -212 -78 -404q-87 7 -130 43
q72 170 80 350q-65 -9 -121 -53q-4 20 2 56t16 55z" />
    <glyph glyph-name="Wgrave" unicode="&#x1e80;" horiz-adv-x="1007" 
d="M301 127h11q8 101 38 190l140 401h137l55 -382q9 -62 9 -201h12q13 109 40 182l70 184q23 63 51 105q-28 2 -55 10q-10 38 -10 93h245q-6 -58 -23 -96q-24 -6 -51 -8l-247 -616h-128l-54 414q-8 69 -8 172h-12q-9 -97 -33 -168l-145 -419h-142l-114 618q-26 3 -48 12
q-9 38 -9 91h290q-6 -52 -25 -96q-26 -8 -66 -8q20 -41 30 -104l27 -173q15 -92 15 -201zM609 754l-271 108q18 24 53 53t62 39l200 -108q-4 -21 -17.5 -49t-26.5 -43z" />
    <glyph glyph-name="wgrave" unicode="&#x1e81;" horiz-adv-x="814" 
d="M571 103q57 144 95 276q0 7 -4 17l-63 -5q2 22 11 50t20 39q18 7 57.5 13.5t59.5 6.5q13 -10 31 -45t18 -53q-77 -193 -201 -427l-152 23l-34 372h-12q-55 -195 -129 -395l-166 23l-50 389l-61 -6q0 16 7 47.5t15 41.5q51 24 109 24q32 0 60 -9l24 -253q5 -47 5 -129h12
q62 201 105 380l189 13l33 -260q9 -68 9 -133h12zM432 553l-147 182q20 16 60.5 29t70.5 13l103 -192q-14 -12 -41.5 -22t-45.5 -10z" />
    <glyph glyph-name="Wacute" unicode="&#x1e82;" horiz-adv-x="1007" 
d="M301 127h11q8 101 38 190l140 401h137l55 -382q9 -62 9 -201h12q13 109 40 182l70 184q23 63 51 105q-28 2 -55 10q-10 38 -10 93h245q-6 -58 -23 -96q-24 -6 -51 -8l-247 -616h-128l-54 414q-8 69 -8 172h-12q-9 -97 -33 -168l-145 -419h-142l-114 618q-26 3 -48 12
q-9 38 -9 91h290q-6 -52 -25 -96q-26 -8 -66 -8q20 -41 30 -104l27 -173q15 -92 15 -201zM779 851l-296 -100q-13 46 -7 94l239 114q19 -16 37.5 -48.5t26.5 -59.5z" />
    <glyph glyph-name="wacute" unicode="&#x1e83;" horiz-adv-x="814" 
d="M571 103q57 144 95 276q0 7 -4 17l-63 -5q2 22 11 50t20 39q18 7 57.5 13.5t59.5 6.5q13 -10 31 -45t18 -53q-77 -193 -201 -427l-152 23l-34 372h-12q-55 -195 -129 -395l-166 23l-50 389l-61 -6q0 16 7 47.5t15 41.5q51 24 109 24q32 0 60 -9l24 -253q5 -47 5 -129h12
q62 201 105 380l189 13l33 -260q9 -68 9 -133h12zM604 725l-205 -180q-18 7 -37.5 24t-27.5 32l141 169q30 0 72 -13.5t57 -31.5z" />
    <glyph glyph-name="Wdieresis" unicode="&#x1e84;" horiz-adv-x="1007" 
d="M382 923q37 0 60 -21t23 -57q0 -39 -23.5 -61t-59.5 -22q-85 0 -85 83q0 34 24.5 56t60.5 22zM731 923q37 0 60 -21t23 -57q0 -39 -23.5 -61t-59.5 -22q-85 0 -85 83q0 34 24.5 56t60.5 22zM301 127h11q8 101 38 190l140 401h137l55 -382q9 -62 9 -201h12q13 109 40 182
l70 184q23 63 51 105q-28 2 -55 10q-10 38 -10 93h245q-6 -58 -23 -96q-24 -6 -51 -8l-247 -616h-128l-54 414q-8 69 -8 172h-12q-9 -97 -33 -168l-145 -419h-142l-114 618q-26 3 -48 12q-9 38 -9 91h290q-6 -52 -25 -96q-26 -8 -66 -8q20 -41 30 -104l27 -173
q15 -92 15 -201z" />
    <glyph glyph-name="wdieresis" unicode="&#x1e85;" horiz-adv-x="814" 
d="M288 727q34 0 54.5 -20t20.5 -56q0 -38 -21 -60t-54 -22q-76 0 -76 82q0 33 22 54.5t54 21.5zM582 727q34 0 54.5 -20t20.5 -56q0 -38 -21 -60t-54 -22q-76 0 -76 82q0 33 22 54.5t54 21.5zM571 103q57 144 95 276q0 7 -4 17l-63 -5q2 22 11 50t20 39q18 7 57.5 13.5
t59.5 6.5q13 -10 31 -45t18 -53q-77 -193 -201 -427l-152 23l-34 372h-12q-55 -195 -129 -395l-166 23l-50 389l-61 -6q0 16 7 47.5t15 41.5q51 24 109 24q32 0 60 -9l24 -253q5 -47 5 -129h12q62 201 105 380l189 13l33 -260q9 -68 9 -133h12z" />
    <glyph glyph-name="Ygrave" unicode="&#x1ef2;" horiz-adv-x="642" 
d="M337 353h12q11 54 39 102l64 106q14 23 39 45q-29 4 -47 12q-9 45 -9 91h254q-6 -58 -23 -96q-25 -6 -52 -8l-227 -339l-11 -160q53 -3 95 -14q4 -17 3 -46.5t-6 -45.5h-357q5 42 31 89q36 11 83 17l14 155l-151 345q-26 3 -48 12q-9 36 -7 91h297q-5 -41 -24 -96
q-21 -6 -59 -8q16 -14 30 -51l38 -98q21 -52 22 -103zM423 754l-271 108q18 24 53 53t62 39l200 -108q-4 -21 -17.5 -49t-26.5 -43z" />
    <glyph glyph-name="ygrave" unicode="&#x1ef3;" horiz-adv-x="489" 
d="M37 392l-61 -4q0 15 8 46.5t16 41.5q45 21 107 21q27 0 55 -10l56 -256q14 -65 16 -128h12q42 107 89 271q0 7 -4 17l-68 -4q2 22 12 49.5t21 38.5q21 8 65.5 13.5t70.5 5.5q12 -10 27 -45.5t15 -53.5q-48 -126 -117 -261.5t-117 -193.5q-112 -132 -230 -181
q-15 20 -28.5 60t-13.5 67q116 34 175 101zM288 553l-147 182q20 16 60.5 29t70.5 13l103 -192q-14 -12 -41.5 -22t-45.5 -10z" />
    <glyph glyph-name="endash" unicode="&#x2013;" horiz-adv-x="500" 
d="M440 225h-410q5 61 24 106h395q0 -3 0.5 -10.5t0.5 -11.5q0 -50 -10 -84z" />
    <glyph glyph-name="emdash" unicode="&#x2014;" horiz-adv-x="1000" 
d="M897 225h-847q5 61 24 106h832q0 -3 0.5 -10.5t0.5 -11.5q0 -50 -10 -84z" />
    <glyph glyph-name="quoteleft" unicode="&#x2018;" horiz-adv-x="258" 
d="M264 729q-72 -138 -98 -223l58 -14q-7 -20 -26.5 -49.5t-35.5 -43.5q-29 2 -69.5 16t-60.5 28q51 141 143 271q37 15 89 15z" />
    <glyph glyph-name="quoteright" unicode="&#x2019;" horiz-adv-x="280" 
d="M116 621l-56 13q25 64 57 95q26 7 55 7q46 0 95 -18q-21 -73 -69.5 -167t-90.5 -152q-41 12 -62 37q50 101 71 185z" />
    <glyph glyph-name="quotesinglbase" unicode="&#x201a;" horiz-adv-x="276" 
d="M70 14l-55 13q22 63 55 94q24 7 56 7q47 0 96 -17q-20 -73 -70 -171.5t-92 -155.5q-44 13 -64 37q50 106 74 193z" />
    <glyph glyph-name="quotereversed" unicode="&#x201b;" horiz-adv-x="265" 
d="M220 635l-56 -13q3 -96 26 -196q-31 -23 -81 -31q-26 57 -47 148t-26 171q52 20 110 20q21 0 39 -3q32 -42 35 -96z" />
    <glyph glyph-name="quotedblleft" unicode="&#x201c;" horiz-adv-x="494" 
d="M247 730q-71 -137 -98 -224l58 -14q-7 -19 -27 -49.5t-36 -45.5q-30 3 -68.5 17t-58.5 29q50 140 144 272q37 15 86 15zM479 730q-72 -135 -98 -224l58 -14q-7 -19 -27.5 -49.5t-36.5 -45.5q-30 3 -68.5 17t-58.5 29q51 138 144 272q37 15 87 15z" />
    <glyph glyph-name="quotedblright" unicode="&#x201d;" horiz-adv-x="471" 
d="M107 621l-56 13q25 64 57 95q24 7 55 7q47 0 93 -18q-21 -73 -69.5 -167t-90.5 -152q-39 11 -60 37q48 94 71 185zM330 621l-56 13q24 62 57 95q24 7 55 7q47 0 93 -18q-20 -73 -68.5 -167t-91.5 -152q-40 12 -59 37q49 97 70 185z" />
    <glyph glyph-name="quotedblbase" unicode="&#x201e;" horiz-adv-x="500" 
d="M67 14l-54 13q22 62 55 95q25 7 55 7q47 0 93 -18q-21 -74 -69.5 -170t-89.5 -153q-39 11 -60 37q50 106 70 189zM293 14l-55 13q26 66 56 95q24 7 54 7q48 0 94 -18q-21 -74 -70 -170.5t-90 -152.5q-39 12 -60 37q47 97 71 189z" />
    <glyph glyph-name="dagger" unicode="&#x2020;" horiz-adv-x="500" 
d="M472 389h-149l-73 -564q-20 -5 -50 -5q-28 0 -48 5l38 564h-143q5 55 23 101h127l12 200q68 20 152 20l-27 -220h146q6 -50 -8 -101z" />
    <glyph glyph-name="daggerdbl" unicode="&#x2021;" horiz-adv-x="500" 
d="M443 99h-156l-35 -273q-20 -5 -50 -5q-28 0 -48 5l18 273h-150q5 55 23 101h134l13 189h-143q5 55 23 101h127l12 199q68 20 152 20l-27 -219h143q6 -50 -8 -101h-146l-25 -189h151q6 -50 -8 -101z" />
    <glyph glyph-name="bullet" unicode="&#x2022;" horiz-adv-x="593" 
d="M297 398q69 0 112.5 -40.5t43.5 -110.5q0 -76 -43.5 -119.5t-112.5 -43.5q-76 0 -116 41.5t-40 121.5q0 67 43.5 109t112.5 42z" />
    <glyph glyph-name="ellipsis" unicode="&#x2026;" horiz-adv-x="939" 
d="M154 144q35 0 56 -20t21 -55q0 -39 -21 -60t-56 -21q-78 0 -78 81q0 34 21.5 54.5t56.5 20.5zM455 144q35 0 56 -20t21 -55q0 -39 -21 -60t-56 -21q-78 0 -78 81q0 34 21.5 54.5t56.5 20.5zM755 144q35 0 56 -20t21 -55q0 -39 -21 -60t-56 -21q-78 0 -78 81
q0 34 21.5 54.5t56.5 20.5z" />
    <glyph glyph-name="perthousand" unicode="&#x2030;" horiz-adv-x="1395" 
d="M762 546l-456 -595q-21 4 -51.5 24t-42.5 35l438 562q60 -2 112 -26zM247 562q74 0 113.5 -37t39.5 -109q0 -87 -56 -137.5t-148 -50.5q-152 0 -152 141q0 87 55.5 140t147.5 53zM232 476q-32 0 -50 -28t-18 -69q0 -66 48 -66q31 0 48.5 28t17.5 70q0 65 -46 65zM765 314
q74 0 113.5 -37t39.5 -109q0 -87 -56 -137.5t-148 -50.5q-152 0 -152 141q0 87 55.5 140t147.5 53zM750 228q-32 0 -50 -28t-18 -69q0 -66 48 -66q31 0 48.5 28t17.5 70q0 65 -46 65zM1180 314q74 0 113.5 -37t39.5 -109q0 -87 -56 -137.5t-148 -50.5q-152 0 -152 141
q0 87 55.5 140t147.5 53zM1165 228q-32 0 -50 -28t-18 -69q0 -66 48 -66q31 0 48.5 28t17.5 70q0 65 -46 65z" />
    <glyph glyph-name="guilsinglleft" unicode="&#x2039;" horiz-adv-x="360" 
d="M192 258q18 -99 59 -199q-58 -29 -125 -29q-65 129 -94 228q50 94 127 199q69 22 151 22q-69 -111 -118 -221z" />
    <glyph glyph-name="guilsinglright" unicode="&#x203a;" horiz-adv-x="353" 
d="M137 258q-21 94 -57 192q60 33 122 33q62 -118 94 -225q-51 -93 -151 -230q-56 4 -111 38q58 92 103 192z" />
    <glyph glyph-name="overline" unicode="&#x203e;" horiz-adv-x="500" 
d="M-4 734h518q4 -57 -9 -102h-532q5 57 23 102z" />
    <glyph glyph-name="fraction" unicode="&#x2044;" horiz-adv-x="648" 
d="M678 713l-578 -757q-28 7 -54.5 24t-39.5 37l558 718q65 0 114 -22z" />
    <glyph glyph-name="foursuperior" unicode="&#x2074;" horiz-adv-x="385" 
d="M307 466l-8 -86q-14 -5 -54 -5q-39 0 -58 5l9 86h-178l8 64l183 237h129l-24 -218h47q6 -41 -6 -83h-48zM205 549l7 61q3 33 11 60h-7l-84 -117v-7q16 3 38 3h35z" />
    <glyph glyph-name="Euro" unicode="&#x20ac;" horiz-adv-x="632" 
d="M457 280h-422q3 40 17 76h61q38 94 125.5 150t200.5 56q98 0 175 -46q0 -65 -30 -131q-27 0 -65 9.5t-59 21.5l5 42q-21 8 -52 8q-45 0 -82.5 -29.5t-57.5 -80.5h190q4 -39 -6 -76zM40 234h411q4 -39 -6 -76h-182q27 -73 128 -73q84 0 168 29q0 -19 -10 -46t-24 -44
q-84 -44 -190 -44q-93 0 -155.5 47.5t-82.5 130.5h-74q3 40 17 76z" />
    <glyph glyph-name="afii61289" unicode="&#x2113;" horiz-adv-x="509" 
d="M109 286l20 193q11 108 71 166.5t138 58.5q60 0 98.5 -36t38.5 -105q0 -157 -232 -323q-7 -61 -7 -90q0 -67 48 -67q47 0 101 61q48 -27 68 -59q-85 -105 -193 -105q-74 0 -120 37t-46 106q0 14 2 34q-2 -1 -42 -23q-18 48 -11 113q11 6 22 12.5t24 14.5t20 12zM257 383
q89 83 89 172q0 51 -27 51q-21 0 -36 -32.5t-19 -86.5z" />
    <glyph glyph-name="trademark" unicode="&#x2122;" horiz-adv-x="996" 
d="M289 649l-17 -178q32 -2 53 -9q6 -26 -5 -60h-209q7 35 21 59q23 6 43 9l21 179h-55q-8 -35 -15 -54q-30 -11 -76 -11l16 125h371l-15 -124q-41 0 -72 6q-4 17 -4 58h-57zM601 402h-153q4 30 17 60q12 4 36 8l22 170q-35 6 -41 8q0 33 7 61h181l35 -172q5 -24 9 -70h9
q9 38 21 64l79 178h168q0 -28 -9 -62q-22 -6 -41 -6l-16 -169q26 -2 47 -10q2 -9 0 -29t-6 -31h-175q4 32 16 60q18 5 32 7l22 180h-9q-8 -31 -39 -98l-70 -154h-100l-33 162q-12 60 -12 90h-9l-18 -180q21 -2 36 -8q3 -26 -6 -59z" />
    <glyph glyph-name="Omega" unicode="&#x2126;" horiz-adv-x="821" 
d="M405 0l7 85q65 37 112.5 131.5t47.5 205.5q0 92 -36 152t-109 60q-61 0 -106 -45.5t-65 -111t-20 -139.5q0 -88 28.5 -152.5t76.5 -100.5l-8 -85h-358l15 162q69 0 106 -10q7 -26 7 -58h107v12q-59 42 -92 97.5t-33 146.5q0 162 102.5 268.5t251.5 106.5
q129 0 207.5 -82.5t78.5 -214.5q0 -109 -53.5 -196.5t-121.5 -125.5v-12h107q3 25 14 59q45 12 111 12l-15 -165h-362z" />
    <glyph glyph-name="estimated" unicode="&#x212e;" horiz-adv-x="879" 
d="M845 332h-649q-5 0 -5 -4v-197q0 -14 9 -23q46 -50 110.5 -78.5t135.5 -28.5q155 0 257 119h59q-56 -65 -139 -102.5t-178 -37.5q-167 0 -284.5 106t-117.5 255q0 150 117.5 256.5t284.5 106.5q165 0 282.5 -106.5t117.5 -256.5v-9zM698 359v195q0 17 -11 26
q-98 101 -241 101q-146 0 -245 -105q-10 -7 -10 -26v-191q0 -5 5 -5h498q4 0 4 5z" />
    <glyph glyph-name="onethird" unicode="&#x2153;" horiz-adv-x="926" 
d="M796 713l-578 -757q-28 7 -54.5 24t-39.5 37l558 718q65 0 114 -22zM255 719l-31 -318q34 -2 59 -8q4 -38 -1 -72h-251q5 38 23 70q25 8 52 11l24 222l-77 -7q6 44 25 77q88 21 177 25zM692 308l-3 -33q-32 -13 -88 -13q-7 42 -7 100q72 29 147 29q54 0 91.5 -24
t37.5 -69q0 -35 -22 -61t-58 -35v-9q67 -14 67 -78q0 -62 -54.5 -95.5t-133.5 -33.5q-58 0 -99 13q-7 17 -9.5 46t1.5 50q52 -26 119 -26q56 0 56 39q0 23 -26 31.5t-96 8.5q0 46 16 82q121 2 121 54q0 28 -31 28q-17 0 -29 -4z" />
    <glyph glyph-name="twothirds" unicode="&#x2154;" horiz-adv-x="926" 
d="M802 713l-578 -757q-28 7 -54.5 24t-39.5 37l558 718q65 0 114 -22zM9 321l9 76q17 15 82.5 62t98.5 82t33 69q0 32 -40 32q-31 0 -49 -8l-3 -44q-39 -14 -92 -14q-5 38 -5 104q82 39 169 39q138 0 138 -90q0 -35 -20.5 -68t-59.5 -62.5t-68 -47t-71 -39.5v-7q89 0 204 8
q-7 -52 -19 -92h-307zM696 308l-3 -33q-32 -13 -88 -13q-7 42 -7 100q72 29 147 29q54 0 91.5 -24t37.5 -69q0 -35 -22 -61t-58 -35v-9q67 -14 67 -78q0 -62 -54.5 -95.5t-133.5 -33.5q-58 0 -99 13q-7 17 -9.5 46t1.5 50q52 -26 119 -26q56 0 56 39q0 23 -26 31.5t-96 8.5
q0 46 16 82q121 2 121 54q0 28 -31 28q-17 0 -29 -4z" />
    <glyph glyph-name="partialdiff" unicode="&#x2202;" horiz-adv-x="540" 
d="M365 298q-40 48 -95 48q-52 0 -84 -52t-32 -118q0 -43 17.5 -67.5t50.5 -24.5q53 0 89.5 60.5t53.5 153.5zM367 397h12q1 12 1 34q0 114 -38 167.5t-101 53.5q-33 0 -73 -11t-66 -28q-3 25 7 64t23 60q55 23 132 23q107 0 178 -81t71 -241q0 -86 -19 -166.5t-55 -146.5
t-95 -105.5t-133 -39.5q-89 0 -142 53t-53 142q0 110 70 194.5t176 84.5q80 0 105 -57z" />
    <glyph glyph-name="Delta" unicode="&#x2206;" horiz-adv-x="657" 
d="M310 718h109l200 -643l-6 -75h-637l5 64zM136 95h312l-85 295q-8 28 -16 86t-8 90h-12q-4 -34 -20.5 -90t-29.5 -84z" />
    <glyph glyph-name="product" unicode="&#x220f;" horiz-adv-x="745" 
d="M673 606l-49 -602q42 -3 77 -14q7 -50 -5 -92h-310q9 59 25 90q19 8 64 16l58 610h-282l-49 -610q38 -4 70 -14q7 -50 -5 -92h-311q6 52 27 90q21 8 70 16l56 601q-41 4 -63 12q-5 53 8 92h702q2 -15 -2 -45.5t-9 -46.5q-30 -9 -72 -11z" />
    <glyph glyph-name="summation" unicode="&#x2211;" horiz-adv-x="593" 
d="M-56 -103l7 82l283 316l-214 329l8 85h552l-17 -182q-65 0 -109 15q-5 23 -5 72h-266v-12q20 -11 44.5 -35t38.5 -46l130 -209l-163 -184q-24 -27 -59 -56t-62 -43v-12h298q9 46 21 81q47 15 117 15l-19 -216h-585z" />
    <glyph glyph-name="minus" unicode="&#x2212;" 
d="M61 324h442q6 -57 -9 -111h-458q5 59 25 111z" />
    <glyph glyph-name="radical" unicode="&#x221a;" horiz-adv-x="549" 
d="M20 418l159 39l52 -224q15 -65 15 -164h12q13 96 39 166l224 583q63 -4 118 -32l-336 -840l-139 -17l-98 387l-66 -15q2 62 20 117z" />
    <glyph glyph-name="infinity" unicode="&#x221e;" horiz-adv-x="823" 
d="M386 182q-97 -97 -211 -97q-75 0 -115.5 44t-40.5 113q0 86 60 151t156 65q105 0 195 -99q41 43 97.5 70.5t114.5 27.5q71 0 111 -46.5t40 -117.5q0 -84 -64 -146.5t-154 -62.5q-104 0 -189 98zM327 257q-62 86 -112 86q-29 0 -49.5 -23t-20.5 -56q0 -30 18 -49t47 -19
q58 0 117 61zM488 286q60 -86 111 -86q30 0 50 22t20 53t-18.5 51t-44.5 20q-28 0 -60.5 -17t-57.5 -43z" />
    <glyph glyph-name="integral" unicode="&#x222b;" horiz-adv-x="340" 
d="M374 818q15 -44 15 -117q-26 26 -71 26q-39 0 -55.5 -33t-22.5 -100q-7 -76 -12 -270t-11 -271q-9 -106 -56 -171t-141 -65q-57 0 -102 24q2 18 14.5 51.5t27.5 58.5q32 -22 61 -22q30 0 44 29.5t19 94.5q6 78 9.5 271t10.5 274q8 99 60 166.5t135 67.5q43 0 75 -14z" />
    <glyph glyph-name="approxequal" unicode="&#x2248;" 
d="M469 429q13 -8 29 -29.5t21 -36.5q-53 -77 -155 -77q-43 0 -96.5 24.5t-84.5 24.5q-25 0 -56 -13t-49 -31q-14 32 -14 89q61 63 138 63q43 0 96.5 -25t83.5 -25q49 0 87 36zM494 160q-53 -77 -155 -77q-43 0 -96 24.5t-85 24.5q-24 0 -55 -13t-50 -31q-13 30 -13 92
q25 24 62.5 42t75.5 18q42 0 96 -25t84 -25q50 0 86 36q13 -8 29 -29.5t21 -36.5z" />
    <glyph glyph-name="notequal" unicode="&#x2260;" 
d="M472 118h-266l-61 -84q-13 3 -33.5 16t-28.5 23l32 45h-78q5 57 23 104h128l67 93h-195q5 57 23 104h245l47 64q46 0 80 -17l-35 -47h85q6 -53 -9 -104h-149l-67 -93h201q6 -53 -9 -104z" />
    <glyph glyph-name="lessequal" unicode="&#x2264;" 
d="M519 549l-253 -160v-12l210 -145q-8 -19 -37.5 -52.5t-47.5 -45.5l-292 216l13 72l315 200q22 -11 50 -33.5t42 -39.5zM59 103h408q7 -49 -7 -103h-427q5 52 26 103z" />
    <glyph glyph-name="greaterequal" unicode="&#x2265;" 
d="M492 348l-343 -221q-16 13 -38.5 49t-27.5 57l248 148v12l-206 154q17 19 48.5 40.5t56.5 33.5l266 -201zM460 0h-419q4 49 23 103h405q6 -52 -9 -103z" />
    <glyph glyph-name="lozenge" unicode="&#x25ca;" horiz-adv-x="554" 
d="M15 339l233 376l134 14l155 -377l-233 -377l-131 -12zM160 365l69 -160q27 -66 27 -131h12q17 73 51 131l70 120l-70 187q-18 50 -18 100h-12q-9 -53 -37 -100z" />
    <glyph glyph-name="f_f" unicode="&#xfb00;" horiz-adv-x="720" 
d="M576 483h131q6 -48 -4 -99h-138l-52 -526q-35 -7 -82 -7q-40 0 -62 7l65 526h-229l-38 -380q-35 -7 -80 -7q-34 0 -60 7l47 380h-81q7 51 29 90q31 14 63 20l5 32q16 103 74 152t142 49q56 0 127 -24q0 -30 -10 -72t-24 -71q-25 0 -57 9t-50 20l6 46q-9 3 -18 3
q-48 0 -59 -109l-5 -46h228l8 55q14 99 75.5 150t146.5 51q57 0 129 -24q0 -30 -10 -72t-24 -71q-25 0 -57 9t-50 20l6 46q-8 3 -15 3q-25 0 -44.5 -27.5t-25.5 -81.5z" />
    <glyph glyph-name="fi" unicode="&#xfb01;" horiz-adv-x="654" 
d="M441 385l-67 -6q0 16 8 47t17 40q47 28 126 28q29 0 61 -9l-44 -374q0 -9 4 -17l70 7q0 -18 -8.5 -46t-18.5 -44q-25 -10 -72.5 -19t-79.5 -9q-15 14 -30.5 44.5t-15.5 47.5zM74 384h-81q7 51 29 90q31 14 63 20l4 25q17 108 99 164t206 56q120 0 215 -35
q0 -32 -10.5 -78t-24.5 -76q-28 0 -65 9t-57 20l6 54q-36 13 -79 13q-61 0 -106.5 -32.5t-52.5 -94.5l-4 -36h115q6 -48 -4 -99h-122l-52 -526q-35 -7 -82 -7q-40 0 -62 7z" />
    <glyph glyph-name="fl" unicode="&#xfb02;" horiz-adv-x="645" 
d="M216 483h131q6 -48 -4 -99h-138l-52 -526q-35 -7 -82 -7q-40 0 -62 7l65 526h-81q7 51 29 90q31 14 63 20l4 23q19 112 98.5 167t198.5 55q127 0 215 -37l-67 -591q0 -9 4 -17l70 7q0 -18 -8.5 -46t-18.5 -44q-25 -10 -73 -19t-79 -9q-15 14 -30.5 44.5t-15.5 47.5
l76 559q-39 12 -81 12q-61 0 -106 -32t-52 -97z" />
    <glyph glyph-name="f_f_i" unicode="&#xfb03;" horiz-adv-x="1014" 
d="M221 529l-5 -46h227l6 36q17 108 99 164t206 56q120 0 215 -35q0 -32 -10.5 -78t-24.5 -76q-28 0 -65 9t-57 20l6 54q-36 13 -79 13q-61 0 -106.5 -32.5t-52.5 -94.5l-4 -36h115q6 -48 -4 -99h-122l-52 -526q-35 -7 -82 -7q-40 0 -62 7l65 526h-229l-38 -380
q-35 -7 -80 -7q-34 0 -60 7l47 380h-81q7 51 29 90q31 14 63 20l5 32q16 103 74 152t142 49q56 0 127 -24q0 -30 -10 -72t-24 -71q-25 0 -57 9t-50 20l6 46q-9 3 -18 3q-48 0 -59 -109zM801 385l-67 -6q0 16 8 47t17 40q47 28 126 28q29 0 61 -9l-44 -374q0 -9 4 -17l70 7
q0 -18 -8.5 -46t-18.5 -44q-25 -10 -73 -19t-79 -9q-15 14 -30.5 44.5t-15.5 47.5z" />
    <glyph glyph-name="f_f_l" unicode="&#xfb04;" horiz-adv-x="1005" 
d="M576 483h131q6 -48 -4 -99h-138l-52 -526q-35 -7 -82 -7q-40 0 -62 7l65 526h-229l-38 -380q-35 -7 -80 -7q-34 0 -60 7l47 380h-81q7 51 29 90q31 14 63 20l5 32q16 103 74 152t142 49q56 0 127 -24q0 -30 -10 -72t-24 -71q-25 0 -57 9t-50 20l6 46q-9 3 -18 3
q-48 0 -59 -109l-5 -46h227l6 34q20 111 99.5 166.5t197.5 55.5q127 0 215 -37l-67 -591q0 -9 4 -17l70 7q0 -18 -8.5 -46t-18.5 -44q-26 -10 -73.5 -19t-78.5 -9q-15 14 -30.5 44.5t-15.5 47.5l76 559q-39 12 -81 12q-61 0 -106 -32t-52 -97z" />
    <glyph glyph-name="percent" horiz-adv-x="971" 
d="M246 562q74 0 113.5 -37t39.5 -109q0 -87 -56 -137.5t-148 -50.5q-152 0 -152 141q0 87 55.5 140t147.5 53zM231 476q-32 0 -50 -28t-18 -69q0 -66 48 -66q31 0 48.5 28t17.5 70q0 65 -46 65zM761 546l-456 -595q-21 4 -51.5 24t-42.5 35l438 562q60 -2 112 -26zM764 314
q74 0 113.5 -37t39.5 -109q0 -87 -56 -137.5t-148 -50.5q-152 0 -152 141q0 87 55.5 140t147.5 53zM749 228q-32 0 -50 -28t-18 -69q0 -66 48 -66q31 0 48.5 28t17.5 70q0 65 -46 65z" />
    <glyph glyph-name="commaaccent.sc" horiz-adv-x="435" 
d="M173 -154l-49 10q24 57 51 86q21 6 50 6q51 0 90 -13q-16 -55 -56.5 -135.5t-74.5 -126.5q-35 10 -65 34q38 83 54 139z" />
    <glyph glyph-name="ecaron.sc" horiz-adv-x="591" 
d="M242 95h143q12 36 24 54q56 12 106 9l-18 -158h-487q7 45 25 79q25 17 60 29l37 332q-36 4 -62 15q-4 46 7 84h467l-19 -153q-57 0 -101 13q-13 28 -15 47h-134l-12 -129h91q10 18 26 31q37 11 82 11l-21 -175q-49 -5 -86 6q-9 18 -9 37h-92zM371 595l-112 -5l-127 160
q14 14 42 25t49 13l114 -90l141 91q17 -5 39 -19.5t33 -27.5z" />
    <glyph glyph-name="macron.cap" horiz-adv-x="502" 
d="M443 788h-413q5 60 25 112h397q6 -57 -9 -112z" />
    <glyph glyph-name="approxequal.cap" 
d="M469 502q13 -8 29 -29.5t21 -36.5q-53 -77 -155 -77q-43 0 -96.5 24.5t-84.5 24.5q-25 0 -56 -13t-49 -31q-14 32 -14 89q61 63 138 63q43 0 96.5 -25t83.5 -25q49 0 87 36zM494 233q-53 -77 -155 -77q-43 0 -96 24.5t-85 24.5q-24 0 -55 -13t-50 -31q-13 30 -13 92
q25 24 62.5 42t75.5 18q42 0 96 -25t84 -25q50 0 86 36q13 -8 29 -29.5t21 -36.5z" />
    <glyph glyph-name="plusminus.cap" 
d="M445 0h-419q4 49 23 103h405q6 -52 -9 -103zM362 501h147q7 -47 -7 -100h-150l-18 -169q-26 -7 -61 -7q-42 0 -66 7l21 169h-154q5 48 25 100h139l22 162q50 11 120 11z" />
    <glyph glyph-name="aogonek.sc" horiz-adv-x="667" 
d="M390 163h-177l-8 -17q-7 -18 -27 -42q28 -4 50 -14q11 -37 7 -90h-259q7 50 24 78q25 19 57 30l242 434l123 15l144 -456q22 -3 42 -12q12 -37 10 -89h-75q-101 -46 -101 -98q0 -35 43 -35q15 0 27 4q13 -30 13 -73q-32 -15 -83 -15q-50 0 -84.5 24t-34.5 70
q0 41 29 72.5t79 41.5v9h-98q9 40 33 85q19 9 46 15q-9 14 -17 43zM339 421h-12q-12 -48 -37 -98l-38 -77h120l-19 70q-14 50 -14 105z" />
    <glyph glyph-name="questiondown.sc" horiz-adv-x="472" 
d="M274 356q13 -12 23.5 -34.5t10.5 -42.5q0 -32 -20 -59.5t-43.5 -43.5t-43.5 -37t-20 -41q0 -32 42 -32q21 0 39 8l6 47q60 17 126 17q5 -60 -5 -132q-34 -10 -95.5 -18t-108.5 -8q-84 0 -131 24.5t-47 68.5q0 39 24.5 71.5t53.5 50.5t53.5 41t24.5 46q0 19 -8 35
q63 34 119 39zM243 559q35 0 56.5 -21t21.5 -57q0 -39 -22 -61.5t-56 -22.5q-38 0 -59 21.5t-21 62.5q0 33 23.5 55.5t56.5 22.5z" />
    <glyph glyph-name="hungarumlaut.cap" horiz-adv-x="569" 
d="M320 916l-241 -175q-34 26 -48 79l172 162q30 -4 64 -24t53 -42zM610 916l-241 -175q-34 26 -48 79l172 162q30 -4 64 -24t53 -42z" />
    <glyph glyph-name="caron.cap" horiz-adv-x="496" 
d="M290 761h-134l-142 124q14 16 46 30.5t59 18.5l130 -76l144 72q16 -6 34.5 -22.5t28.5 -31.5z" />
    <glyph glyph-name="numbersignalt" horiz-adv-x="1082" 
d="M309 539l127 -235q38 -72 48 -139h12l33 275q-47 4 -77 15q-5 41 5 84h250q2 -30 -11 -85q-25 -10 -60 -14l-49 -442l-148 -16l-149 275q-11 21 -24.5 61.5t-17.5 68.5h-12l-29 -282q43 -8 65 -20q3 -53 -7 -85h-259q10 50 25 79q25 17 60 29l40 332q-37 4 -61 15
q-4 43 6 84h233zM909 519q70 0 110.5 -36t40.5 -101q0 -83 -44 -138q-53 -66 -149 -66q-73 0 -112.5 38t-39.5 108q0 78 41 128q55 67 153 67zM900 442q-35 0 -54 -28t-19 -82q0 -35 13 -55t37 -20q29 0 48 25q24 32 24 91q0 31 -13.5 50t-35.5 19zM998 54h-296q3 45 19 85
h284q4 -45 -7 -85z" />
    <glyph glyph-name="u.sc" horiz-adv-x="662" 
d="M404 539h254q0 -32 -16 -85q-24 -10 -65 -14l-22 -215q-11 -111 -81.5 -178t-187.5 -67q-111 0 -162.5 48t-51.5 144q0 22 3 48l23 216q-32 7 -56 18q-7 29 -7 85h305q0 -36 -14 -84q-40 -11 -83 -15l-20 -213q-2 -28 -2 -38q0 -54 21 -80.5t67 -26.5q112 0 127 133
l24 225q-39 4 -67 15q0 47 11 84z" />
    <glyph glyph-name="lslash.sc" horiz-adv-x="578" 
d="M249 91q87 0 136 9q11 39 29 74q50 10 100 5l-19 -179h-477q10 50 25 79q25 17 60 29l8 69l-48 -26q-11 28 -9 85l69 39l20 165q-36 4 -62 15q-2 52 7 84h308q2 -35 -14 -85q-38 -10 -97 -14l-10 -94l114 64q11 -11 22.5 -34.5t14.5 -39.5l-161 -87z" />
    <glyph glyph-name="ycircumflex.sc" horiz-adv-x="584" 
d="M347 217l-13 -113q54 -7 85 -21q6 -42 -6 -83h-329q7 36 29 77q28 15 72 28l11 91l-124 233q-24 7 -40 17q-10 58 -5 93h272q-5 -53 -22 -97q-17 -9 -48 -16q15 -16 23 -38l14 -40q12 -33 17 -66h11q13 38 36 69l26 38q20 27 34 38q-23 10 -31 18q-10 51 -3 94h233
q-6 -57 -29 -100q-20 -8 -51 -12zM283 786l105 6l122 -148q-11 -17 -32.5 -33t-40.5 -22l-111 98l-152 -100q-12 12 -22.5 37.5t-12.5 45.5z" />
    <glyph glyph-name="wcircumflex.sc" horiz-adv-x="879" 
d="M209 426q18 -39 22 -81l13 -122q7 -71 4 -110h11q10 61 29 111l111 310l157 15l31 -326q6 -63 1 -110h12q7 43 31 108l45 132q10 36 38 74q-30 9 -41 19q-12 50 -6 93h229q-6 -58 -26 -100q-22 -8 -49 -12l-179 -430l-156 -15l-28 304q-6 70 0 123h-12q-7 -60 -30 -123
l-102 -289l-164 -15l-75 444q-27 9 -40 24q-10 44 -5 89h257q-7 -56 -24 -96q-17 -10 -54 -17zM449 786l105 6l122 -148q-11 -17 -32.5 -33t-40.5 -22l-111 98l-152 -100q-12 12 -22.5 37.5t-12.5 45.5z" />
    <glyph glyph-name="agrave.sc" horiz-adv-x="667" 
d="M390 163h-177l-8 -17q-7 -18 -27 -42q28 -4 50 -14q11 -37 7 -90h-259q7 50 24 78q25 19 57 30l242 434l123 15l144 -456q22 -3 42 -12q12 -37 10 -89h-285q9 40 33 85q19 9 46 15q-9 14 -17 43zM339 421h-12q-12 -48 -37 -98l-38 -77h120l-19 70q-14 50 -14 105z
M382 590l-157 175q20 16 60.5 29t70.5 13l113 -185q-14 -12 -41.5 -22t-45.5 -10z" />
    <glyph glyph-name="acute.sc" horiz-adv-x="445" 
d="M383 755l-215 -173q-18 7 -37.5 24t-27.5 32l151 162q30 0 72 -13.5t57 -31.5z" />
    <glyph glyph-name="itilde.sc" horiz-adv-x="390" 
d="M273 440l-33 -335q47 -7 72 -20q5 -46 -7 -85h-297q7 45 25 79q25 17 60 29l38 332q-36 4 -62 15q-4 46 7 84h280q0 -44 -13 -85q-28 -10 -70 -14zM353 754q52 0 79 -17q-8 -53 -50 -93t-107 -40q-35 0 -75 21.5t-64 21.5q-39 0 -54 -38q-20 3 -39 15t-26 28q13 47 50 77
t95 30q38 0 76.5 -21t60.5 -21q35 0 54 37z" />
    <glyph glyph-name="gbreve.sc" horiz-adv-x="642" 
d="M528 185l-15 -161q-44 -17 -114 -30.5t-128 -13.5q-119 0 -182.5 60t-63.5 171q0 146 101 244.5t253 98.5q114 0 186 -52q0 -69 -31 -143q-73 4 -125 26l6 66q-25 11 -55 11q-77 0 -126 -65.5t-49 -170.5q0 -81 32 -113.5t93 -32.5q28 0 66 5l12 98q-53 6 -88 20
q-6 32 -4 80h308q-7 -41 -29 -77q-20 -14 -47 -21zM268 781q6 -85 90 -85q75 0 115 80q54 -4 83 -25q-23 -73 -78.5 -116t-135.5 -43q-77 0 -117.5 40t-42.5 112q28 28 86 37z" />
    <glyph glyph-name="emacron.sc" horiz-adv-x="591" 
d="M242 95h143q12 36 24 54q56 12 106 9l-18 -158h-487q7 45 25 79q25 17 60 29l37 332q-36 4 -62 15q-4 46 7 84h467l-19 -153q-57 0 -101 13q-13 28 -15 47h-134l-12 -129h91q10 18 26 31q37 11 82 11l-21 -175q-49 -5 -86 6q-9 18 -9 37h-92zM501 627h-368q5 57 23 102
h353q6 -50 -8 -102z" />
    <glyph glyph-name="kcommaaccent.sc" horiz-adv-x="674" 
d="M266 320h51l68 78q24 26 48 42q-27 6 -40 16q-10 38 -4 83h261q-6 -49 -26 -89q-20 -9 -56 -15l-143 -150q36 -61 76 -115t59 -72l60 5q-4 -55 -32 -106q-55 -12 -116 -15q-33 25 -79.5 92.5t-90.5 154.5h-45l-13 -126q36 -6 59 -20q4 -45 -7 -83h-287q10 50 25 79
q25 17 60 29l41 332q-36 4 -62 15q-2 52 7 84h267q2 -32 -13 -85q-19 -9 -56 -14zM257 -154l-49 10q24 57 51 86q21 6 50 6q51 0 90 -13q-16 -55 -56.5 -135.5t-74.5 -126.5q-35 10 -65 34q38 83 54 139z" />
    <glyph glyph-name="acute.cap" horiz-adv-x="456" 
d="M371 851l-296 -100q-13 46 -7 94l239 114q19 -16 37.5 -48.5t26.5 -59.5z" />
    <glyph glyph-name="Imacron" horiz-adv-x="394" 
d="M430 788h-379q5 60 25 112h363q6 -57 -9 -112zM328 0h-323q9 55 28 90q23 9 69 16l47 499q-41 4 -63 12q-5 51 7 92h286q2 -15 -1.5 -46t-8.5 -46q-32 -9 -73 -11l-41 -500q41 -3 77 -14q7 -53 -4 -92z" />
    <glyph glyph-name="edotaccent.sc" horiz-adv-x="591" 
d="M242 95h143q12 36 24 54q56 12 106 9l-18 -158h-487q7 45 25 79q25 17 60 29l37 332q-36 4 -62 15q-4 46 7 84h467l-19 -153q-57 0 -101 13q-13 28 -15 47h-134l-12 -129h91q10 18 26 31q37 11 82 11l-21 -175q-49 -5 -86 6q-9 18 -9 37h-92zM333 761q36 0 58 -21t22 -58
q0 -40 -22.5 -62.5t-57.5 -22.5q-81 0 -81 85q0 34 23 56.5t58 22.5z" />
    <glyph glyph-name="uring.sc" horiz-adv-x="662" 
d="M404 539h254q0 -32 -16 -85q-24 -10 -65 -14l-22 -215q-11 -111 -81.5 -178t-187.5 -67q-111 0 -162.5 48t-51.5 144q0 22 3 48l23 216q-32 7 -56 18q-7 29 -7 85h305q0 -36 -14 -84q-40 -11 -83 -15l-20 -213q-2 -28 -2 -38q0 -54 21 -80.5t67 -26.5q112 0 127 133
l24 225q-39 4 -67 15q0 47 11 84zM395 821q110 0 110 -99q0 -61 -41 -98t-110 -37q-109 0 -109 98q0 61 40 98.5t110 37.5zM387 754q-30 0 -47 -17t-17 -43q0 -38 39 -38q29 0 46 16.5t17 44.5q0 37 -38 37z" />
    <glyph glyph-name="two.fitted" horiz-adv-x="573" 
d="M-7 0l10 107q27 28 95 89t116.5 106.5t89 107.5t40.5 113q0 79 -72 79q-48 0 -84 -19l-8 -89q-55 -25 -114 -25q-14 77 -14 186q107 49 232 49q98 0 159.5 -40.5t61.5 -119.5q0 -181 -342 -415v-12h193q8 49 23 83q54 13 112 13l-20 -213h-478z" />
    <glyph glyph-name="ncommaaccent.sc" horiz-adv-x="722" 
d="M309 539l123 -235q12 -24 27 -67t19 -72h12l33 275q-47 4 -77 15q-5 41 5 84h250q2 -30 -11 -85q-25 -10 -60 -14l-49 -442l-148 -16l-144 275q-11 21 -24 61.5t-17 68.5h-12l-29 -282q43 -8 65 -20q3 -53 -7 -85h-259q10 50 25 79q25 17 60 29l40 332q-37 4 -61 15
q-4 43 6 84h233zM279 -154l-49 10q24 57 51 86q21 6 50 6q51 0 90 -13q-16 -55 -56.5 -135.5t-74.5 -126.5q-35 10 -65 34q38 83 54 139z" />
    <glyph glyph-name="o.sc" horiz-adv-x="648" 
d="M355 554q115 0 179.5 -63.5t64.5 -182.5q0 -146 -92 -237t-235 -91q-117 0 -179.5 63.5t-62.5 181.5q0 147 90.5 238t234.5 91zM337 460q-69 0 -112 -66.5t-43 -157.5q0 -74 30 -117t83 -43q67 0 110 65.5t43 159.5q0 74 -29 116.5t-82 42.5z" />
    <glyph glyph-name="umacron.sc" horiz-adv-x="662" 
d="M404 539h254q0 -32 -16 -85q-24 -10 -65 -14l-22 -215q-11 -111 -81.5 -178t-187.5 -67q-111 0 -162.5 48t-51.5 144q0 22 3 48l23 216q-32 7 -56 18q-7 29 -7 85h305q0 -36 -14 -84q-40 -11 -83 -15l-20 -213q-2 -28 -2 -38q0 -54 21 -80.5t67 -26.5q112 0 127 133
l24 225q-39 4 -67 15q0 47 11 84zM539 627h-368q5 57 23 102h353q6 -50 -8 -102z" />
    <glyph glyph-name="ugrave.sc" horiz-adv-x="662" 
d="M404 539h254q0 -32 -16 -85q-24 -10 -65 -14l-22 -215q-11 -111 -81.5 -178t-187.5 -67q-111 0 -162.5 48t-51.5 144q0 22 3 48l23 216q-32 7 -56 18q-7 29 -7 85h305q0 -36 -14 -84q-40 -11 -83 -15l-20 -213q-2 -28 -2 -38q0 -54 21 -80.5t67 -26.5q112 0 127 133
l24 225q-39 4 -67 15q0 47 11 84zM370 590l-157 175q20 16 60.5 29t70.5 13l113 -185q-14 -12 -41.5 -22t-45.5 -10z" />
    <glyph glyph-name="obreve.sc" horiz-adv-x="648" 
d="M355 554q115 0 179.5 -63.5t64.5 -182.5q0 -146 -92 -237t-235 -91q-117 0 -179.5 63.5t-62.5 181.5q0 147 90.5 238t234.5 91zM337 460q-69 0 -112 -66.5t-43 -157.5q0 -74 30 -117t83 -43q67 0 110 65.5t43 159.5q0 74 -29 116.5t-82 42.5zM262 781q6 -85 90 -85
q75 0 115 80q54 -4 83 -25q-23 -73 -78.5 -116t-135.5 -43q-77 0 -117.5 40t-42.5 112q28 28 86 37z" />
    <glyph glyph-name="scommaaccent.sc" horiz-adv-x="524" 
d="M326 417l5 49q-18 8 -43 8q-31 0 -46 -16.5t-15 -42.5t24 -44t58.5 -31.5t68.5 -31t58 -52.5t24 -86q0 -92 -70 -141t-178 -49q-113 0 -193 49q-2 12 -2 26q0 61 23 115q79 0 134 -20l-7 -65q26 -15 67 -15q37 0 56.5 18.5t19.5 52.5q0 28 -24.5 47.5t-59 33t-69 30.5
t-59 50.5t-24.5 81.5q0 79 61 127t161 48q108 0 184 -44q0 -69 -26 -128q-80 0 -128 30zM168 -154l-49 10q24 57 51 86q21 6 50 6q51 0 90 -13q-16 -55 -56.5 -135.5t-74.5 -126.5q-35 10 -65 34q38 83 54 139z" />
    <glyph glyph-name="dcaron.sc" horiz-adv-x="655" 
d="M96 110l40 328q-34 2 -63 11q-2 15 1 43.5t7 41.5q133 14 249 14q135 0 212.5 -58t77.5 -172q0 -155 -99 -240t-238 -85q-157 0 -272 8q10 56 26 82q34 20 59 27zM280 450l-37 -356q24 -3 52 -3q80 0 124.5 55.5t44.5 156.5q0 150 -140 150q-28 0 -44 -3zM402 585
l-112 -5l-127 160q14 14 42 25t49 13l114 -90l141 91q17 -5 39 -19.5t33 -27.5z" />
    <glyph glyph-name="i.sc" horiz-adv-x="390" 
d="M273 440l-33 -335q47 -7 72 -20q5 -46 -7 -85h-297q7 45 25 79q25 17 60 29l38 332q-36 4 -62 15q-4 46 7 84h280q0 -44 -13 -85q-28 -10 -70 -14z" />
    <glyph glyph-name="less.cap" 
d="M509 535l-279 -186v-11l221 -172q-9 -20 -37.5 -52t-48.5 -45l-288 232l17 87l323 219q24 -11 51.5 -32.5t40.5 -39.5z" />
    <glyph glyph-name="four.taboldstyle" 
d="M442 67l-15 -163q-27 -7 -69 -7q-50 0 -75 7l16 163h-267l-13 74q133 211 322 418l143 -23l-33 -363h52q8 -50 -6 -106h-55zM309 171l14 141q4 49 19 98h-12q-85 -100 -156 -233v-12q32 6 69 6h66z" />
    <glyph glyph-name="parenleft.sc" horiz-adv-x="339" 
d="M149 -130q-79 161 -79 330q0 105 32.5 204.5t104.5 214.5q22 10 65 18t74 8q-136 -228 -136 -463q0 -153 49 -266q-41 -34 -110 -46z" />
    <glyph glyph-name="periodcentered.cap" horiz-adv-x="290" 
d="M125 466q41 0 66 -24.5t25 -68.5q0 -46 -25.5 -72.5t-65.5 -26.5q-96 0 -96 99q0 40 27.5 66.5t68.5 26.5z" />
    <glyph glyph-name="five.fitted" horiz-adv-x="546" 
d="M222 559l-19 -139q24 7 63 7q93 0 148.5 -48.5t55.5 -146.5q0 -123 -85 -187.5t-211 -64.5q-83 0 -143 20q-15 24 -23 64.5t-3 71.5q39 -22 90.5 -37t89.5 -15q57 0 92.5 36t35.5 100q0 108 -117 108q-71 0 -140 -16l63 372h395q-4 -65 -24 -125h-268z" />
    <glyph glyph-name="oslashacute.sc" horiz-adv-x="678" 
d="M371 554q84 0 143 -34l80 76q15 -5 39.5 -26.5t30.5 -34.5l-82 -81q36 -59 36 -146q0 -146 -93.5 -237t-238.5 -91q-96 0 -155 41l-102 -100q-12 11 -27.5 38.5t-18.5 45.5l86 86q-28 58 -28 134q0 147 92 238t238 91zM467 301q0 31 -4 51l-241 -232q31 -44 87 -44
q69 0 113.5 65.5t44.5 159.5zM353 460q-71 0 -115.5 -66.5t-44.5 -157.5q0 -20 3 -35l234 226q-30 33 -77 33zM532 755l-215 -173q-18 7 -37.5 24t-27.5 32l151 162q30 0 72 -13.5t57 -31.5z" />
    <glyph glyph-name="equal.cap" 
d="M495 386h-429q5 54 24 107h414q6 -54 -9 -107zM471 190h-429q5 54 24 107h414q6 -54 -9 -107z" />
    <glyph glyph-name="b.sc" horiz-adv-x="618" 
d="M93 110l40 332q-35 2 -63 11q0 55 10 85q114 10 233 10q249 0 249 -136q0 -44 -28.5 -77t-81.5 -44v-9q111 -22 111 -122q0 -86 -84.5 -127t-221.5 -41q-131 0 -248 9q10 56 26 82q35 21 58 27zM255 235l-15 -148q20 -3 52 -3q116 0 116 77q0 74 -96 74h-57zM278 457
l-14 -132h52q43 0 68.5 17.5t25.5 52.5q0 64 -88 64q-20 0 -44 -2z" />
    <glyph glyph-name="navigation04" 
d="M460 -32q-91 42 -241.5 132t-228.5 149q86 53 257 137.5t278 128.5q-1 -99 -22 -273.5t-43 -273.5zM365 154q21 94 21 184q-105 -38 -186 -87q26 -21 78.5 -51.5t86.5 -45.5z" />
    <glyph glyph-name="navigation05" 
d="M11 0l59 483h472l-52 -483h-479z" />
    <glyph glyph-name="Tcommaaccent_h" horiz-adv-x="1119" 
d="M411 615l-37 -509q53 -3 95 -14q4 -17 3 -46.5t-5 -45.5h-359q5 44 30 89q38 11 83 17l45 509h-98q-9 -46 -21 -81q-42 -14 -114 -14l16 189h609q42 11 86 11q28 0 60 -9l-13 -131q-7 -73 -34 -162h15q52 82 141 82q56 0 93 -32.5t37 -105.5q0 -37 -31 -251q0 -9 4 -17
l73 7q0 -18 -8.5 -46t-18.5 -44q-25 -10 -74 -19t-80 -9q-15 14 -30.5 44.5t-15.5 47.5q37 196 37 261q0 62 -45 62q-47 0 -93 -73l-35 -321q-38 -7 -85 -7q-40 0 -64 7l82 611h-248zM217 -152l-51 11q21 55 52 88q24 6 52 6q49 0 92 -16q-14 -59 -57 -144.5t-80 -134.5
q-48 13 -69 34q46 92 61 156z" />
    <glyph glyph-name="ubreve.sc" horiz-adv-x="662" 
d="M404 539h254q0 -32 -16 -85q-24 -10 -65 -14l-22 -215q-11 -111 -81.5 -178t-187.5 -67q-111 0 -162.5 48t-51.5 144q0 22 3 48l23 216q-32 7 -56 18q-7 29 -7 85h305q0 -36 -14 -84q-40 -11 -83 -15l-20 -213q-2 -28 -2 -38q0 -54 21 -80.5t67 -26.5q112 0 127 133
l24 225q-39 4 -67 15q0 47 11 84zM273 781q6 -85 90 -85q75 0 115 80q54 -4 83 -25q-23 -73 -78.5 -116t-135.5 -43q-77 0 -117.5 40t-42.5 112q28 28 86 37z" />
    <glyph glyph-name="Tcaron_h" horiz-adv-x="1119" 
d="M411 615l-37 -509q53 -3 95 -14q4 -17 3 -46.5t-5 -45.5h-359q5 44 30 89q38 11 83 17l45 509h-98q-9 -46 -21 -81q-42 -14 -114 -14l16 189h609q42 11 86 11q28 0 60 -9l-13 -131q-7 -73 -34 -162h15q52 82 141 82q56 0 93 -32.5t37 -105.5q0 -37 -31 -251q0 -9 4 -17
l73 7q0 -18 -8.5 -46t-18.5 -44q-25 -10 -74 -19t-80 -9q-15 14 -30.5 44.5t-15.5 47.5q37 196 37 261q0 62 -45 62q-47 0 -93 -73l-35 -321q-38 -7 -85 -7q-40 0 -64 7l82 611h-248zM416 761h-134l-142 124q14 16 46 30.5t59 18.5l130 -76l144 72q16 -6 34.5 -22.5
t28.5 -31.5z" />
    <glyph glyph-name="icircumflex.sc" horiz-adv-x="390" 
d="M273 440l-33 -335q47 -7 72 -20q5 -46 -7 -85h-297q7 45 25 79q25 17 60 29l38 332q-36 4 -62 15q-4 46 7 84h280q0 -44 -13 -85q-28 -10 -70 -14zM185 786l105 6l122 -148q-11 -17 -32.5 -33t-40.5 -22l-111 98l-152 -100q-12 12 -22.5 37.5t-12.5 45.5z" />
    <glyph glyph-name="quotedbl.tab" horiz-adv-x="520" 
d="M340 417q-40 0 -86 11q27 146 41 288q66 0 123 -16q-6 -53 -30.5 -139.5t-47.5 -143.5zM127 417q-40 0 -86 11q27 146 41 288q66 0 123 -16q-6 -53 -30.5 -139.5t-47.5 -143.5z" />
    <glyph glyph-name="udieresis.sc" horiz-adv-x="662" 
d="M404 539h254q0 -32 -16 -85q-24 -10 -65 -14l-22 -215q-11 -111 -81.5 -178t-187.5 -67q-111 0 -162.5 48t-51.5 144q0 22 3 48l23 216q-32 7 -56 18q-7 29 -7 85h305q0 -36 -14 -84q-40 -11 -83 -15l-20 -213q-2 -28 -2 -38q0 -54 21 -80.5t67 -26.5q112 0 127 133
l24 225q-39 4 -67 15q0 47 11 84zM225 757q34 0 54.5 -20t20.5 -56q0 -38 -21 -60t-54 -22q-76 0 -76 82q0 33 22 54.5t54 21.5zM499 757q34 0 54.5 -20t20.5 -56q0 -38 -21 -60t-54 -22q-76 0 -76 82q0 33 22 54.5t54 21.5z" />
    <glyph glyph-name="l.sc" horiz-adv-x="558" 
d="M239 91q87 0 136 9q11 39 29 74q50 10 100 5l-19 -179h-477q10 50 25 79q25 17 60 29l40 332q-36 4 -62 15q-2 52 7 84h308q2 -35 -14 -85q-38 -10 -97 -14z" />
    <glyph glyph-name="amacron.sc" horiz-adv-x="667" 
d="M390 163h-177l-8 -17q-7 -18 -27 -42q28 -4 50 -14q11 -37 7 -90h-259q7 50 24 78q25 19 57 30l242 434l123 15l144 -456q22 -3 42 -12q12 -37 10 -89h-285q9 40 33 85q19 9 46 15q-9 14 -17 43zM339 421h-12q-12 -48 -37 -98l-38 -77h120l-19 70q-14 50 -14 105z
M545 627h-368q5 57 23 102h353q6 -50 -8 -102z" />
    <glyph glyph-name="at.cap" horiz-adv-x="810" 
d="M594 483l-38 -207q0 -11 2 -19q66 17 102 74.5t36 124.5q0 92 -66 140.5t-167 48.5q-143 0 -229.5 -90t-86.5 -233q0 -121 66.5 -190t191.5 -69q90 0 188 45q29 -28 41 -64q-116 -64 -249 -64q-163 0 -253 85.5t-90 240.5q0 186 122 304.5t312 118.5q145 0 233 -71.5
t88 -198.5q0 -126 -86.5 -208t-242.5 -89q-17 28 -19 62h-9q-11 -25 -38 -43t-59 -18q-44 0 -73 33.5t-29 96.5q0 97 59 162q62 70 156 70q78 0 138 -42zM440 280l31 165q-8 3 -19 3q-37 0 -62 -35q-30 -41 -30 -100q0 -62 30 -62q26 0 50 29z" />
    <glyph glyph-name="zero.fitted" horiz-adv-x="619" 
d="M344 704q226 0 226 -299q0 -190 -85 -307.5t-234 -117.5q-223 0 -223 295q0 189 83 309t233 120zM324 605q-47 0 -79.5 -54.5t-45.5 -127t-13 -151.5q0 -191 87 -191q44 0 77 50.5t48.5 124.5t15.5 156q0 193 -90 193z" />
    <glyph glyph-name="edieresis.sc" horiz-adv-x="591" 
d="M242 95h143q12 36 24 54q56 12 106 9l-18 -158h-487q7 45 25 79q25 17 60 29l37 332q-36 4 -62 15q-4 46 7 84h467l-19 -153q-57 0 -101 13q-13 28 -15 47h-134l-12 -129h91q10 18 26 31q37 11 82 11l-21 -175q-49 -5 -86 6q-9 18 -9 37h-92zM192 757q34 0 54.5 -20
t20.5 -56q0 -38 -21 -60t-54 -22q-76 0 -76 82q0 33 22 54.5t54 21.5zM466 757q34 0 54.5 -20t20.5 -56q0 -38 -21 -60t-54 -22q-76 0 -76 82q0 33 22 54.5t54 21.5z" />
    <glyph glyph-name="colon.cap" horiz-adv-x="254" 
d="M148 626q40 0 64 -23t24 -65q0 -44 -24.5 -69t-63.5 -25q-90 0 -90 94q0 39 25.5 63.5t64.5 24.5zM116 294q41 0 65 -24t24 -67q0 -44 -25 -70t-64 -26q-93 0 -93 96q0 40 26.5 65.5t66.5 25.5z" />
    <glyph glyph-name="colon.tab" horiz-adv-x="350" 
d="M162 507q40 0 64 -23t24 -65q0 -44 -24.5 -69t-63.5 -25q-90 0 -90 94q0 39 25.5 63.5t64.5 24.5zM130 191q41 0 65 -24t24 -67q0 -44 -25 -70t-64 -26q-93 0 -93 96q0 40 26.5 65.5t66.5 25.5z" />
    <glyph glyph-name="s.sc" horiz-adv-x="524" 
d="M326 417l5 49q-18 8 -43 8q-31 0 -46 -16.5t-15 -42.5t24 -44t58.5 -31.5t68.5 -31t58 -52.5t24 -86q0 -92 -70 -141t-178 -49q-113 0 -193 49q-2 12 -2 26q0 61 23 115q79 0 134 -20l-7 -65q26 -15 67 -15q37 0 56.5 18.5t19.5 52.5q0 28 -24.5 47.5t-59 33t-69 30.5
t-59 50.5t-24.5 81.5q0 79 61 127t161 48q108 0 184 -44q0 -69 -26 -128q-80 0 -128 30z" />
    <glyph glyph-name="guillemotleft.cap" horiz-adv-x="619" 
d="M192 370q20 -102 58 -197q-55 -29 -123 -33q-66 131 -95 230q49 94 127 196q77 27 151 27q-70 -114 -118 -223zM451 373q20 -102 58 -197q-57 -31 -120 -33q-66 127 -96 230q49 94 127 196q77 27 149 27q-64 -105 -118 -223z" />
    <glyph glyph-name="ordfeminine.cap" horiz-adv-x="412" 
d="M341 239h-317q3 45 19 85h305q4 -45 -7 -85zM232 416h-6q-31 -53 -95 -53q-46 0 -73.5 30.5t-27.5 92.5q0 92 50 151q57 67 152 67q70 0 127 -34l-25 -208q0 -8 4 -14l45 5q0 -38 -18 -70q-17 -7 -54 -13.5t-62 -6.5q-13 21 -17 53zM226 472l25 162q-11 3 -21 3
q-38 0 -63 -38q-28 -38 -28 -100q0 -56 36 -56q28 0 51 29z" />
    <glyph glyph-name="nine.fitted" horiz-adv-x="580" 
d="M374 308h-12q-48 -62 -131 -62q-90 0 -140.5 55t-50.5 142q0 118 74.5 189.5t194.5 71.5q227 0 227 -262q0 -210 -91.5 -336t-247.5 -126q-92 0 -162 32q-12 25 -20 68t-3 71q36 -24 92 -41.5t92 -17.5q138 0 178 216zM381 398q4 40 4 63q0 148 -86 148q-49 0 -77 -46.5
t-28 -113.5q0 -48 20.5 -74.5t59.5 -26.5q57 0 107 50z" />
    <glyph glyph-name="circumflex.sc" horiz-adv-x="550" 
d="M241 786l105 6l122 -148q-11 -17 -32.5 -33t-40.5 -22l-111 98l-152 -100q-12 12 -22.5 37.5t-12.5 45.5z" />
    <glyph glyph-name="grave.sc" horiz-adv-x="445" 
d="M249 590l-157 175q20 16 60.5 29t70.5 13l113 -185q-14 -12 -42 -22t-45 -10z" />
    <glyph glyph-name="aring.sc" horiz-adv-x="667" 
d="M385 759q110 0 110 -99q0 -82 -69 -117l140 -442q22 -3 42 -12q12 -37 10 -89h-285q9 40 33 85q19 9 46 15q-9 14 -17 43l-5 20h-177l-8 -17q-7 -18 -27 -42q28 -4 50 -14q11 -37 7 -90h-259q7 50 24 78q25 19 57 30l236 424q-58 18 -58 91q0 61 40 98.5t110 37.5z
M339 421h-12q-12 -48 -37 -98l-38 -77h120l-19 70q-14 50 -14 105zM377 692q-30 0 -47 -17t-17 -43q0 -38 39 -38q29 0 46 16.5t17 44.5q0 37 -38 37z" />
    <glyph glyph-name="v.sc" horiz-adv-x="606" 
d="M283 123h11q11 54 31 90l60 131q19 42 52 83q-29 9 -46 19q-11 43 -5 93h235q-5 -53 -30 -100q-18 -8 -49 -12l-221 -430l-136 -15l-116 444q-27 9 -40 24q-8 43 -3 89h277q-6 -51 -27 -96q-20 -10 -63 -17q17 -33 29 -82l32 -138q9 -38 9 -83z" />
    <glyph glyph-name="comma.tab" horiz-adv-x="350" 
d="M59 13l-53 12q21 61 56 96q20 7 54 7q56 0 103 -15q-22 -75 -69 -170t-88 -151q-19 6 -43 18t-31 20q54 119 71 183z" />
    <glyph glyph-name="scedilla.sc" horiz-adv-x="524" 
d="M326 417l5 49q-18 8 -43 8q-31 0 -46 -16.5t-15 -42.5t24 -44t58.5 -31.5t68.5 -31t58 -52.5t24 -86q0 -78 -52 -125.5t-137 -60.5l-13 -38q24 -5 40.5 -22.5t16.5 -44.5q0 -46 -48 -78.5t-106 -37.5q-31 21 -43 61q31 4 53 18.5t22 36.5q0 32 -51 41l35 62
q-93 7 -158 47q-2 12 -2 26q0 61 23 115q79 0 134 -20l-7 -65q26 -15 67 -15q37 0 56.5 18.5t19.5 52.5q0 28 -24.5 47.5t-59 33t-69 30.5t-59 50.5t-24.5 81.5q0 79 61 127t161 48q108 0 184 -44q0 -69 -26 -128q-80 0 -128 30z" />
    <glyph glyph-name="igrave.sc" horiz-adv-x="390" 
d="M273 440l-33 -335q47 -7 72 -20q5 -46 -7 -85h-297q7 45 25 79q25 17 60 29l38 332q-36 4 -62 15q-4 46 7 84h280q0 -44 -13 -85q-28 -10 -70 -14zM236 590l-157 175q20 16 60.5 29t70.5 13l113 -185q-14 -12 -41.5 -22t-45.5 -10z" />
    <glyph glyph-name="acircumflex.sc" horiz-adv-x="667" 
d="M390 163h-177l-8 -17q-7 -18 -27 -42q28 -4 50 -14q11 -37 7 -90h-259q7 50 24 78q25 19 57 30l242 434l123 15l144 -456q22 -3 42 -12q12 -37 10 -89h-285q9 40 33 85q19 9 46 15q-9 14 -17 43zM339 421h-12q-12 -48 -37 -98l-38 -77h120l-19 70q-14 50 -14 105z
M337 786l105 6l122 -148q-11 -17 -32.5 -33t-40.5 -22l-111 98l-152 -100q-12 12 -22.5 37.5t-12.5 45.5z" />
    <glyph glyph-name="p.sc" horiz-adv-x="580" 
d="M95 108l40 332q-35 2 -61 9q-2 50 11 88q110 11 230 11t181 -35t61 -117q0 -97 -73 -148.5t-175 -51.5q-41 0 -57 3l-9 -94q56 -7 86 -21q6 -43 -6 -84h-313q10 50 25 79q25 17 60 29zM275 453l-16 -160q20 -3 56 -3q41 0 65.5 23.5t24.5 67.5q0 35 -22 55t-57 20
q-30 0 -51 -3z" />
    <glyph glyph-name="oslash.sc" horiz-adv-x="678" 
d="M371 554q84 0 143 -34l80 76q15 -5 39.5 -26.5t30.5 -34.5l-82 -81q36 -59 36 -146q0 -146 -93.5 -237t-238.5 -91q-96 0 -155 41l-102 -100q-12 11 -27.5 38.5t-18.5 45.5l86 86q-28 58 -28 134q0 147 92 238t238 91zM467 301q0 31 -4 51l-241 -232q31 -44 87 -44
q69 0 113.5 65.5t44.5 159.5zM353 460q-71 0 -115.5 -66.5t-44.5 -157.5q0 -20 3 -35l234 226q-30 33 -77 33z" />
    <glyph glyph-name="aringacute.sc" horiz-adv-x="667" 
d="M528 948l-215 -173q-18 7 -37.5 24t-27.5 32l151 162q30 0 72 -13.5t57 -31.5zM385 759q110 0 110 -99q0 -82 -69 -117l140 -442q22 -3 42 -12q12 -37 10 -89h-285q9 40 33 85q19 9 46 15q-9 14 -17 43l-5 20h-177l-8 -17q-7 -18 -27 -42q28 -4 50 -14q11 -37 7 -90h-259
q7 50 24 78q25 19 57 30l236 424q-58 18 -58 91q0 61 40 98.5t110 37.5zM339 421h-12q-12 -48 -37 -98l-38 -77h120l-19 70q-14 50 -14 105zM377 692q-30 0 -47 -17t-17 -43q0 -38 39 -38q29 0 46 16.5t17 44.5q0 37 -38 37z" />
    <glyph glyph-name="exclamdown.cap" horiz-adv-x="291" 
d="M28 6l79 469q30 15 77 15q13 0 28 -3l-6 -481q-33 -9 -88 -9q-54 0 -90 9zM177 729q38 0 60 -22t22 -62t-23 -64t-59 -24q-85 0 -85 88q0 36 24.5 60t60.5 24z" />
    <glyph glyph-name="tilde.cap" horiz-adv-x="494" 
d="M394 926q44 0 81 -20q-8 -58 -51 -100t-118 -42q-38 0 -84 23.5t-77 23.5q-20 0 -36 -14t-22 -30q-45 7 -74 51q15 49 56 80.5t103 31.5q43 0 88.5 -22.5t74.5 -22.5q41 0 59 41z" />
    <glyph glyph-name="hcircumflex.sc" horiz-adv-x="737" 
d="M617 440l-35 -335q47 -7 72 -20q5 -46 -7 -85h-284q10 51 23 79q20 15 52 29l14 116h-199l-14 -119q40 -8 62 -20q5 -46 -7 -85h-285q10 50 25 79q25 17 60 29l42 332q-36 4 -62 15q-2 52 7 84h271q2 -31 -13 -85q-25 -10 -63 -14l-13 -123h200l15 123q-27 3 -50 15
q-2 49 8 84h264q0 -44 -13 -85q-28 -10 -70 -14zM360 786l105 6l122 -148q-11 -17 -32.5 -33t-40.5 -22l-111 98l-152 -100q-12 12 -22.5 37.5t-12.5 45.5z" />
    <glyph glyph-name="bracketleft.cap" horiz-adv-x="336" 
d="M46 -124l89 950h208q2 -41 -14 -89q-32 -7 -65 -9l-63 -755q46 -4 78 -14q2 -14 -0.5 -41t-7.5 -42h-225z" />
    <glyph glyph-name="circumflex.cap" horiz-adv-x="492" 
d="M183 940h130l140 -108q-8 -20 -27 -44.5t-35 -34.5l-159 81l-190 -85q-18 33 -18 90z" />
    <glyph glyph-name="guilsinglleft.cap" horiz-adv-x="360" 
d="M192 370q18 -99 59 -199q-58 -29 -125 -29q-65 129 -94 228q50 94 127 199q69 22 151 22q-69 -111 -118 -221z" />
    <glyph glyph-name="sterling.cap" horiz-adv-x="632" 
d="M108 106q52 94 52 184h-94q3 43 21 96h72q-7 38 -7 75q0 116 64 179.5t189 63.5q93 0 176 -29q-6 -77 -32 -172q-64 0 -112 22l7 69q-18 8 -47 8q-105 0 -105 -139q0 -44 6 -77h180q4 -54 -9 -96h-173q0 -101 -84 -185v-9h218q5 42 20 81q47 15 118 15l-18 -192h-539
q9 55 28 90q19 8 69 16z" />
    <glyph glyph-name="emdash.cap" horiz-adv-x="1000" 
d="M897 316h-847q5 61 24 106h832q4 -60 -9 -106z" />
    <glyph glyph-name="egrave.sc" horiz-adv-x="591" 
d="M242 95h143q12 36 24 54q56 12 106 9l-18 -158h-487q7 45 25 79q25 17 60 29l37 332q-36 4 -62 15q-4 46 7 84h467l-19 -153q-57 0 -101 13q-13 28 -15 47h-134l-12 -129h91q10 18 26 31q37 11 82 11l-21 -175q-49 -5 -86 6q-9 18 -9 37h-92zM339 590l-157 175
q20 16 60.5 29t70.5 13l113 -185q-14 -12 -42 -22t-45 -10z" />
    <glyph glyph-name="oacute.sc" horiz-adv-x="648" 
d="M355 554q115 0 179.5 -63.5t64.5 -182.5q0 -146 -92 -237t-235 -91q-117 0 -179.5 63.5t-62.5 181.5q0 147 90.5 238t234.5 91zM337 460q-69 0 -112 -66.5t-43 -157.5q0 -74 30 -117t83 -43q67 0 110 65.5t43 159.5q0 74 -29 116.5t-82 42.5zM536 755l-215 -173
q-18 7 -37.5 24t-27.5 32l151 162q30 0 72 -13.5t57 -31.5z" />
    <glyph glyph-name="adieresis.sc" horiz-adv-x="667" 
d="M390 163h-177l-8 -17q-7 -18 -27 -42q28 -4 50 -14q11 -37 7 -90h-259q7 50 24 78q25 19 57 30l242 434l123 15l144 -456q22 -3 42 -12q12 -37 10 -89h-285q9 40 33 85q19 9 46 15q-9 14 -17 43zM339 421h-12q-12 -48 -37 -98l-38 -77h120l-19 70q-14 50 -14 105z
M233 757q34 0 54.5 -20t20.5 -56q0 -38 -21 -60t-54 -22q-76 0 -76 82q0 33 22 54.5t54 21.5zM507 757q34 0 54.5 -20t20.5 -56q0 -38 -21 -60t-54 -22q-76 0 -76 82q0 33 22 54.5t54 21.5z" />
    <glyph glyph-name="f_b" horiz-adv-x="904" 
d="M383 18l77 617q-39 12 -82 12q-61 0 -106 -32.5t-52 -97.5l-4 -34h131q6 -48 -4 -99h-138l-52 -526q-35 -7 -82 -7q-40 0 -62 7l65 526h-81q7 51 29 90q31 14 63 20l4 23q19 112 98.5 167t198.5 55q123 0 218 -37l-12 -124q-6 -70 -33 -159h15q13 35 47 58t86 23
q59 0 103 -47.5t44 -140.5q0 -67 -22 -136t-59 -110q-77 -83 -200 -83q-81 0 -190 35zM562 337l-28 -252q15 -6 40 -6q56 0 88 38q45 52 45 169q0 110 -55 110q-24 0 -49 -17.5t-41 -41.5z" />
    <glyph glyph-name="j.sc" horiz-adv-x="382" 
d="M-33 -69q133 77 149 237l26 270q-48 3 -87 17q-5 41 5 84h303q2 -47 -13 -85q-24 -10 -66 -15l-20 -249q-10 -120 -75.5 -207t-183.5 -132q-12 12 -23.5 36t-14.5 44z" />
    <glyph glyph-name="semicolon.tab" horiz-adv-x="350" 
d="M157 507q40 0 64 -23t24 -65q0 -44 -24.5 -69t-63.5 -25q-90 0 -90 94q0 39 25.5 63.5t64.5 24.5zM59 13l-53 12q21 61 56 96q20 7 54 7q56 0 103 -15q-22 -75 -69 -170t-88 -151q-19 6 -43 18t-31 20q54 119 71 183z" />
    <glyph glyph-name="ccircumflex.sc" 
d="M369 381l8 69q-18 8 -45 8q-60 0 -103.5 -62t-43.5 -155q0 -76 34 -109t100 -33q82 0 158 29q0 -22 -10 -53t-24 -51q-81 -44 -180 -44q-110 0 -174 68t-64 179q0 140 95.5 233.5t239.5 93.5q94 0 166 -46q0 -74 -35 -155q-27 0 -64 8.5t-58 19.5zM310 786l105 6
l122 -148q-11 -17 -32.5 -33t-40.5 -22l-111 98l-152 -100q-12 12 -22.5 37.5t-12.5 45.5z" />
    <glyph glyph-name="gcircumflex.sc" horiz-adv-x="642" 
d="M528 185l-15 -161q-44 -17 -114 -30.5t-128 -13.5q-119 0 -182.5 60t-63.5 171q0 146 101 244.5t253 98.5q114 0 186 -52q0 -69 -31 -143q-73 4 -125 26l6 66q-25 11 -55 11q-77 0 -126 -65.5t-49 -170.5q0 -81 32 -113.5t93 -32.5q28 0 66 5l12 98q-53 6 -88 20
q-6 32 -4 80h308q-7 -41 -29 -77q-20 -14 -47 -21zM321 786l105 6l122 -148q-11 -17 -32.5 -33t-40.5 -22l-111 98l-152 -100q-12 12 -22.5 37.5t-12.5 45.5z" />
    <glyph glyph-name="f_l" horiz-adv-x="645" 
d="M216 483h131q6 -48 -4 -99h-138l-52 -526q-35 -7 -82 -7q-40 0 -62 7l65 526h-81q7 51 29 90q31 14 63 20l4 23q19 112 98.5 167t198.5 55q127 0 215 -37l-67 -591q0 -9 4 -17l70 7q0 -18 -8.5 -46t-18.5 -44q-25 -10 -73 -19t-79 -9q-15 14 -30.5 44.5t-15.5 47.5
l76 559q-39 12 -81 12q-61 0 -106 -32t-52 -97z" />
    <glyph glyph-name="breve.cap" horiz-adv-x="488" 
d="M130 953q15 -78 106 -78q92 0 131 71q45 0 85 -28q-19 -72 -80.5 -115t-154.5 -43q-85 0 -133.5 39.5t-54.5 110.5q13 15 43 27.5t58 15.5z" />
    <glyph glyph-name="four.tab" 
d="M22 181l9 91l289 421h160l-36 -409h69q3 -13 2 -47.5t-7 -55.5h-73l-8 -90q49 -4 81 -13q9 -31 -2 -78h-325q9 47 30 79q24 8 73 15l10 87h-272zM306 284l15 155q8 73 24 123h-12l-168 -274v-12q42 8 78 8h63z" />
    <glyph glyph-name="wdieresis.sc" horiz-adv-x="879" 
d="M324 757q34 0 54.5 -20t20.5 -56q0 -38 -21 -60t-54 -22q-76 0 -76 82q0 33 22 54.5t54 21.5zM652 757q34 0 54.5 -20t20.5 -56q0 -38 -21 -60t-54 -22q-76 0 -76 82q0 33 22 54.5t54 21.5zM209 426q18 -39 22 -81l13 -122q7 -71 4 -110h11q10 61 29 111l111 310l157 15
l31 -326q6 -63 1 -110h12q7 43 31 108l45 132q10 36 38 74q-30 9 -41 19q-12 50 -6 93h229q-6 -58 -26 -100q-22 -8 -49 -12l-179 -430l-156 -15l-28 304q-6 70 0 123h-12q-7 -60 -30 -123l-102 -289l-164 -15l-75 444q-27 9 -40 24q-10 44 -5 89h257q-7 -56 -24 -96
q-17 -10 -54 -17z" />
    <glyph glyph-name="ibreve" horiz-adv-x="294" 
d="M81 385l-70 -6q0 16 8 47t17 40q48 28 128 28q30 0 62 -9l-47 -374q0 -9 4 -17l73 7q0 -18 -8.5 -46t-18.5 -44q-25 -11 -72 -19.5t-78 -8.5q-15 14 -30.5 44.5t-15.5 47.5zM80 751q6 -91 81 -91q67 0 104 86q54 -4 83 -25q-22 -76 -74.5 -120.5t-128.5 -44.5
q-73 0 -111 41.5t-40 116.5q28 28 86 37z" />
    <glyph glyph-name="thorn.sc" horiz-adv-x="551" 
d="M276 447l-2 -26q16 2 31 2q108 0 161 -29t53 -99q0 -84 -68.5 -129.5t-163.5 -45.5q-23 0 -43 3l-3 -26q47 -8 73 -18q2 -14 0 -40t-6 -39h-298q9 47 25 75q21 14 59 27l42 344q-38 4 -63 14q-2 43 7 79h281q2 -39 -12 -79q-24 -9 -73 -13zM262 335l-13 -130q20 -2 34 -2
q104 0 104 69q0 65 -83 65q-18 0 -42 -2z" />
    <glyph glyph-name="brokenbar.sc" horiz-adv-x="297" 
d="M188 197l-24 -238q-22 -6 -62 -6q-36 0 -62 6l27 223q54 15 121 15zM230 576l-24 -226q-21 -6 -59 -6q-36 0 -60 6l27 211q49 15 116 15z" />
    <glyph glyph-name="three.taboldstyle" 
d="M208 448l-8 -64q-42 -25 -124 -29q-12 76 6 161q108 43 214 43q81 0 136.5 -36.5t55.5 -107.5q0 -58 -41 -106t-95 -64v-9q52 -10 83.5 -43t31.5 -88q0 -101 -92.5 -161.5t-211.5 -60.5q-79 0 -146 23q-9 18 -14.5 52t-1.5 55q76 -26 160 -26q58 0 101 24.5t43 71.5
q0 50 -42 72.5t-134 22.5q0 45 19 96q46 2 85 14t67.5 39.5t28.5 67.5q0 32 -18 48.5t-44 16.5q-31 0 -59 -12z" />
    <glyph glyph-name="imacron.sc" horiz-adv-x="390" 
d="M383 627h-334q5 57 23 102h319q6 -50 -8 -102zM273 440l-33 -335q47 -7 72 -20q5 -46 -7 -85h-297q7 45 25 79q25 17 60 29l38 332q-36 4 -62 15q-4 46 7 84h280q0 -44 -13 -85q-28 -10 -70 -14z" />
    <glyph glyph-name="ncaron.sc" horiz-adv-x="722" 
d="M309 539l123 -235q12 -24 27 -67t19 -72h12l33 275q-47 4 -77 15q-5 41 5 84h250q2 -30 -11 -85q-25 -10 -60 -14l-49 -442l-148 -16l-144 275q-11 21 -24 61.5t-17 68.5h-12l-29 -282q43 -8 65 -20q3 -53 -7 -85h-259q10 50 25 79q25 17 60 29l40 332q-37 4 -61 15
q-4 43 6 84h233zM440 595l-112 -5l-127 160q14 14 42 25t49 13l114 -90l141 91q17 -5 39 -19.5t33 -27.5z" />
    <glyph glyph-name="scircumflex.sc" horiz-adv-x="524" 
d="M326 417l5 49q-18 8 -43 8q-31 0 -46 -16.5t-15 -42.5t24 -44t58.5 -31.5t68.5 -31t58 -52.5t24 -86q0 -92 -70 -141t-178 -49q-113 0 -193 49q-2 12 -2 26q0 61 23 115q79 0 134 -20l-7 -65q26 -15 67 -15q37 0 56.5 18.5t19.5 52.5q0 28 -24.5 47.5t-59 33t-69 30.5
t-59 50.5t-24.5 81.5q0 79 61 127t161 48q108 0 184 -44q0 -69 -26 -128q-80 0 -128 30zM259 786l105 6l122 -148q-11 -17 -32.5 -33t-40.5 -22l-111 98l-152 -100q-12 12 -22.5 37.5t-12.5 45.5z" />
    <glyph glyph-name="nine.taboldstyle" 
d="M345 180h-12q-44 -53 -118 -53q-80 0 -121.5 51.5t-41.5 134.5q0 108 70.5 177t179.5 69q100 0 151 -65.5t51 -191.5q0 -180 -94 -299.5t-241 -119.5q-69 0 -129 25q-10 21 -16 54t-2 55q60 -25 135 -25q59 0 110.5 42t77.5 146zM359 277q4 25 4 53q0 63 -20 99.5
t-55 36.5q-40 0 -66 -42t-26 -100q0 -46 18 -71.5t48 -25.5q55 0 97 50z" />
    <glyph glyph-name="hyphen.cap" horiz-adv-x="343" 
d="M285 311h-269q5 60 25 112h253q6 -57 -9 -112z" />
    <glyph glyph-name="dotaccent.cap" horiz-adv-x="460" 
d="M223 925q38 0 61.5 -21.5t23.5 -58.5q0 -40 -24 -63t-61 -23q-88 0 -88 86q0 34 25 57t63 23z" />
    <glyph glyph-name="notequal.cap" 
d="M472 191h-266l-61 -84q-13 3 -33.5 16t-28.5 23l32 45h-78q5 57 23 104h128l67 93h-195q5 57 23 104h245l47 64q46 0 80 -17l-35 -47h85q6 -53 -9 -104h-149l-67 -93h201q6 -53 -9 -104z" />
    <glyph glyph-name="five.taboldstyle" 
d="M134 542h378q-7 -67 -28 -126q-110 7 -240 10l-16 -133q25 8 62 8q83 0 133 -42t50 -128q0 -78 -45 -136t-111 -85t-140 -27q-68 0 -132 19q-9 19 -14.5 51.5t-1.5 53.5q73 -19 136 -19q65 0 108.5 32.5t43.5 95.5q0 86 -98 86q-53 0 -144 -20z" />
    <glyph glyph-name="sacute.sc" horiz-adv-x="524" 
d="M326 417l5 49q-18 8 -43 8q-31 0 -46 -16.5t-15 -42.5t24 -44t58.5 -31.5t68.5 -31t58 -52.5t24 -86q0 -92 -70 -141t-178 -49q-113 0 -193 49q-2 12 -2 26q0 61 23 115q79 0 134 -20l-7 -65q26 -15 67 -15q37 0 56.5 18.5t19.5 52.5q0 28 -24.5 47.5t-59 33t-69 30.5
t-59 50.5t-24.5 81.5q0 79 61 127t161 48q108 0 184 -44q0 -69 -26 -128q-80 0 -128 30zM490 755l-215 -173q-18 7 -37.5 24t-27.5 32l151 162q30 0 72 -13.5t57 -31.5z" />
    <glyph glyph-name="greater.cap" 
d="M478 297l-338 -237q-17 12 -38.5 45.5t-26.5 55.5l267 172v12l-236 189q40 38 106 64l270 -220z" />
    <glyph glyph-name="f_f_j" horiz-adv-x="999" 
d="M221 529l-5 -46h227l6 36q18 108 99.5 164t205.5 56q120 0 215 -35q0 -32 -10.5 -78t-24.5 -76q-28 0 -65 9t-57 20l6 54q-36 13 -79 13q-61 0 -106.5 -32.5t-52.5 -94.5l-4 -36h115q6 -48 -4 -99h-122l-38 -380q-35 -7 -80 -7q-38 0 -60 7l47 380h-229l-52 -526
q-35 -7 -82 -7q-40 0 -62 7l65 526h-81q7 51 29 90q31 14 63 20l5 32q16 103 74 152t142 49q56 0 127 -24q0 -30 -10 -72t-24 -71q-25 0 -57 9t-50 20l6 46q-9 3 -18 3q-48 0 -59 -109zM703 -237q-48 21 -71 60q47 49 85 125.5t49 160.5l37 276l-67 -6q0 16 8 47t17 40
q47 28 126 28q29 0 61 -9l-38 -339q-23 -215 -207 -383z" />
    <glyph glyph-name="f_f_k" horiz-adv-x="1243" 
d="M959 699l-47 -444q88 55 148 120q0 10 -4 18l-64 -3q2 22 12.5 49t22.5 38q46 17 137 17q13 -11 29 -46.5t16 -55.5q-76 -94 -156 -147q39 -81 94 -155l59 7q0 -19 -8.5 -50t-18.5 -50q-40 -15 -117 -21q-58 68 -120 207q-18 -10 -38 -18l-17 -161q-39 -7 -85 -7
q-40 0 -64 7l78 628q-40 14 -80 14q-61 0 -105 -32t-51 -97l-4 -34h131q6 -48 -4 -99h-138l-52 -526q-35 -7 -82 -7q-40 0 -62 7l64 526h-228l-38 -380q-35 -7 -80 -7q-34 0 -60 7l47 380h-81q7 51 29 90q31 14 63 20l5 32q16 103 74 152t142 49q56 0 127 -24q0 -30 -10 -72
t-24 -71q-25 0 -57 9t-50 20l6 46q-9 3 -18 3q-48 0 -59 -109l-5 -46h227l6 34q18 112 97.5 167t197.5 55q46 0 108 -10.5t107 -29.5z" />
    <glyph glyph-name="f_f_h" horiz-adv-x="1283" 
d="M968 700l-13 -120q-7 -73 -34 -162h15q52 82 141 82q56 0 93 -32.5t37 -105.5q0 -37 -31 -251q0 -9 4 -17l73 7q0 -18 -8.5 -46t-18.5 -44q-25 -10 -74 -19t-80 -9q-15 14 -30.5 44.5t-15.5 47.5q37 196 37 261q0 62 -45 62q-47 0 -93 -73l-35 -321q-38 -7 -85 -7
q-40 0 -64 7l85 628q-42 14 -83 14q-63 0 -109 -32t-54 -97l-4 -34h131q6 -48 -4 -99h-138l-52 -526q-35 -7 -82 -7q-40 0 -62 7l65 526h-229l-38 -380q-35 -7 -80 -7q-34 0 -60 7l47 380h-81q7 51 29 90q31 14 63 20l5 32q16 103 74 152t142 49q56 0 127 -24q0 -30 -10 -72
t-24 -71q-25 0 -57 9t-50 20l6 46q-9 3 -18 3q-48 0 -59 -109l-5 -46h228l5 34q17 111 98.5 166.5t202.5 55.5q124 0 218 -39z" />
    <glyph glyph-name="guilsinglright.cap" horiz-adv-x="353" 
d="M137 370q-21 94 -57 192q60 33 122 33q62 -118 94 -225q-51 -93 -151 -230q-56 4 -111 38q58 92 103 192z" />
    <glyph glyph-name="two.taboldstyle" 
d="M212 355q-49 -25 -125 -27q-4 40 -4 65q0 67 14 115q109 51 217 51q188 0 188 -127q0 -47 -25.5 -93.5t-74 -89.5t-82 -67.5t-85.5 -58.5v-12q147 6 249 20q-2 -72 -21 -131h-414l-6 96q20 17 79.5 61t102 77.5t79 80.5t36.5 85q0 59 -54 59q-38 0 -63 -18z" />
    <glyph glyph-name="greaterequal.cap" 
d="M490 394l-341 -242q-19 12 -42.5 44.5t-29.5 54.5l258 175v12l-211 177q36 41 102 70l268 -220zM451 0h-419q4 49 23 103h405q6 -52 -9 -103z" />
    <glyph glyph-name="tcommaaccent.sc" horiz-adv-x="597" 
d="M450 449h-72l-32 -343q51 -6 90 -24q6 -41 -6 -82h-334q8 40 29 76q41 22 72 31l39 342h-72q-8 -39 -26 -74q-47 -19 -111 -19l22 183h540l-22 -182q-61 0 -105 19q-12 40 -12 73zM193 -154l-49 10q24 57 51 86q21 6 50 6q51 0 90 -13q-16 -55 -56.5 -135.5t-74.5 -126.5
q-35 10 -65 34q38 83 54 139z" />
    <glyph glyph-name="logicalnot.cap" 
d="M70 404h438l-23 -209q-21 -7 -61 -7t-70 7l15 99h-324q5 58 25 110z" />
    <glyph glyph-name="ccaron.sc" 
d="M369 381l8 69q-18 8 -45 8q-60 0 -103.5 -62t-43.5 -155q0 -76 34 -109t100 -33q82 0 158 29q0 -22 -10 -53t-24 -51q-81 -44 -180 -44q-110 0 -174 68t-64 179q0 140 95.5 233.5t239.5 93.5q94 0 166 -46q0 -74 -35 -155q-27 0 -64 8.5t-58 19.5zM392 595l-112 -5
l-127 160q14 14 42 25t49 13l114 -90l141 91q17 -5 39 -19.5t33 -27.5z" />
    <glyph glyph-name="utilde.sc" horiz-adv-x="662" 
d="M404 539h254q0 -32 -16 -85q-24 -10 -65 -14l-22 -215q-11 -111 -81.5 -178t-187.5 -67q-111 0 -162.5 48t-51.5 144q0 22 3 48l23 216q-32 7 -56 18q-7 29 -7 85h305q0 -36 -14 -84q-40 -11 -83 -15l-20 -213q-2 -28 -2 -38q0 -54 21 -80.5t67 -26.5q112 0 127 133
l24 225q-39 4 -67 15q0 47 11 84zM493 754q52 0 79 -17q-8 -53 -50 -93t-107 -40q-35 0 -75 21.5t-64 21.5q-39 0 -54 -38q-20 3 -39 15t-26 28q13 47 50 77t95 30q38 0 76.5 -21t60.5 -21q35 0 54 37z" />
    <glyph glyph-name="x.sc" horiz-adv-x="647" 
d="M355 340l33 50q15 23 38 42q-20 8 -29 17q-9 46 -2 90h224q-5 -47 -24 -94q-21 -10 -54 -14l-133 -160l119 -166q31 -5 51 -12q15 -41 15 -93h-282q8 55 23 86q15 11 34 17q-20 13 -37 40l-48 73l-51 -68q-15 -22 -42 -45q27 -6 41 -14q10 -38 10 -89h-262q7 45 25 85
q25 13 51 21l170 187l-96 138q-32 6 -49 16q-16 43 -12 92h273q-6 -59 -20 -94q-13 -9 -32 -15q15 -13 26 -30z" />
    <glyph glyph-name="ring.sc" horiz-adv-x="443" 
d="M255 821q110 0 110 -99q0 -61 -41 -98t-110 -37q-109 0 -109 98q0 61 40 98.5t110 37.5zM247 754q-30 0 -47 -17t-17 -43q0 -38 39 -38q29 0 46 16.5t17 44.5q0 37 -38 37z" />
    <glyph glyph-name="e.sc" horiz-adv-x="591" 
d="M242 95h143q12 36 24 54q56 12 106 9l-18 -158h-487q7 45 25 79q25 17 60 29l37 332q-36 4 -62 15q-4 46 7 84h467l-19 -153q-57 0 -101 13q-13 28 -15 47h-134l-12 -129h91q10 18 26 31q37 11 82 11l-21 -175q-49 -5 -86 6q-9 18 -9 37h-92z" />
    <glyph glyph-name="ibreve.sc" horiz-adv-x="390" 
d="M273 440l-33 -335q47 -7 72 -20q5 -46 -7 -85h-297q7 45 25 79q25 17 60 29l38 332q-36 4 -62 15q-4 46 7 84h280q0 -44 -13 -85q-28 -10 -70 -14zM131 781q6 -85 90 -85q75 0 115 80q54 -4 83 -25q-23 -73 -78.5 -116t-135.5 -43q-77 0 -117.5 40t-42.5 112q28 28 86 37
z" />
    <glyph glyph-name="rcommaaccent.sc" horiz-adv-x="623" 
d="M85 535q104 13 230 13q117 0 176.5 -35.5t59.5 -114.5q0 -55 -32.5 -98.5t-84.5 -62.5q59 -125 89 -146l52 7q-2 -52 -30 -98q-46 -12 -121 -17q-53 34 -114 229q-29 0 -59 6l-12 -115q35 -6 58 -20q4 -45 -7 -83h-280q10 50 25 79q25 17 60 29l40 330q-35 2 -61 9
q-4 44 11 88zM273 450l-15 -142q16 -4 51 -4q94 0 94 81q0 68 -87 68q-25 0 -43 -3zM233 -154l-49 10q24 57 51 86q21 6 50 6q51 0 90 -13q-16 -55 -56.5 -135.5t-74.5 -126.5q-35 10 -65 34q38 83 54 139z" />
    <glyph glyph-name="zero.taboldstyle" 
d="M308 559q102 0 156.5 -62.5t54.5 -185.5q0 -150 -78 -240.5t-207 -90.5q-211 0 -211 246q0 150 78 241.5t207 91.5zM286 463q-51 0 -79 -66.5t-28 -161.5q0 -158 77 -158q49 0 78.5 66.5t29.5 162.5q0 157 -78 157z" />
    <glyph glyph-name="six.taboldstyle" 
d="M213 361h11q40 52 116 52q78 0 121 -50t43 -132q0 -108 -75 -179.5t-184 -71.5q-100 0 -150.5 65t-50.5 188q0 182 102.5 301t246.5 119q63 0 109 -23q9 -20 13.5 -55t0.5 -57q-23 12 -60.5 21t-65.5 9q-55 0 -104.5 -43.5t-72.5 -143.5zM199 273q-5 -35 -5 -68
q0 -61 18.5 -95.5t51.5 -34.5q40 0 67 44t27 103q0 45 -18.5 68.5t-52.5 23.5q-49 0 -88 -41z" />
    <glyph glyph-name="yen.cap" horiz-adv-x="632" 
d="M538 172h-160l-5 -74q59 -4 96 -13q4 -15 3 -43t-6 -42h-361q5 38 31 83q31 9 82 16l6 73h-163q5 48 20 90h151l2 16l-23 57h-133q5 48 20 90h77l-62 155q-22 3 -41 12q-9 45 -6 92h272q-6 -54 -24 -96q-21 -6 -59 -8q16 -14 30 -51l28 -73q21 -52 22 -103h12
q11 54 39 102l48 81q14 23 39 45q-29 4 -47 12q-9 45 -9 91h234q-7 -59 -20 -91q-22 -6 -46 -8l-102 -160h79q4 -48 -7 -90h-130l-40 -63l-1 -10h161q4 -48 -7 -90z" />
    <glyph glyph-name="seven.tab" 
d="M564 684l-7 -98q-190 -333 -279 -582q-28 -7 -71 -7q-50 0 -88 8q124 318 309 557v12h-218q-3 -41 -22 -95q-46 -17 -119 -17l18 222h477z" />
    <glyph glyph-name="zdotaccent.sc" horiz-adv-x="554" 
d="M16 0l-5 70l299 364v12h-122q-13 -38 -35 -75q-57 2 -106 25l17 143h434l5 -76l-293 -361v-12q68 0 145 14q9 33 27 64q20 8 61.5 10.5t61.5 -1.5l-30 -177h-459zM308 761q36 0 58 -21t22 -58q0 -40 -22.5 -62.5t-57.5 -22.5q-81 0 -81 85q0 34 23 56.5t58 22.5z" />
    <glyph glyph-name="ntilde.sc" horiz-adv-x="722" 
d="M309 539l123 -235q12 -24 27 -67t19 -72h12l33 275q-47 4 -77 15q-5 41 5 84h250q2 -30 -11 -85q-25 -10 -60 -14l-49 -442l-148 -16l-144 275q-11 21 -24 61.5t-17 68.5h-12l-29 -282q43 -8 65 -20q3 -53 -7 -85h-259q10 50 25 79q25 17 60 29l40 332q-37 4 -61 15
q-4 43 6 84h233zM527 754q52 0 79 -17q-8 -53 -50 -93t-107 -40q-35 0 -75 21.5t-64 21.5q-39 0 -54 -38q-20 3 -39 15t-26 28q13 47 50 77t95 30q38 0 76.5 -21t60.5 -21q35 0 54 37z" />
    <glyph glyph-name="ordmasculine.cap" horiz-adv-x="415" 
d="M242 704q70 0 110.5 -36t40.5 -101q0 -83 -44 -138q-53 -66 -149 -66q-73 0 -112.5 38t-39.5 108q0 78 41 128q55 67 153 67zM233 627q-35 0 -54 -28q-19 -29 -19 -82q0 -35 13 -55t37 -20q29 0 48 25q24 31 24 91q0 31 -13.5 50t-35.5 19zM343 239h-308q3 45 19 85h296
q4 -45 -7 -85z" />
    <glyph glyph-name="yacute.sc" horiz-adv-x="584" 
d="M347 217l-13 -113q54 -7 85 -21q6 -42 -6 -83h-329q7 36 29 77q28 15 72 28l11 91l-124 233q-24 7 -40 17q-10 58 -5 93h272q-5 -53 -22 -97q-17 -9 -48 -16q15 -16 23 -38l14 -40q12 -33 17 -66h11q13 38 36 69l26 38q20 27 34 38q-23 10 -31 18q-10 51 -3 94h233
q-6 -57 -29 -100q-20 -8 -51 -12zM510 755l-215 -173q-18 7 -37.5 24t-27.5 32l151 162q30 0 72 -13.5t57 -31.5z" />
    <glyph glyph-name="dieresis.sc" horiz-adv-x="550" 
d="M143 757q34 0 54.5 -20t20.5 -56q0 -38 -21 -60t-54 -22q-76 0 -76 82q0 33 22 54.5t54 21.5zM417 757q34 0 54.5 -20t20.5 -56q0 -38 -21 -60t-54 -22q-76 0 -76 82q0 33 22 54.5t54 21.5z" />
    <glyph glyph-name="degree.cap" horiz-adv-x="393" 
d="M225 704q63 0 100 -31t37 -88q0 -81 -46 -126.5t-126 -45.5q-137 0 -137 121q0 77 47.5 123.5t124.5 46.5zM215 621q-26 0 -41 -20t-15 -50q0 -25 11.5 -40t30.5 -15q24 0 39.5 22t15.5 55q0 21 -11 34.5t-30 13.5z" />
    <glyph glyph-name="commaaccent.cap" horiz-adv-x="445" 
d="M132 -152l-51 11q21 55 52 88q24 6 52 6q49 0 92 -16q-14 -59 -57 -144.5t-80 -134.5q-48 13 -69 34q46 92 61 156z" />
    <glyph glyph-name="aeacute.sc" horiz-adv-x="865" 
d="M518 95h141q12 36 24 54q56 12 106 9l-18 -158h-484q7 45 25 79q25 17 60 29l8 69h-151l-16 -24q-17 -26 -49 -49q29 -4 49 -14q13 -37 9 -90h-253q9 54 25 78q26 19 56 30l234 332q-41 3 -72 15q-8 44 4 84h602l-19 -153q-57 0 -101 13q-13 28 -15 47h-132l-12 -129h89
q10 18 26 31q37 11 82 11l-21 -175q-49 -5 -86 6q-9 18 -9 37h-90zM352 361l-65 -99h103l21 184h-12q-17 -40 -47 -85zM680 755l-215 -173q-18 7 -37.5 24t-27.5 32l151 162q30 0 72 -13.5t57 -31.5z" />
    <glyph glyph-name="questiondown.cap" horiz-adv-x="455" 
d="M288 87l9 88q45 25 117 29q6 -83 -4 -186q-112 -38 -221 -38q-86 0 -136.5 36t-50.5 98q0 45 22.5 83t55 64t64.5 49t54.5 48.5t22.5 51.5q0 34 -16 60q55 32 115 37q16 -17 27.5 -44t11.5 -51q0 -36 -20 -68.5t-49 -56.5t-58 -47t-49 -50.5t-20 -56.5q0 -24 15.5 -41.5
t47.5 -17.5t62 13zM276 729q38 0 60 -22t22 -62t-23 -64t-59 -24q-85 0 -85 88q0 36 24.5 60t60.5 24z" />
    <glyph glyph-name="parenright.cap" horiz-adv-x="307" 
d="M-31 -84q139 249 139 575q0 157 -34 277q51 36 116 41q60 -163 60 -360q0 -143 -40 -277.5t-131 -299.5q-68 14 -110 44z" />
    <glyph glyph-name="navigation01" 
d="M38 -32q2 103 23 278t43 269q93 -44 241.5 -130t220.5 -140q-89 -56 -258.5 -145t-269.5 -132z" />
    <glyph glyph-name="dieresis.cap" horiz-adv-x="527" 
d="M98 923q37 0 60 -21t23 -57q0 -39 -23.5 -61t-59.5 -22q-85 0 -85 83q0 34 24.5 56t60.5 22zM407 923q37 0 60 -21t23 -57q0 -39 -23.5 -61t-59.5 -22q-85 0 -85 83q0 34 24.5 56t60.5 22z" />
    <glyph glyph-name="navigation07" 
d="M310 500q104 0 162.5 -57t58.5 -163q0 -132 -86 -214.5t-211 -82.5q-101 0 -158.5 57.5t-57.5 161.5q0 128 81.5 213t210.5 85z" />
    <glyph glyph-name="eogonek.sc" horiz-adv-x="591" 
d="M242 95h143q12 36 24 54q56 12 106 9l-18 -158h-41q-101 -46 -101 -98q0 -35 43 -35q15 0 27 4q13 -30 13 -73q-32 -15 -83 -15q-50 0 -84.5 24t-34.5 70q0 85 105 114v9h-331q7 45 25 79q25 17 60 29l37 332q-36 4 -62 15q-4 46 7 84h467l-19 -153q-57 0 -101 13
q-13 28 -15 47h-134l-12 -129h91q10 18 26 31q37 11 82 11l-21 -175q-49 -5 -86 6q-9 18 -9 37h-92z" />
    <glyph glyph-name="five.tab" 
d="M259 559l-19 -139q22 7 59 7q87 0 139.5 -48.5t52.5 -146.5q0 -123 -82 -187.5t-203 -64.5q-77 0 -138 16q-15 24 -23 64.5t-3 71.5q37 -20 86 -34t85 -14q53 0 87 36t34 100q0 108 -110 108q-65 0 -131 -16l63 372h379q-4 -65 -24 -125h-252z" />
    <glyph glyph-name="exclamdown.sc" horiz-adv-x="333" 
d="M42 -11l63 338q43 17 108 17l-10 -355q-42 -9 -80 -9q-42 0 -81 9zM178 559q35 0 56.5 -21t21.5 -57q0 -39 -22 -61.5t-56 -22.5q-38 0 -59 21.5t-21 62.5q0 33 23.5 55.5t56.5 22.5z" />
    <glyph glyph-name="omacron.sc" horiz-adv-x="648" 
d="M547 627h-403q5 57 23 102h388q6 -50 -8 -102zM355 554q115 0 179.5 -63.5t64.5 -182.5q0 -146 -92 -237t-235 -91q-117 0 -179.5 63.5t-62.5 181.5q0 147 90.5 238t234.5 91zM337 460q-69 0 -112 -66.5t-43 -157.5q0 -74 30 -117t83 -43q67 0 110 65.5t43 159.5
q0 74 -29 116.5t-82 42.5z" />
    <glyph glyph-name="braceleft.sc" horiz-adv-x="354" 
d="M44 227q8 56 29 95q35 3 47.5 18.5t16.5 50.5l15 124q8 68 57 106.5t162 41.5q-7 -60 -33 -102q-25 -3 -37.5 -16t-15.5 -40l-13 -120q-8 -79 -82 -107v-9q67 -22 58 -112l-11 -114q-4 -44 5.5 -61.5t36.5 -20.5q5 -49 -9 -94q-105 3 -146 42.5t-32 111.5l14 116
q6 45 -5.5 65.5t-56.5 24.5z" />
    <glyph glyph-name="currency.cap" horiz-adv-x="632" 
d="M156 483l-58 77q37 46 82 62l50 -82q52 26 113 26q54 0 101 -22l66 76q20 -7 41.5 -23.5t30.5 -32.5l-75 -76q28 -44 28 -102q0 -50 -18 -98t-48 -80l58 -77q-29 -41 -81 -52l-49 75q-49 -23 -110 -23q-62 0 -106 23l-70 -78q-46 14 -67 55l78 80q-25 40 -25 101
q0 108 59 171zM300 229q44 0 74.5 42t30.5 100q0 45 -20 71t-56 26q-46 0 -74.5 -41t-28.5 -97q0 -46 19.5 -73.5t54.5 -27.5z" />
    <glyph glyph-name="navigation03" 
d="M454 -32q-87 44 -232.5 133t-220.5 145q86 54 253 140t266 129q-3 -100 -24 -275t-42 -272z" />
    <glyph glyph-name="ccedilla.sc" 
d="M192 -80l36 62q-95 11 -149 77t-54 168q0 140 95.5 233.5t239.5 93.5q94 0 166 -46q0 -74 -35 -155q-27 0 -64 8.5t-58 19.5l8 69q-18 8 -45 8q-60 0 -103.5 -62t-43.5 -155q0 -76 34 -109t100 -33q82 0 158 29q0 -22 -10 -53t-24 -51q-47 -26 -122 -39l-13 -39
q24 -5 40.5 -22.5t16.5 -44.5q0 -46 -48 -78.5t-106 -37.5q-31 21 -43 61q31 4 53 18.5t22 36.5q0 32 -51 41z" />
    <glyph glyph-name="cedilla.cap" horiz-adv-x="448" 
d="M113 -94l55 108q45 13 102 13l-25 -82q26 -5 45 -25t19 -52q0 -58 -52 -94t-119 -43q-33 22 -47 65q75 11 75 62q0 37 -53 48z" />
    <glyph glyph-name="navigation06" 
d="M1 0l62 483h494l-51 -483h-505zM176 366l-24 -249h231l31 249h-238z" />
    <glyph glyph-name="percent.cap" horiz-adv-x="932" 
d="M785 689l-546 -734q-24 5 -53.5 22.5t-42.5 34.5l531 702q69 -2 111 -25zM240 704q74 0 114 -42t40 -123q0 -95 -54.5 -151t-143.5 -56q-74 0 -113.5 41t-39.5 120q0 95 53.5 153t143.5 58zM227 617q-29 0 -44 -33.5t-15 -82.5q0 -81 42 -81q28 0 44 34t16 84
q0 79 -43 79zM715 352q74 0 114 -42t40 -123q0 -95 -54.5 -151t-143.5 -56q-74 0 -113.5 41t-39.5 120q0 95 53.5 153t143.5 58zM702 265q-29 0 -44 -33.5t-15 -82.5q0 -81 42 -81q28 0 44 34t16 84q0 79 -43 79z" />
    <glyph glyph-name="endash.cap" horiz-adv-x="500" 
d="M440 316h-410q5 61 24 106h395q4 -60 -9 -106z" />
    <glyph glyph-name="aacute.sc" horiz-adv-x="667" 
d="M390 163h-177l-8 -17q-7 -18 -27 -42q28 -4 50 -14q11 -37 7 -90h-259q7 50 24 78q25 19 57 30l242 434l123 15l144 -456q22 -3 42 -12q12 -37 10 -89h-285q9 40 33 85q19 9 46 15q-9 14 -17 43zM339 421h-12q-12 -48 -37 -98l-38 -77h120l-19 70q-14 50 -14 105z
M548 755l-215 -173q-18 7 -37.5 24t-27.5 32l151 162q30 0 72 -13.5t57 -31.5z" />
    <glyph glyph-name="zero.tab" 
d="M325 704q105 0 156.5 -72.5t51.5 -226.5q0 -193 -77.5 -309t-216.5 -116q-105 0 -155.5 71.5t-50.5 223.5q0 191 75.5 310t216.5 119zM304 605q-31 0 -54 -30.5t-35.5 -81.5t-18 -106t-5.5 -115q0 -97 16.5 -144t54.5 -47q55 0 85 99t30 232q0 98 -16.5 145.5t-56.5 47.5
z" />
    <glyph glyph-name="hbar.sc" horiz-adv-x="747" 
d="M625 446l-5 -45h57q4 -32 -5 -67h-59l-24 -229q47 -7 72 -20q5 -46 -7 -85h-284q10 51 23 79q20 15 52 29l11 93h-199l-11 -96q40 -8 62 -20q5 -46 -7 -85h-285q10 50 25 79q25 17 60 29l29 226h-61q3 35 15 67h54l6 45q-40 4 -63 14q-2 48 7 79h271q0 -39 -13 -80
q-28 -9 -62 -13l-5 -45h201l6 45q-31 4 -51 14q-2 45 8 79h264q0 -41 -13 -80q-32 -10 -69 -13zM267 294h200l5 40h-201z" />
    <glyph glyph-name="parenright.sc" horiz-adv-x="319" 
d="M75 -115q-63 6 -105 43q65 88 99.5 202.5t34.5 233.5q0 131 -42 248q19 15 55 27.5t64 12.5q63 -155 63 -308q0 -218 -169 -459z" />
    <glyph glyph-name="Euro.cap" horiz-adv-x="632" 
d="M466 366h-447q5 48 20 90h52q43 115 142 181.5t222 66.5q99 0 186 -39q-9 -91 -31 -166q-69 0 -120 29l6 70q-28 7 -55 7q-65 0 -115 -39t-75 -110h222q4 -48 -7 -90zM25 293h434q4 -48 -7 -90h-206q37 -106 156 -106q90 0 187 34q0 -21 -10 -51t-23 -50
q-100 -50 -206 -50q-108 0 -180.5 59.5t-95.5 163.5h-69q5 48 20 90z" />
    <glyph glyph-name="three.fitted" horiz-adv-x="558" 
d="M203 592l-8 -78q-41 -23 -115 -23q-11 82 -11 172q110 41 226 41q89 0 147 -39.5t58 -120.5q0 -73 -47 -122t-110 -59v-9q140 -19 140 -151q0 -106 -92 -164.5t-217 -58.5q-74 0 -150 21q-14 25 -22.5 65.5t-3.5 71.5q35 -18 95 -34t102 -16q52 0 90 27t38 79
q0 61 -53 85t-170 24q0 61 21 101q223 0 223 121q0 40 -22 60t-52 20q-35 0 -67 -13z" />
    <glyph glyph-name="odieresis.sc" horiz-adv-x="648" 
d="M199 757q34 0 54.5 -20t20.5 -56q0 -38 -21 -60t-54 -22q-76 0 -76 82q0 33 22 54.5t54 21.5zM505 757q34 0 54.5 -20t20.5 -56q0 -38 -21 -60t-54 -22q-76 0 -76 82q0 33 22 54.5t54 21.5zM355 554q115 0 179.5 -63.5t64.5 -182.5q0 -146 -92 -237t-235 -91
q-117 0 -179.5 63.5t-62.5 181.5q0 147 90.5 238t234.5 91zM337 460q-69 0 -112 -66.5t-43 -157.5q0 -74 30 -117t83 -43q67 0 110 65.5t43 159.5q0 74 -29 116.5t-82 42.5z" />
    <glyph glyph-name="six.tab" 
d="M225 396h12q41 48 108 48q86 0 130 -54.5t44 -149.5q0 -120 -69 -190t-186 -70q-108 0 -159.5 66t-51.5 202q0 202 99.5 329t246.5 127q62 0 111 -15q12 -22 18.5 -62.5t2.5 -68.5q-27 17 -65.5 28t-68.5 11q-53 0 -101.5 -45t-70.5 -156zM213 298q-4 -33 -4 -66
q0 -154 70 -154q41 0 64.5 45.5t23.5 113.5q0 107 -67 107q-41 0 -87 -46z" />
    <glyph glyph-name="c.sc" 
d="M369 381l8 69q-18 8 -45 8q-60 0 -103.5 -62t-43.5 -155q0 -76 34 -109t100 -33q82 0 158 29q0 -22 -10 -53t-24 -51q-81 -44 -180 -44q-110 0 -174 68t-64 179q0 140 95.5 233.5t239.5 93.5q94 0 166 -46q0 -74 -35 -155q-27 0 -64 8.5t-58 19.5z" />
    <glyph glyph-name="bar.sc" horiz-adv-x="298" 
d="M231 572l-67 -613q-22 -6 -61 -6q-35 0 -61 6l73 599q58 14 116 14z" />
    <glyph glyph-name="tcaron.sc" horiz-adv-x="597" 
d="M450 449h-72l-32 -343q51 -6 90 -24q6 -41 -6 -82h-334q8 40 29 76q41 22 72 31l39 342h-72q-8 -39 -26 -74q-47 -19 -111 -19l22 183h540l-22 -182q-61 0 -105 19q-12 40 -12 73zM370 595l-112 -5l-127 160q14 14 42 25t49 13l114 -90l141 91q17 -5 39 -19.5t33 -27.5z
" />
    <glyph glyph-name="breve.sc" horiz-adv-x="550" 
d="M189 781q6 -85 90 -85q75 0 115 80q54 -4 83 -25q-23 -73 -78.5 -116t-135.5 -43q-77 0 -117.5 40t-42.5 112q28 28 86 37z" />
    <glyph glyph-name="Tbar_h" horiz-adv-x="1125" 
d="M665 615h-248l-16 -211h118q5 -43 -7 -93h-117l-15 -205q53 -3 95 -14q4 -17 3 -46.5t-5 -45.5h-359q5 44 30 89q38 11 83 17l18 205h-122q5 54 21 93h109l19 211h-98q-9 -46 -21 -81q-42 -14 -114 -14l16 189h609q42 11 86 11q28 0 60 -9l-13 -131q-7 -73 -34 -162h15
q52 82 141 82q56 0 93 -32.5t37 -105.5q0 -37 -31 -251q0 -9 4 -17l73 7q0 -18 -8.5 -46t-18.5 -44q-25 -10 -74 -19t-80 -9q-15 14 -30.5 44.5t-15.5 47.5q37 196 37 261q0 62 -45 62q-47 0 -93 -73l-35 -321q-38 -7 -85 -7q-40 0 -64 7z" />
    <glyph glyph-name="ldot.sc" horiz-adv-x="587" 
d="M239 91q87 0 136 9q11 39 29 74q50 10 100 5l-19 -179h-477q10 50 25 79q25 17 60 29l40 332q-36 4 -62 15q-2 52 7 84h308q2 -35 -14 -85q-38 -10 -97 -14zM502 396q36 0 58 -21t22 -58q0 -40 -22.5 -62.5t-57.5 -22.5q-81 0 -81 85q0 34 23 56.5t58 22.5z" />
    <glyph glyph-name="m.sc" horiz-adv-x="903" 
d="M319 -16l-44 253q-10 54 -10 158h-11l-82 -290q35 -6 56 -18q6 -42 -7 -87h-252q8 45 32 84q30 19 55 25l113 328q-31 4 -57 11q-2 48 11 91h238l49 -264q14 -81 14 -144h12q19 85 31 115l115 293h264q0 -43 -16 -91q-33 -8 -71 -11l36 -329q40 -8 61 -22q6 -42 -7 -86
h-276q5 43 28 86q16 11 47 22l-21 286h-12q-22 -100 -43 -155l-94 -241z" />
    <glyph glyph-name="two.tab" 
d="M20 0l10 107q26 28 91.5 89t111.5 106.5t85 107.5t39 113q0 79 -66 79q-43 0 -76 -19l-8 -89q-55 -25 -114 -25q-14 77 -14 186q104 49 225 49q95 0 154.5 -40.5t59.5 -119.5q0 -180 -328 -415v-12h179q8 49 23 83q54 13 112 13l-20 -213h-464z" />
    <glyph glyph-name="braceleft.cap" horiz-adv-x="350" 
d="M44 312q3 42 23 89q40 4 53.5 26.5t18.5 71.5l13 135q8 84 58.5 131t168.5 52q-8 -61 -29 -94q-56 -9 -62 -84l-10 -132q-9 -113 -78 -145v-9q66 -28 57 -138l-14 -157q-8 -87 57 -91q2 -15 -2 -48t-11 -46q-115 6 -156 49t-34 122l14 158q5 57 -7.5 81.5t-59.5 28.5z
" />
    <glyph glyph-name="one.taboldstyle" 
d="M208 111l36 319l-136 -19q12 67 32 100q117 42 262 48l-46 -448q60 -6 106 -23q8 -40 -3 -88h-383q14 52 35 85q39 17 97 26z" />
    <glyph glyph-name="f.sc" horiz-adv-x="541" 
d="M259 304h87q10 20 26 33q36 12 81 12l-22 -187q-51 -5 -85 7q-9 18 -9 44h-88l-9 -108q52 -7 83 -21q6 -43 -6 -84h-309q10 50 25 79q25 17 60 29l35 332q-36 4 -62 15q-2 52 7 84h454l-19 -158q-58 0 -102 14q-10 23 -13 50h-122z" />
    </font>
</defs>
</svg>
